{
.appVersion = "3202";
.formatVersion = 3;
axes = (
{
name = Grade;
tag = GRAD;
},
{
name = Weight;
tag = wght;
},
{
name = Slant;
tag = slnt;
}
);
classes = (
{
automatic = 1;
code = "A Aacute Acircumflex Adieresis Agrave Aring Atilde AE B C Ccedilla D Eth E Eacute Ecircumflex Edieresis Egrave F G H I Iacute Icircumflex Idieresis Igrave J K L M N Ntilde O Oacute Ocircumflex Odieresis Ograve Oslash Otilde OE P Thorn Q R S Scaron Scedilla Germandbls T U Uacute Ucircumflex Udieresis Ugrave V W X Y Yacute Ydieresis Z Zcaron Delta Omega";
name = Uppercase;
}
);
customParameters = (
{
name = "Enforce Compatibility Check";
value = 1;
},
{
name = "Use Extension Kerning";
value = 1;
},
{
name = "Use Typo Metrics";
value = 1;
},
{
name = "Use Line Breaks";
value = 1;
},
{
name = "gasp Table";
value = {
"20" = 7;
"65535" = 15;
"8" = 10;
};
},
{
name = fsType;
value = (
);
},
{
name = "Variable Font Origin";
value = m005;
},
{
name = "Write DisplayStrings";
value = 0;
},
{
name = "Write lastChange";
value = 0;
}
);
date = "2023-04-12 05:09:11 +0000";
familyName = Sutasoma;
featurePrefixes = (
{
automatic = 1;
code = "languagesystem DFLT dflt;

languagesystem latn dflt;
";
name = Languagesystems;
}
);
features = (
{
automatic = 1;
code = "feature calt;
feature subs;
feature sinf;
feature sups;
feature numr;
feature dnom;
feature frac;
feature ordn;
feature case;
feature ss01;
feature ss02;
";
tag = aalt;
},
{
code = "lookup uppercaseSharpS {
	sub @Uppercase germandbls' by Germandbls;
	sub germandbls' @Uppercase by Germandbls;
} uppercaseSharpS;";
tag = calt;
},
{
automatic = 1;
code = "lookup ccmp_Other_1 {
	@CombiningTopAccents = [acutecomb brevecomb breveinvertedcomb caroncomb circumflexcomb dblgravecomb dieresiscomb dotaccentcomb gravecomb hungarumlautcomb macroncomb ringcomb tildecomb];
	lookupflag UseMarkFilteringSet @CombiningTopAccents;
	sub i' @CombiningTopAccents by idotless;
	sub j' @CombiningTopAccents by jdotless;
} ccmp_Other_1;

lookup ccmp_Other_2 {

glyphs = (
{
glyphname = A;
layers = (
{
anchors = (
{
name = ogonek;
pos = (554,0);
},
{
name = top;
pos = (296,700);
}
);
layerId = m01;
shapes = (
{
closed = 1;
nodes = (
(85,0,l),
(304,684,l),
(276,684,l),
(501,0,l),
(554,0,l),
(317,700,l),
(274,700,l),
(45,0,l)
);
},
{
closed = 1;
nodes = (
(461,202,l),
(461,232,l),
(135,232,l),
(135,202,l)
);
}
);
userData = {
com.hugojourdan.ColorFlow = {
"0" = 0;
"1" = 0;
"10" = 0;
"11" = 0;
"2" = 0;
"3" = 0;
"4" = 0;
"5" = 0;
"6" = 0;
"7" = 0;
"8" = 0;
"9" = 0;
};
};
width = 599;
},
{
anchors = (
{
name = ogonek;
pos = (604,0);
},
{
name = top;
pos = (308,700);
}
);
layerId = "FF73925E-1E34-445B-881D-5A7CAAA8E8BE";
shapes = (
{
closed = 1;
nodes = (
(115,0,l),
(283,624,l),
(259,624,l),
(416,0,l),
(604,0,l),
(405,700,l),
(211,700,l),
(11,0,l)
);
},
{
closed = 1;
nodes = (
(403,173,l),
(403,253,l),
(132,253,l),
(132,173,l)
);
}
);
userData = {
com.hugojourdan.ColorFlow = {
"0" = 0;
"1" = 0;
"10" = 0;
"11" = 0;
"2" = 0;
"3" = 0;
"4" = 0;
"5" = 0;
"6" = 0;
"7" = 0;
"8" = 0;
"9" = 0;
};
};
width = 615;
},
{
anchors = (
{
name = ogonek;
pos = (575,0);
},
{
name = top;
pos = (290,700);
}
);
layerId = "BF6BA5B2-0556-42F4-A103-614BEBF16A1A";
shapes = (
{
closed = 1;
nodes = (
(94,0,l),
(297,660,l),
(271,660,l),
(470,0,l),
(575,0,l),
(352,700,l),
(253,700,l),
(31,0,l)
);
},
{
closed = 1;
nodes = (
(440,193,l),
(440,243,l),
(128,243,l),
(128,193,l)
);
}
);
userData = {
com.hugojourdan.ColorFlow = {
"0" = 0;
"1" = 0;
"10" = 0;
"11" = 0;
"2" = 0;
"3" = 0;
"4" = 0;
"5" = 0;
"6" = 0;
"7" = 0;
"8" = 0;
"9" = 0;
};
};
width = 606;
},
{
anchors = (
{
name = ogonek;
pos = (563,0);
},
{
name = top;
pos = (303,700);
}
);
layerId = m004;
shapes = (
{
closed = 1;
nodes = (
(89,0,l),
(314,684,l),
(286,684,l),
(510,0,l),
(563,0,l),
(326,700,l),
(273,700,l),
(36,0,l)
);
},
{
closed = 1;
nodes = (
(463,197,l),
(463,237,l),
(136,237,l),
(136,197,l)
);
}
);
userData = {
com.hugojourdan.ColorFlow = {
"0" = 0;
"1" = 0;
"10" = 0;
"11" = 0;
"2" = 0;
"3" = 0;
"4" = 0;
"5" = 0;
"6" = 0;
"7" = 0;
"8" = 0;
"9" = 0;
};
};
width = 599;
},
{
anchors = (
{
name = ogonek;
pos = (586,0);
},
{
name = top;
pos = (312,700);
}
);
layerId = m005;
shapes = (
{
closed = 1;
nodes = (
(136,0,l),
(321,638,l),
(297,638,l),
(481,0,l),
(586,0,l),
(368,700,l),
(249,700,l),
(31,0,l)
);
},
{
closed = 1;
nodes = (
(483,177,l),
(483,254,l),
(138,254,l),
(138,177,l)
);
}
);
userData = {
com.hugojourdan.ColorFlow = {
"0" = 0;
"1" = 0;
"10" = 0;
"11" = 0;
"2" = 0;
"3" = 0;
"4" = 0;
"5" = 0;
"6" = 0;
"7" = 0;
"8" = 0;
"9" = 0;
};
};
width = 617;
},
{
anchors = (
{
name = ogonek;
pos = (610,0);
},
{
name = top;
pos = (314,700);
}
);
layerId = m006;
shapes = (
{
closed = 1;
nodes = (
(199,0,l),
(320,565,l),
(302,565,l),
(422,0,l),
(610,0,l),
(422,700,l),
(199,700,l),
(11,0,l)
);
},
{
closed = 1;
nodes = (
(478,145,l),
(478,281,l),
(143,281,l),
(143,145,l)
);
}
);
userData = {
com.hugojourdan.ColorFlow = {
"0" = 0;
"1" = 0;
"10" = 0;
"11" = 0;
"2" = 0;
"3" = 0;
"4" = 0;
"5" = 0;
"6" = 0;
"7" = 0;
"8" = 0;
"9" = 0;
};
};
width = 621;
},
{
anchors = (
{
name = ogonek;
pos = (523,0);
},
{
name = top;
pos = (382,700);
}
);
layerId = "4E5694F4-F64E-4331-B998-78BE273203C7";
shapes = (
{
closed = 1;
nodes = (
(51,0,l),
(396,682,l),
(367,684,l),
(472,0,l),
(523,0,l),
(410,700,l),
(357,700,l),
(-4,0,l)
);
},
{
closed = 1;
nodes = (
(459,197,l),
(466,237,l),
(139,237,l),
(132,197,l)
);
}
);
userData = {
com.hugojourdan.ColorFlow = {
"0" = 0;
"1" = 0;
"10" = 0;
"11" = 0;
"2" = 0;
"3" = 0;
"4" = 0;
"5" = 0;
"6" = 0;
"7" = 0;
"8" = 0;
"9" = 0;
};
};
width = 599;
},
{
anchors = (
{
name = ogonek;
pos = (545,0);
},
{
name = top;
pos = (389,700);
}
);
layerId = "DF4E5521-40BA-460F-874A-364F4D14AAD8";
shapes = (
{
closed = 1;
nodes = (
(99,0,l),
(396,638,l),
(370,638,l),
(444,0,l),
(545,0,l),
(450,700,l),
(331,700,l),
(-10,0,l)
);
},
{
closed = 1;
nodes = (
(473,177,l),
(486,254,l),
(141,254,l),
(128,177,l)
);
}
);
userData = {
com.hugojourdan.ColorFlow = {
"0" = 0;
"1" = 0;
"10" = 0;
"11" = 0;
"2" = 0;
"3" = 0;
"4" = 0;
"5" = 0;
"6" = 0;
"7" = 0;
"8" = 0;
"9" = 0;
};
};
width = 617;
},
{
anchors = (
{
name = ogonek;
pos = (568,0);
},
{
name = top;
pos = (391,700);
}
);
layerId = "C6DE9ED7-34B3-46A1-8A00-A72C4A5E93A3";
shapes = (
{
closed = 1;
nodes = (
(162,0,l),
(381,565,l),
(360,565,l),
(385,0,l),
(568,0,l),
(500,700,l),
(278,700,l),
(-31,0,l)
);
},
{
closed = 1;
nodes = (
(464,145,l),
(487,280,l),
(152,280,l),
(129,145,l)
);
}
);
userData = {
com.hugojourdan.ColorFlow = {
"0" = 0;
"1" = 0;
"10" = 0;
"11" = 0;
"2" = 0;
"3" = 0;
"4" = 0;
"5" = 0;
"6" = 0;
"7" = 0;
"8" = 0;
"9" = 0;
};
};
width = 621;
},
{
anchors = (
{
name = ogonek;
pos = (514,0);
},
{
name = top;
pos = (374,700);
}
);
layerId = "D2741A44-CB8E-4434-9CC9-735A9A127F4C";
shapes = (
{
closed = 1;
nodes = (
(46,0,l),
(388,684,l),
(358,684,l),
(463,0,l),
(514,0,l),
(401,700,l),
(358,700,l),
(5,0,l)
);
},
{
closed = 1;
nodes = (
(443,202,l),
(438,232,l),
(148,232,l),
(133,202,l)
);
}
);
userData = {
com.hugojourdan.ColorFlow = {
"0" = 0;
"1" = 0;
"10" = 0;
"11" = 0;
"2" = 0;
"3" = 0;
"4" = 0;
"5" = 0;
"6" = 0;
"7" = 0;
"8" = 0;
"9" = 0;
};
};
width = 599;
},
{
anchors = (
{
name = ogonek;
pos = (534,0);
},
{
name = top;
pos = (369,700);
}
);
layerId = "0B63B416-D10E-4459-8DAA-360BF3D1BFD2";
shapes = (
{
closed = 1;
nodes = (
(55,0,l),
(375,660,l),
(347,660,l),
(431,0,l),
(534,0,l),
(434,700,l),
(335,700,l),
(-10,0,l)
);
},
{
closed = 1;
nodes = (
(429,193,l),
(438,243,l),
(131,243,l),
(122,193,l)
);
}
);
userData = {
com.hugojourdan.ColorFlow = {
"0" = 0;
"1" = 0;
"10" = 0;
"11" = 0;
"2" = 0;
"3" = 0;
"4" = 0;
"5" = 0;
"6" = 0;
"7" = 0;
"8" = 0;
"9" = 0;
};
};
width = 606;
},
{
anchors = (
{
name = ogonek;
pos = (562,0);
},
{
name = top;
pos = (362,700);
}
);
layerId = "EE3858F4-A475-4EBA-A8F4-31CE9F38567C";
shapes = (
{
closed = 1;
nodes = (
(77,0,l),
(352,624,l),
(329,624,l),
(379,0,l),
(562,0,l),
(485,700,l),
(291,700,l),
(-31,0,l)
);
},
{
closed = 1;
nodes = (
(394,173,l),
(414,253,l),
(143,253,l),
(123,173,l)
);
}
);
userData = {
com.hugojourdan.ColorFlow = {
"0" = 0;
"1" = 0;
"10" = 0;
"11" = 0;
"2" = 0;
"3" = 0;
"4" = 0;
"5" = 0;
"6" = 0;
"7" = 0;
"8" = 0;
"9" = 0;
};
};
width = 615;
}
);
metricLeft = "=V";
metricRight = "=|";
note = A;
unicode = 65;
},
{
glyphname = AE;
layers = (
{
anchors = (
{
name = top;
pos = (482,700);
}
);
layerId = m01;
shapes = (
{
closed = 1;
nodes = (
(86,0,l),
(456,684,l),
(425,700,l),
(45,0,l)
);
},
{
closed = 1;
nodes = (
(442,202,l),
(442,232,l),
(180,232,l),
(180,202,l)
);
},
{
closed = 1;
nodes = (
(806,0,l),
(806,32,l),
(453,32,l),
(473,12,l),
(473,687,l),
(453,668,l),
(796,668,l),
(796,700,l),
(425,700,l),
(425,0,l)
);
},
{
closed = 1;
nodes = (
(773,347,l),
(773,377,l),
(449,377,l),
(449,347,l)
);
}
);
userData = {
com.hugojourdan.ColorFlow = {
"0" = 0;
"1" = 0;
"10" = 0;
"11" = 0;
"2" = 0;
"3" = 0;
"4" = 0;
"5" = 0;
"6" = 0;
"7" = 0;
"8" = 0;
"9" = 0;
};
};
width = 850;
},
{
anchors = (
{
name = top;
pos = (490,700);
}
);
layerId = "BF6BA5B2-0556-42F4-A103-614BEBF16A1A";
shapes = (
{
closed = 1;
nodes = (
(100,0,l),
(455,660,l),
(407,700,l),
(31,0,l)
);
},
{
closed = 1;
nodes = (
(456,191,l),
(456,241,l),
(183,241,l),
(183,191,l)
);
},
{
closed = 1;
nodes = (
(815,0,l),
(815,52,l),
(483,52,l),
(505,30,l),
(505,669,l),
(484,648,l),
(803,648,l),
(803,700,l),
(407,700,l),
(407,0,l)
);
},
{
closed = 1;
nodes = (
(782,341,l),
(782,389,l),
(455,389,l),
(455,341,l)
);
}
);
userData = {
com.hugojourdan.ColorFlow = {
"0" = 0;
"1" = 0;
"10" = 0;
"11" = 0;
"2" = 0;
"3" = 0;
"4" = 0;
"5" = 0;
"6" = 0;
"7" = 0;
"8" = 0;
"9" = 0;
};
};
width = 855;
},
{
anchors = (
{
name = top;
pos = (500,700);
}
);
layerId = "FF73925E-1E34-445B-881D-5A7CAAA8E8BE";
shapes = (
{
closed = 1;
nodes = (
(115,0,l),
(450,643,l),
(381,700,l),
(11,0,l)
);
},
{
closed = 1;
nodes = (
(470,173,l),
(470,253,l),
(172,253,l),
(172,173,l)
);
},
{
closed = 1;
nodes = (
(832,0,l),
(832,87,l),
(517,87,l),
(559,48,l),
(559,651,l),
(518,614,l),
(822,614,l),
(822,700,l),
(381,700,l),
(381,0,l)
);
},
{
closed = 1;
nodes = (
(799,323,l),
(799,403,l),
(470,403,l),
(470,323,l)
);
}
);
userData = {
com.hugojourdan.ColorFlow = {
"0" = 0;
"1" = 0;
"10" = 0;
"11" = 0;
"2" = 0;
"3" = 0;
"4" = 0;
"5" = 0;
"6" = 0;
"7" = 0;
"8" = 0;
"9" = 0;
};
};
width = 859;
},
{
anchors = (
{
name = top;
pos = (473,700);
}
);
guides = (
{
pos = (300,641);
}
);
layerId = m004;
shapes = (
{
closed = 1;
nodes = (
(87,0,l),
(446,700,l),
(398,700,l),
(36,0,l)
);
},
{
closed = 1;
nodes = (
(434,197,l),
(434,237,l),
(172,237,l),
(172,197,l)
);
},
{
closed = 1;
nodes = (
(797,0,l),
(797,42,l),
(446,42,l),
(464,24,l),
(464,676,l),
(446,658,l),
(787,658,l),
(787,700,l),
(416,700,l),
(416,0,l)
);
},
{
closed = 1;
nodes = (
(764,342,l),
(764,384,l),
(440,384,l),
(440,342,l)
);
}
);
userData = {
com.hugojourdan.ColorFlow = {
"0" = 0;
"1" = 0;
"10" = 0;
"11" = 0;
"2" = 0;
"3" = 0;
"4" = 0;
"5" = 0;
"6" = 0;
"7" = 0;
"8" = 0;
"9" = 0;
};
};
width = 841;
},
{
anchors = (
{
name = top;
pos = (492,700);
}
);
guides = (
{
pos = (309,597);
}
);
layerId = m005;
shapes = (
{
closed = 1;
nodes = (
(135,0,l),
(454,700,l),
(354,700,l),
(31,0,l)
);
},
{
closed = 1;
nodes = (
(456,177,l),
(456,254,l),
(193,254,l),
(193,177,l)
);
},
{
closed = 1;
nodes = (
(820,0,l),
(820,78,l),
(480,78,l),
(510,48,l),
(510,652,l),
(480,622,l),
(808,622,l),
(808,700,l),
(412,700,l),
(412,0,l)
);
},
{
closed = 1;
nodes = (
(785,326,l),
(785,400,l),
(460,400,l),
(460,326,l)
);
}
);
userData = {
com.hugojourdan.ColorFlow = {
"0" = 0;
"1" = 0;
"10" = 0;
"11" = 0;
"2" = 0;
"3" = 0;
"4" = 0;
"5" = 0;
"6" = 0;
"7" = 0;
"8" = 0;
"9" = 0;
};
};
width = 860;
},
{
anchors = (
{
name = top;
pos = (502,700);
}
);
guides = (
{
pos = (315,522);
}
);
layerId = m006;
shapes = (
{
closed = 1;
nodes = (
(195,0,l),
(450,700,l),
(281,700,l),
(11,0,l)
);
},
{
closed = 1;
nodes = (
(474,145,l),
(474,275,l),
(176,275,l),
(176,145,l)
);
},
{
closed = 1;
nodes = (
(836,0,l),
(836,137,l),
(516,137,l),
(563,90,l),
(563,610,l),
(516,563,l),
(826,563,l),
(826,700,l),
(385,700,l),
(385,0,l)
);
},
{
closed = 1;
nodes = (
(803,298,l),
(803,428,l),
(474,428,l),
(474,298,l)
);
}
);
userData = {
com.hugojourdan.ColorFlow = {
"0" = 0;
"1" = 0;
"10" = 0;
"11" = 0;
"2" = 0;
"3" = 0;
"4" = 0;
"5" = 0;
"6" = 0;
"7" = 0;
"8" = 0;
"9" = 0;
};
};
width = 863;
},
{
anchors = (
{
name = top;
pos = (552,700);
}
);
guides = (
{
pos = (356,639);
}
);
layerId = "4E5694F4-F64E-4331-B998-78BE273203C7";
shapes = (
{
closed = 1;
nodes = (
(50,0,l),
(524,700,l),
(472,700,l),
(-4,0,l)
);
},
{
closed = 1;
nodes = (
(440,197,l),
(447,237,l),
(180,237,l),
(173,197,l)
);
},
{
closed = 1;
nodes = (
(757,0,l),
(764,42,l),
(417,42,l),
(429,30,l),
(537,676,l),
(519,658,l),
(854,658,l),
(861,700,l),
(493,700,l),
(376,0,l)
);
},
{
closed = 1;
nodes = (
(781,342,l),
(788,384,l),
(467,384,l),
(461,342,l)
);
}
);
userData = {
com.hugojourdan.ColorFlow = {
"0" = 0;
"1" = 0;
"10" = 0;
"11" = 0;
"2" = 0;
"3" = 0;
"4" = 0;
"5" = 0;
"6" = 0;
"7" = 0;
"8" = 0;
"9" = 0;
};
};
width = 841;
},
{
anchors = (
{
name = top;
pos = (570,700);
}
);
guides = (
{
pos = (375,593);
}
);
layerId = "DF4E5521-40BA-460F-874A-364F4D14AAD8";
shapes = (
{
closed = 1;
nodes = (
(99,0,l),
(537,700,l),
(430,700,l),
(-10,0,l)
);
},
{
closed = 1;
nodes = (
(457,177,l),
(470,254,l),
(195,254,l),
(182,177,l)
);
},
{
closed = 1;
nodes = (
(779,0,l),
(792,78,l),
(452,78,l),
(477,48,l),
(578,652,l),
(543,622,l),
(870,622,l),
(883,700,l),
(488,700,l),
(371,0,l)
);
},
{
closed = 1;
nodes = (
(797,326,l),
(811,400,l),
(486,400,l),
(474,326,l)
);
}
);
userData = {
com.hugojourdan.ColorFlow = {
"0" = 0;
"1" = 0;
"10" = 0;
"11" = 0;
"2" = 0;
"3" = 0;
"4" = 0;
"5" = 0;
"6" = 0;
"7" = 0;
"8" = 0;
"9" = 0;
};
};
width = 860;
},
{
anchors = (
{
name = top;
pos = (579,700);
}
);
guides = (
{
angle = 80.5;
pos = (11,251);
},
{
pos = (362,516);
}
);
layerId = "C6DE9ED7-34B3-46A1-8A00-A72C4A5E93A3";
shapes = (
{
closed = 1;
nodes = (
(160,0,l),
(526,700,l),
(352,700,l),
(-31,0,l)
);
},
{
closed = 1;
nodes = (
(459,145,l),
(480,275,l),
(185,275,l),
(164,145,l)
);
},
{
closed = 1;
nodes = (
(794,0,l),
(817,137,l),
(500,137,l),
(537,90,l),
(624,610,l),
(571,563,l),
(878,563,l),
(901,700,l),
(461,700,l),
(344,0,l)
);
},
{
closed = 1;
nodes = (
(811,298,l),
(833,428,l),
(505,428,l),
(483,298,l)
);
}
);
userData = {
com.hugojourdan.ColorFlow = {
"0" = 0;
"1" = 0;
"10" = 0;
"11" = 0;
"2" = 0;
"3" = 0;
"4" = 0;
"5" = 0;
"6" = 0;
"7" = 0;
"8" = 0;
"9" = 0;
};
};
width = 863;
},
{
anchors = (
{
name = top;
pos = (560,700);
}
);
layerId = "D2741A44-CB8E-4434-9CC9-735A9A127F4C";
shapes = (
{
closed = 1;
nodes = (
(48,0,l),
(529,680,l),
(501,700,l),
(5,0,l)
);
},
{
closed = 1;
nodes = (
(438,202,l),
(443,232,l),
(181,232,l),
(176,202,l)
);
},
{
closed = 1;
nodes = (
(766,0,l),
(771,32,l),
(418,32,l),
(435,12,l),
(548,687,l),
(526,668,l),
(868,668,l),
(873,700,l),
(502,700,l),
(385,0,l)
);
},
{
closed = 1;
nodes = (
(791,347,l),
(796,377,l),
(472,377,l),
(467,347,l)
);
}
);
userData = {
com.hugojourdan.ColorFlow = {
"0" = 0;
"1" = 0;
"10" = 0;
"11" = 0;
"2" = 0;
"3" = 0;
"4" = 0;
"5" = 0;
"6" = 0;
"7" = 0;
"8" = 0;
"9" = 0;
};
};
width = 850;
},
{
anchors = (
{
name = top;
pos = (566,700);
}
);
layerId = "0B63B416-D10E-4459-8DAA-360BF3D1BFD2";
shapes = (
{
closed = 1;
nodes = (
(59,0,l),
(524,660,l),
(483,700,l),
(-10,0,l)
);
},
{
closed = 1;
nodes = (
(447,191,l),
(455,241,l),
(182,241,l),
(174,191,l)
);
},
{
closed = 1;
nodes = (
(774,0,l),
(783,52,l),
(451,52,l),
(469,30,l),
(576,669,l),
(551,648,l),
(870,648,l),
(879,700,l),
(483,700,l),
(366,0,l)
);
},
{
closed = 1;
nodes = (
(798,341,l),
(806,389,l),
(479,389,l),
(471,341,l)
);
}
);
userData = {
com.hugojourdan.ColorFlow = {
"0" = 0;
"1" = 0;
"10" = 0;
"11" = 0;
"2" = 0;
"3" = 0;
"4" = 0;
"5" = 0;
"6" = 0;
"7" = 0;
"8" = 0;
"9" = 0;
};
};
width = 855;
},
{
anchors = (
{
name = top;
pos = (575,700);
}
);
layerId = "EE3858F4-A475-4EBA-A8F4-31CE9F38567C";
shapes = (
{
closed = 1;
nodes = (
(73,0,l),
(516,643,l),
(456,700,l),
(-31,0,l)
);
},
{
closed = 1;
nodes = (
(457,173,l),
(470,253,l),
(172,253,l),
(159,173,l)
);
},
{
closed = 1;
nodes = (
(790,0,l),
(804,87,l),
(490,87,l),
(525,48,l),
(626,651,l),
(578,614,l),
(883,614,l),
(897,700,l),
(456,700,l),
(339,0,l)
);
},
{
closed = 1;
nodes = (
(811,323,l),
(824,403,l),
(495,403,l),
(482,323,l)
);
}
);
userData = {
com.hugojourdan.ColorFlow = {
"0" = 0;
"1" = 0;
"10" = 0;
"11" = 0;
"2" = 0;
"3" = 0;
"4" = 0;
"5" = 0;
"6" = 0;
"7" = 0;
"8" = 0;
"9" = 0;
};
};
width = 859;
}
);
metricLeft = "=A";
metricRight = "=E";
unicode = 198;
},
{
glyphname = B;
layers = (
{
layerId = m01;
shapes = (
{
closed = 1;
nodes = (
(300,0,ls),
(444,0,o),
(525,69,o),
(525,192,cs),
(525,306,o),
(455,372,o),
(329,376,c),
(335,367,l),
(432,377,o),
(487,436,o),
(487,532,cs),
(487,640,o),
(407,700,o),
(264,700,cs),
(96,700,l),
(96,0,l)
);
},
{
closed = 1;
nodes = (
(144,687,l),
(124,668,l),
(269,668,ls),
(378,668,o),
(439,617,o),
(439,526,cs),
(439,435,o),
(378,384,o),
(269,384,cs),
(120,384,l),
(120,352,l),
(286,352,ls),
(406,352,o),
(473,295,o),
(473,192,cs),
(473,89,o),
(406,32,o),
(286,32,cs),
(124,32,l),
(144,12,l)
);
}
);
userData = {
com.hugojourdan.ColorFlow = {
"0" = 0;
"1" = 0;
"10" = 0;
"11" = 0;
"2" = 0;
"3" = 0;
"4" = 0;
"5" = 0;
"6" = 0;
"7" = 0;
"8" = 0;
"9" = 0;
};
};
width = 602;
},
{
layerId = "FF73925E-1E34-445B-881D-5A7CAAA8E8BE";
shapes = (
{
closed = 1;
nodes = (
(296,0,ls),
(495,0,o),
(594,70,o),
(594,209,cs),
(594,336,o),
(520,391,o),
(348,391,c),
(354,376,l),
(498,376,o),
(568,424,o),
(568,522,cs),
(568,646,o),
(482,700,o),
(286,700,cs),
(58,700,l),
(58,0,l)
);
},
{
closed = 1;
nodes = (
(236,651,l),
(195,614,l),
(268,614,ls),
(346,614,o),
(385,581,o),
(385,514,cs),
(385,448,o),
(346,414,o),
(268,414,cs),
(146,414,l),
(146,334,l),
(271,334,ls),
(363,334,o),
(408,293,o),
(408,210,cs),
(408,126,o),
(363,86,o),
(271,86,cs),
(194,86,l),
(236,48,l)
);
}
);
userData = {
com.hugojourdan.ColorFlow = {
"0" = 0;
"1" = 0;
"10" = 0;
"11" = 0;
"2" = 0;
"3" = 0;
"4" = 0;
"5" = 0;
"6" = 0;
"7" = 0;
"8" = 0;
"9" = 0;
};
};
width = 641;
},
{
layerId = "BF6BA5B2-0556-42F4-A103-614BEBF16A1A";
shapes = (
{
closed = 1;
nodes = (
(316,0,ls),
(479,0,o),
(564,68,o),
(564,197,cs),
(564,308,o),
(501,367,o),
(375,376,c),
(375,365,l),
(477,379,o),
(532,438,o),
(532,534,cs),
(532,641,o),
(446,700,o),
(290,700,cs),
(86,700,l),
(86,0,l)
);
},
{
closed = 1;
nodes = (
(184,669,l),
(168,653,l),
(270,653,ls),
(385,653,o),
(429,619,o),
(429,530,cs),
(429,438,o),
(381,391,o),
(287,391,cs),
(135,391,l),
(135,345,l),
(288,345,ls),
(404,345,o),
(460,294,o),
(460,190,cs),
(460,91,o),
(409,47,o),
(294,47,cs),
(167,47,l),
(184,30,l)
);
}
);
userData = {
com.hugojourdan.ColorFlow = {
"0" = 0;
"1" = 0;
"10" = 0;
"11" = 0;
"2" = 0;
"3" = 0;
"4" = 0;
"5" = 0;
"6" = 0;
"7" = 0;
"8" = 0;
"9" = 0;
};
};
width = 629;
},
{
layerId = m004;
shapes = (
{
closed = 1;
nodes = (
(300,0,ls),
(444,0,o),
(525,69,o),
(525,192,cs),
(525,307,o),
(455,373,o),
(329,378,c),
(335,369,l),
(432,378,o),
(487,437,o),
(487,532,cs),
(487,640,o),
(407,700,o),
(264,700,cs),
(96,700,l),
(96,0,l)
);
},
{
closed = 1;
nodes = (
(144,682,l),
(120,658,l),
(269,658,ls),
(378,658,o),
(439,610,o),
(439,524,cs),
(439,438,o),
(378,390,o),
(269,390,cs),
(120,390,l),
(120,350,l),
(286,350,ls),
(406,350,o),
(473,295,o),
(473,195,cs),
(473,96,o),
(406,42,o),
(286,42,cs),
(120,42,l),
(144,18,l)
);
}
);
userData = {
com.hugojourdan.ColorFlow = {
"0" = 0;
"1" = 0;
"10" = 0;
"11" = 0;
"2" = 0;
"3" = 0;
"4" = 0;
"5" = 0;
"6" = 0;
"7" = 0;
"8" = 0;
"9" = 0;
};
};
width = 602;
},
{
layerId = m005;
shapes = (
{
closed = 1;
nodes = (
(319,0,ls),
(480,0,o),
(567,69,o),
(567,197,cs),
(567,311,o),
(500,375,o),
(372,383,c),
(379,366,l),
(476,371,o),
(534,430,o),
(534,522,cs),
(534,641,o),
(455,700,o),
(293,700,cs),
(86,700,l),
(86,0,l)
);
},
{
closed = 1;
nodes = (
(184,662,l),
(145,623,l),
(295,623,ls),
(382,623,o),
(431,583,o),
(431,512,cs),
(431,442,o),
(382,402,o),
(295,402,cs),
(136,402,l),
(136,330,l),
(313,330,ls),
(408,330,o),
(462,284,o),
(462,202,cs),
(462,122,o),
(408,77,o),
(313,77,cs),
(145,77,l),
(184,38,l)
);
}
);
userData = {
com.hugojourdan.ColorFlow = {
"0" = 0;
"1" = 0;
"10" = 0;
"11" = 0;
"2" = 0;
"3" = 0;
"4" = 0;
"5" = 0;
"6" = 0;
"7" = 0;
"8" = 0;
"9" = 0;
};
};
width = 632;
},
{
layerId = m006;
shapes = (
{
closed = 1;
nodes = (
(296,0,ls),
(493,0,o),
(590,71,o),
(590,209,cs),
(590,322,o),
(524,377,o),
(388,377,c),
(394,362,l),
(508,362,o),
(564,427,o),
(564,526,cs),
(564,647,o),
(482,700,o),
(286,700,cs),
(58,700,l),
(58,0,l)
);
},
{
closed = 1;
nodes = (
(236,609,l),
(191,564,l),
(300,564,ls),
(361,564,o),
(381,528,o),
(381,492,cs),
(381,457,o),
(361,421,o),
(300,421,cs),
(148,421,l),
(148,291,l),
(321,291,ls),
(364,291,o),
(404,266,o),
(404,212,cs),
(404,160,o),
(364,136,o),
(321,136,cs),
(191,136,l),
(236,91,l)
);
}
);
userData = {
com.hugojourdan.ColorFlow = {
"0" = 0;
"1" = 0;
"10" = 0;
"11" = 0;
"2" = 0;
"3" = 0;
"4" = 0;
"5" = 0;
"6" = 0;
"7" = 0;
"8" = 0;
"9" = 0;
};
};
width = 637;
},
{
background = {
shapes = (
{
closed = 0;
nodes = (
(293,0,ls),
(416,0,o),
(495,61,o),
(514,174,cs),
(516,188,o),
(517,201,o),
(517,214,cs),
(517,304,o),
(459,361,o),
(350,373,c),
(354,364,l),
(452,366,o),
(517,420,o),
(532,516,cs),
(534,527,o),
(535,538,o),
(535,548,cs),
(535,635,o),
(466,689,o),
(339,700,c)
);
},
{
closed = 0;
nodes = (
(338,658,l),
(433,650,o),
(485,609,o),
(485,539,cs),
(485,531,o),
(484,522,o),
(483,513,cs),
(469,433,o),
(411,390,o),
(320,390,cs)
);
},
{
closed = 0;
nodes = (
(303,350,l),
(412,341,o),
(470,292,o),
(470,212,cs),
(470,202,o),
(469,192,o),
(467,181,cs),
(451,90,o),
(387,42,o),
(283,42,cs)
);
}
);
};
guides = (
{
angle = 80.5;
pos = (96,239);
},
{
angle = 80.5;
pos = (525,239);
},
{
angle = 80.5;
pos = (144,239);
},
{
angle = 80.5;
pos = (473,239);
},
{
angle = 80.5;
pos = (487,239);
},
{
angle = 80.5;
pos = (436,239);
}
);
layerId = "4E5694F4-F64E-4331-B998-78BE273203C7";
shapes = (
{
closed = 1;
nodes = (
(283,0,ls),
(423,0,o),
(516,82,o),
(516,206,cs),
(516,301,o),
(464,356,o),
(350,380,c),
(354,365,l),
(459,366,o),
(535,441,o),
(535,542,cs),
(535,645,o),
(453,700,o),
(315,700,cs),
(173,700,l),
(56,0,l)
);
},
{
closed = 1;
nodes = (
(217,676,l),
(199,658,l),
(320,658,ls),
(428,658,o),
(484,618,o),
(484,541,cs),
(484,447,o),
(422,390,o),
(320,390,cs),
(146,390,l),
(139,350,l),
(288,350,ls),
(403,350,o),
(465,299,o),
(465,206,cs),
(465,108,o),
(391,42,o),
(283,42,cs),
(97,42,l),
(109,30,l)
);
}
);
userData = {
com.hugojourdan.ColorFlow = {
"0" = 0;
"1" = 0;
"10" = 0;
"11" = 0;
"2" = 0;
"3" = 0;
"4" = 0;
"5" = 0;
"6" = 0;
"7" = 0;
"8" = 0;
"9" = 0;
};
};
width = 602;
},
{
background = {
shapes = (
{
closed = 0;
nodes = (
(359,623,l),
(434,616,o),
(476,582,o),
(476,526,cs),
(476,452,o),
(425,402,o),
(342,402,cs)
);
},
{
closed = 0;
nodes = (
(327,330,l),
(410,323,o),
(455,283,o),
(455,219,cs),
(455,130,o),
(399,77,o),
(309,77,cs)
);
},
{
closed = 0;
nodes = (
(320,0,ls),
(492,0,o),
(559,105,o),
(559,221,cs),
(559,309,o),
(503,363,o),
(393,379,c),
(399,362,l),
(527,362,o),
(580,443,o),
(580,540,cs),
(580,635,o),
(510,688,o),
(369,700,c)
);
}
);
};
layerId = "DF4E5521-40BA-460F-874A-364F4D14AAD8";
shapes = (
{
closed = 1;
nodes = (
(312,0,ls),
(462,0,o),
(558,84,o),
(558,215,cs),
(558,310,o),
(506,361,o),
(392,379,c),
(398,362,l),
(509,362,o),
(579,429,o),
(579,535,cs),
(579,644,o),
(500,700,o),
(348,700,cs),
(162,700,l),
(45,0,l)
);
},
{
closed = 1;
nodes = (
(252,652,l),
(217,623,l),
(338,623,ls),
(428,623,o),
(475,588,o),
(475,522,cs),
(475,451,o),
(420,402,o),
(341,402,cs),
(180,402,l),
(168,330,l),
(314,330,ls),
(405,330,o),
(454,289,o),
(454,213,cs),
(454,130,o),
(395,77,o),
(304,77,cs),
(125,77,l),
(151,48,l)
);
}
);
userData = {
com.hugojourdan.ColorFlow = {
"0" = 0;
"1" = 0;
"10" = 0;
"11" = 0;
"2" = 0;
"3" = 0;
"4" = 0;
"5" = 0;
"6" = 0;
"7" = 0;
"8" = 0;
"9" = 0;
};
};
width = 632;
},
{
background = {
shapes = (
{
closed = 0;
nodes = (
(314,0,ls),
(472,0,o),
(559,64,o),
(580,188,cs),
(582,202,o),
(584,215,o),
(584,228,cs),
(584,314,o),
(526,362,o),
(408,372,c),
(411,356,l),
(418,355,o),
(426,355,o),
(433,355,cs),
(533,355,o),
(592,414,o),
(607,506,cs),
(609,519,o),
(610,531,o),
(610,542,cs),
(610,637,o),
(533,686,o),
(360,700,c)
);
},
{
closed = 0;
nodes = (
(327,291,l),
(365,288,o),
(398,266,o),
(398,223,cs),
(398,162,o),
(355,136,o),
(311,136,cs)
);
},
{
closed = 0;
nodes = (
(352,563,l),
(404,559,o),
(421,531,o),
(421,501,cs),
(421,463,o),
(400,421,o),
(340,421,cs)
);
}
);
};
guides = (
{
angle = 80.5;
pos = (58,251);
},
{
angle = 80.5;
pos = (236,251);
},
{
angle = 80.5;
pos = (590,251);
},
{
angle = 80.5;
pos = (564,251);
},
{
angle = 80.5;
pos = (404,251);
},
{
angle = 80.5;
pos = (382,251);
}
);
layerId = "C6DE9ED7-34B3-46A1-8A00-A72C4A5E93A3";
shapes = (
{
closed = 1;
nodes = (
(314,0,ls),
(476,0,o),
(582,87,o),
(582,220,cs),
(582,315,o),
(531,360,o),
(408,372,c),
(411,356,l),
(517,339,o),
(609,422,o),
(609,536,cs),
(609,644,o),
(524,700,o),
(360,700,cs),
(133,700,l),
(16,0,l)
);
},
{
closed = 1;
nodes = (
(296,610,l),
(243,563,l),
(347,563,ls),
(394,563,o),
(421,540,o),
(421,498,cs),
(421,452,o),
(388,421,o),
(340,421,cs),
(176,421,l),
(153,291,l),
(321,291,ls),
(368,291,o),
(397,263,o),
(397,217,cs),
(397,169,o),
(361,136,o),
(310,136,cs),
(172,137,l),
(209,90,l)
);
}
);
userData = {
com.hugojourdan.ColorFlow = {
"0" = 0;
"1" = 0;
"10" = 0;
"11" = 0;
"2" = 0;
"3" = 0;
"4" = 0;
"5" = 0;
"6" = 0;
"7" = 0;
"8" = 0;
"9" = 0;
};
};
width = 637;
},
{
layerId = "D2741A44-CB8E-4434-9CC9-735A9A127F4C";
shapes = (
{
closed = 1;
nodes = (
(284,0,ls),
(424,0,o),
(516,81,o),
(516,205,cs),
(516,301,o),
(463,356,o),
(349,378,c),
(353,363,l),
(460,366,o),
(535,440,o),
(535,541,cs),
(535,643,o),
(455,700,o),
(312,700,cs),
(173,700,l),
(56,0,l)
);
},
{
closed = 1;
nodes = (
(219,687,l),
(197,668,l),
(317,668,ls),
(431,668,o),
(487,625,o),
(487,539,cs),
(487,445,o),
(421,384,o),
(317,384,cs),
(149,384,l),
(142,352,l),
(283,352,ls),
(401,352,o),
(464,299,o),
(464,202,cs),
(464,98,o),
(388,32,o),
(270,32,cs),
(89,32,l),
(106,12,l)
);
}
);
userData = {
com.hugojourdan.ColorFlow = {
"0" = 0;
"1" = 0;
"10" = 0;
"11" = 0;
"2" = 0;
"3" = 0;
"4" = 0;
"5" = 0;
"6" = 0;
"7" = 0;
"8" = 0;
"9" = 0;
};
};
width = 602;
},
{
layerId = "0B63B416-D10E-4459-8DAA-360BF3D1BFD2";
shapes = (
{
closed = 1;
nodes = (
(307,0,ls),
(462,0,o),
(555,82,o),
(555,215,cs),
(555,312,o),
(497,364,o),
(370,382,c),
(390,366,l),
(505,368,o),
(578,434,o),
(578,537,cs),
(578,642,o),
(495,700,o),
(344,700,cs),
(162,700,l),
(45,0,l)
);
},
{
closed = 1;
nodes = (
(255,669,l),
(229,653,l),
(334,653,ls),
(426,653,o),
(475,612,o),
(475,535,cs),
(475,446,o),
(420,391,o),
(329,391,cs),
(162,391,l),
(153,345,l),
(299,345,ls),
(398,345,o),
(452,298,o),
(452,213,cs),
(452,113,o),
(388,47,o),
(289,47,cs),
(127,47,l),
(148,30,l)
);
}
);
userData = {
com.hugojourdan.ColorFlow = {
"0" = 0;
"1" = 0;
"10" = 0;
"11" = 0;
"2" = 0;
"3" = 0;
"4" = 0;
"5" = 0;
"6" = 0;
"7" = 0;
"8" = 0;
"9" = 0;
};
};
width = 629;
},
{
layerId = "EE3858F4-A475-4EBA-A8F4-31CE9F38567C";
shapes = (
{
closed = 1;
nodes = (
(313,0,ls),
(489,0,o),
(586,84,o),
(586,231,cs),
(586,328,o),
(521,376,o),
(372,389,c),
(418,371,l),
(546,371,o),
(613,429,o),
(613,539,cs),
(613,644,o),
(525,700,o),
(362,700,cs),
(133,700,l),
(16,0,l)
);
},
{
closed = 1;
nodes = (
(303,651,l),
(260,614,l),
(331,614,ls),
(393,614,o),
(430,584,o),
(430,533,cs),
(430,459,o),
(388,414,o),
(317,414,cs),
(163,414,l),
(150,334,l),
(287,334,ls),
(360,334,o),
(402,297,o),
(402,234,cs),
(402,141,o),
(352,86,o),
(269,86,cs),
(164,86,l),
(202,48,l)
);
}
);
userData = {
com.hugojourdan.ColorFlow = {
"0" = 0;
"1" = 0;
"10" = 0;
"11" = 0;
"2" = 0;
"3" = 0;
"4" = 0;
"5" = 0;
"6" = 0;
"7" = 0;
"8" = 0;
"9" = 0;
};
};
width = 641;
}
);
metricLeft = "=H";
metricRight = "=O*1.02";
note = B;
unicode = 66;
},
{
glyphname = C;
layers = (
{
anchors = (
{
name = bottom;
pos = (349,0);
}
);
layerId = m01;
metricRight = "=|*0.7";
shapes = (
{
closed = 1;
nodes = (
(422,-10,o),
(495,16,o),
(542,69,c),
(503,98,l),
(476,52,o),
(413,22,o),
(348,22,cs),
(208,22,o),
(128,140,o),
(128,350,cs),
(128,560,o),
(208,678,o),
(348,678,cs),
(413,678,o),
(476,648,o),
(503,602,c),
(536,637,l),
(489,686,o),
(419,710,o),
(350,710,cs),
(174,710,o),
(75,581,o),
(75,350,cs),
(75,119,o),
(174,-10,o),
(350,-10,cs)
);
}
);
userData = {
com.hugojourdan.ColorFlow = {
"0" = 0;
"1" = 0;
"10" = 0;
"11" = 0;
"2" = 0;
"3" = 0;
"4" = 0;
"5" = 0;
"6" = 0;
"7" = 0;
"8" = 0;
"9" = 0;
};
};
width = 595;
},
{
anchors = (
{
name = bottom;
pos = (349,0);
}
);
layerId = "FF73925E-1E34-445B-881D-5A7CAAA8E8BE";
metricRight = "=|*0.34";
shapes = (
{
closed = 1;
nodes = (
(468,-10,o),
(567,39,o),
(618,121,c),
(489,211,l),
(449,120,o),
(408,80,o),
(360,80,cs),
(284,80,o),
(234,182,o),
(234,355,cs),
(234,518,o),
(278,616,o),
(351,616,cs),
(398,616,o),
(435,574,o),
(461,495,c),
(606,546,l),
(564,652,o),
(472,710,o),
(347,710,cs),
(160,710,o),
(46,579,o),
(46,349,cs),
(46,122,o),
(158,-10,o),
(351,-10,cs)
);
}
);
userData = {
com.hugojourdan.ColorFlow = {
"0" = 0;
"1" = 0;
"10" = 0;
"11" = 0;
"2" = 0;
"3" = 0;
"4" = 0;
"5" = 0;
"6" = 0;
"7" = 0;
"8" = 0;
"9" = 0;
};
};
width = 634;
},
{
anchors = (
{
name = bottom;
pos = (343,0);
}
);
layerId = "BF6BA5B2-0556-42F4-A103-614BEBF16A1A";
shapes = (
{
closed = 1;
nodes = (
(449,-10,o),
(548,42,o),
(579,114,c),
(497,145,l),
(475,84,o),
(413,42,o),
(345,42,cs),
(235,42,o),
(169,157,o),
(169,350,cs),
(169,544,o),
(238,658,o),
(354,658,cs),
(416,658,o),
(474,617,o),
(495,560,c),
(577,591,l),
(547,660,o),
(453,710,o),
(353,710,cs),
(177,710,o),
(64,569,o),
(64,350,cs),
(64,130,o),
(173,-10,o),
(344,-10,cs)
);
}
);
userData = {
com.hugojourdan.ColorFlow = {
"0" = 0;
"1" = 0;
"10" = 0;
"11" = 0;
"2" = 0;
"3" = 0;
"4" = 0;
"5" = 0;
"6" = 0;
"7" = 0;
"8" = 0;
"9" = 0;
};
};
width = 624;
},
{
anchors = (
{
name = bottom;
pos = (348,0);
}
);
background = {
shapes = (
{
pos = (5,0);
ref = O;
}
);
};
layerId = m004;
metricRight = "=|*0.7";
shapes = (
{
closed = 1;
nodes = (
(421,-10,o),
(495,16,o),
(542,69,c),
(509,104,l),
(481,68,o),
(415,34,o),
(347,34,cs),
(208,34,o),
(128,148,o),
(128,350,cs),
(128,552,o),
(208,666,o),
(347,666,cs),
(412,666,o),
(476,635,o),
(503,602,c),
(536,637,l),
(489,686,o),
(418,710,o),
(349,710,cs),
(174,710,o),
(75,581,o),
(75,350,cs),
(75,119,o),
(174,-10,o),
(349,-10,cs)
);
}
);
userData = {
com.hugojourdan.ColorFlow = {
"0" = 0;
"1" = 0;
"10" = 0;
"11" = 0;
"2" = 0;
"3" = 0;
"4" = 0;
"5" = 0;
"6" = 0;
"7" = 0;
"8" = 0;
"9" = 0;
};
};
width = 595;
},
{
anchors = (
{
name = bottom;
pos = (361,0);
}
);
background = {
shapes = (
{
pos = (3,0);
ref = O;
}
);
};
guides = (
{
angle = 90;
pos = (583,121);
},
{
angle = 90;
pos = (565,121);
}
);
layerId = m005;
shapes = (
{
closed = 1;
nodes = (
(449,-10,o),
(531,24,o),
(579,78,c),
(524,143,l),
(485,103,o),
(418,74,o),
(364,74,cs),
(239,74,o),
(169,175,o),
(169,350,cs),
(169,526,o),
(238,626,o),
(361,626,cs),
(417,626,o),
(485,597,o),
(525,557,c),
(576,626,l),
(526,678,o),
(444,710,o),
(359,710,cs),
(171,710,o),
(64,579,o),
(64,350,cs),
(64,120,o),
(172,-10,o),
(363,-10,cs)
);
}
);
userData = {
com.hugojourdan.ColorFlow = {
"0" = 0;
"1" = 0;
"10" = 0;
"11" = 0;
"2" = 0;
"3" = 0;
"4" = 0;
"5" = 0;
"6" = 0;
"7" = 0;
"8" = 0;
"9" = 0;
};
};
width = 624;
},
{
anchors = (
{
name = bottom;
pos = (372,0);
}
);
guides = (
{
angle = 122.969;
pos = (618,95);
},
{
angle = 90;
pos = (618,121);
},
{
angle = 90;
pos = (485,121);
},
{
pos = (449,43);
},
{
angle = 90;
pos = (600,121);
}
);
layerId = m006;
metricRight = "=|*0.34";
shapes = (
{
closed = 1;
nodes = (
(483,-10,o),
(572,39,o),
(618,92,c),
(538,215,l),
(499,178,o),
(438,138,o),
(383,138,cs),
(306,138,o),
(234,191,o),
(234,350,cs),
(234,509,o),
(302,562,o),
(374,562,cs),
(438,562,o),
(487,522,o),
(526,485,c),
(606,608,l),
(561,661,o),
(473,710,o),
(367,710,cs),
(166,710,o),
(46,581,o),
(46,350,cs),
(46,119,o),
(169,-10,o),
(376,-10,cs)
);
}
);
userData = {
com.hugojourdan.ColorFlow = {
"0" = 0;
"1" = 0;
"10" = 0;
"11" = 0;
"2" = 0;
"3" = 0;
"4" = 0;
"5" = 0;
"6" = 0;
"7" = 0;
"8" = 0;
"9" = 0;
};
};
width = 634;
},
{
anchors = (
{
name = bottom;
pos = (283,0);
}
);
background = {
shapes = (
{
pos = (8,0);
ref = O;
}
);
};
guides = (
{
angle = 80.5;
pos = (75,239);
},
{
angle = 80.5;
pos = (128,239);
},
{
angle = 80.5;
pos = (542,239);
}
);
layerId = "4E5694F4-F64E-4331-B998-78BE273203C7";
metricRight = "=|*0.7";
shapes = (
{
closed = 1;
nodes = (
(397,-10,o),
(462,11,o),
(511,54,c),
(484,91,l),
(454,60,o),
(393,33,o),
(332,33,cs),
(209,33,o),
(141,119,o),
(141,267,cs),
(141,413,o),
(202,667,o),
(399,667,cs),
(471,667,o),
(538,626,o),
(561,588,c),
(599,620,l),
(556,682,o),
(475,710,o),
(399,710,cs),
(155,710,o),
(88,422,o),
(88,264,cs),
(88,94,o),
(174,-10,o),
(333,-10,cs)
);
}
);
userData = {
com.hugojourdan.ColorFlow = {
"0" = 0;
"1" = 0;
"10" = 0;
"11" = 0;
"2" = 0;
"3" = 0;
"4" = 0;
"5" = 0;
"6" = 0;
"7" = 0;
"8" = 0;
"9" = 0;
};
};
width = 595;
},
{
anchors = (
{
name = bottom;
pos = (299,0);
}
);
background = {
shapes = (
{
pos = (-10,0);
ref = O;
}
);
};
guides = (
{
angle = 80.5;
pos = (64,245);
},
{
angle = 80.5;
pos = (169,245);
},
{
angle = 80.5;
pos = (579,245);
}
);
layerId = "DF4E5521-40BA-460F-874A-364F4D14AAD8";
shapes = (
{
closed = 1;
nodes = (
(426,-10,o),
(497,16,o),
(548,61,c),
(504,130,l),
(461,96,o),
(401,74,o),
(345,74,cs),
(237,74,o),
(181,157,o),
(181,280,cs),
(181,395,o),
(230,626,o),
(405,626,cs),
(473,626,o),
(536,591,o),
(573,542,c),
(635,607,l),
(582,680,o),
(486,710,o),
(403,710,cs),
(175,710,o),
(78,477,o),
(78,273,cs),
(78,73,o),
(198,-10,o),
(345,-10,cs)
);
}
);
userData = {
com.hugojourdan.ColorFlow = {
"0" = 0;
"1" = 0;
"10" = 0;
"11" = 0;
"2" = 0;
"3" = 0;
"4" = 0;
"5" = 0;
"6" = 0;
"7" = 0;
"8" = 0;
"9" = 0;
};
};
width = 624;
},
{
anchors = (
{
name = bottom;
pos = (360,0);
}
);
guides = (
{
angle = 80.5;
pos = (46,251);
},
{
angle = 80.5;
pos = (234,251);
},
{
angle = 80.5;
pos = (618,251);
}
);
layerId = "C6DE9ED7-34B3-46A1-8A00-A72C4A5E93A3";
metricRight = "=|*0.34";
shapes = (
{
closed = 1;
nodes = (
(459,-10,o),
(538,28,o),
(588,71,c),
(528,200,l),
(488,169,o),
(427,138,o),
(372,138,cs),
(308,138,o),
(246,180,o),
(246,294,cs),
(246,384,o),
(285,562,o),
(416,562,cs),
(483,562,o),
(527,515,o),
(562,472,c),
(661,587,l),
(610,668,o),
(510,710,o),
(407,710,cs),
(172,710,o),
(60,499,o),
(60,286,cs),
(60,81,o),
(198,-10,o),
(360,-10,cs)
);
}
);
userData = {
com.hugojourdan.ColorFlow = {
"0" = 0;
"1" = 0;
"10" = 0;
"11" = 0;
"2" = 0;
"3" = 0;
"4" = 0;
"5" = 0;
"6" = 0;
"7" = 0;
"8" = 0;
"9" = 0;
};
};
width = 634;
},
{
anchors = (
{
name = bottom;
pos = (283,0);
}
);
layerId = "D2741A44-CB8E-4434-9CC9-735A9A127F4C";
metricRight = "=|*0.7";
shapes = (
{
closed = 1;
nodes = (
(394,-10,o),
(461,11,o),
(511,54,c),
(477,86,l),
(446,46,o),
(389,22,o),
(332,22,cs),
(207,22,o),
(139,108,o),
(139,260,cs),
(139,409,o),
(201,678,o),
(402,678,cs),
(475,678,o),
(540,640,o),
(561,588,c),
(599,620,l),
(557,682,o),
(479,710,o),
(404,710,cs),
(156,710,o),
(88,423,o),
(88,264,cs),
(88,92,o),
(171,-10,o),
(330,-10,cs)
);
}
);
userData = {
com.hugojourdan.ColorFlow = {
"0" = 0;
"1" = 0;
"10" = 0;
"11" = 0;
"2" = 0;
"3" = 0;
"4" = 0;
"5" = 0;
"6" = 0;
"7" = 0;
"8" = 0;
"9" = 0;
};
};
width = 595;
},
{
anchors = (
{
name = bottom;
pos = (300,0);
}
);
layerId = "0B63B416-D10E-4459-8DAA-360BF3D1BFD2";
shapes = (
{
closed = 1;
nodes = (
(420,-10,o),
(515,33,o),
(554,95,c),
(477,133,l),
(447,78,o),
(387,42,o),
(325,42,cs),
(231,42,o),
(178,119,o),
(178,254,cs),
(178,475,o),
(282,658,o),
(413,658,cs),
(474,658,o),
(532,611,o),
(544,547,c),
(630,571,l),
(611,649,o),
(518,710,o),
(413,710,cs),
(223,710,o),
(78,525,o),
(78,277,cs),
(78,98,o),
(170,-10,o),
(323,-10,cs)
);
}
);
userData = {
com.hugojourdan.ColorFlow = {
"0" = 0;
"1" = 0;
"10" = 0;
"11" = 0;
"2" = 0;
"3" = 0;
"4" = 0;
"5" = 0;
"6" = 0;
"7" = 0;
"8" = 0;
"9" = 0;
};
};
width = 624;
},
{
anchors = (
{
name = bottom;
pos = (307,0);
}
);
layerId = "EE3858F4-A475-4EBA-A8F4-31CE9F38567C";
metricRight = "=|*0.34";
shapes = (
{
closed = 1;
nodes = (
(446,-10,o),
(534,28,o),
(593,99,c),
(480,199,l),
(430,116,o),
(386,80,o),
(340,80,cs),
(278,80,o),
(241,143,o),
(241,243,cs),
(241,353,o),
(285,616,o),
(407,616,cs),
(457,616,o),
(486,570,o),
(500,485,c),
(651,524,l),
(623,655,o),
(517,710,o),
(402,710,cs),
(172,710,o),
(60,486,o),
(60,287,cs),
(60,78,o),
(179,-10,o),
(340,-10,cs)
);
}
);
userData = {
com.hugojourdan.ColorFlow = {
"0" = 0;
"1" = 0;
"10" = 0;
"11" = 0;
"2" = 0;
"3" = 0;
"4" = 0;
"5" = 0;
"6" = 0;
"7" = 0;
"8" = 0;
"9" = 0;
};
};
width = 634;
}
);
metricLeft = "=O";
metricRight = "=|*0.7";
note = C;
unicode = 67;
},
{
glyphname = D;
layers = (
{
layerId = m01;
shapes = (
{
closed = 1;
nodes = (
(266,0,ls),
(469,0,o),
(574,119,o),
(574,350,cs),
(574,581,o),
(470,700,o),
(270,700,cs),
(96,700,l),
(96,0,l)
);
},
{
closed = 1;
nodes = (
(144,687,l),
(125,668,l),
(261,668,ls),
(434,668,o),
(521,562,o),
(521,350,cs),
(521,139,o),
(436,32,o),
(269,32,cs),
(124,32,l),
(144,12,l)
);
}
);
userData = {
com.hugojourdan.ColorFlow = {
"0" = 0;
"1" = 0;
"10" = 0;
"11" = 0;
"2" = 0;
"3" = 0;
"4" = 0;
"5" = 0;
"6" = 0;
"7" = 0;
"8" = 0;
"9" = 0;
};
};
width = 649;
},
{
layerId = "FF73925E-1E34-445B-881D-5A7CAAA8E8BE";
shapes = (
{
closed = 1;
nodes = (
(274,0,ls),
(510,0,o),
(627,116,o),
(627,350,cs),
(627,584,o),
(510,700,o),
(274,700,cs),
(58,700,l),
(58,0,l)
);
},
{
closed = 1;
nodes = (
(236,651,l),
(195,614,l),
(289,614,ls),
(389,614,o),
(439,527,o),
(439,350,cs),
(439,174,o),
(389,86,o),
(289,86,cs),
(195,86,l),
(236,48,l)
);
}
);
userData = {
com.hugojourdan.ColorFlow = {
"0" = 0;
"1" = 0;
"10" = 0;
"11" = 0;
"2" = 0;
"3" = 0;
"4" = 0;
"5" = 0;
"6" = 0;
"7" = 0;
"8" = 0;
"9" = 0;
};
};
width = 673;
},
{
layerId = "BF6BA5B2-0556-42F4-A103-614BEBF16A1A";
shapes = (
{
closed = 1;
nodes = (
(268,0,ls),
(466,0,o),
(601,141,o),
(601,350,cs),
(601,559,o),
(466,700,o),
(268,700,cs),
(86,700,l),
(86,0,l)
);
},
{
closed = 1;
nodes = (
(184,669,l),
(167,652,l),
(266,652,ls),
(405,652,o),
(496,533,o),
(496,350,cs),
(496,167,o),
(405,48,o),
(266,48,cs),
(166,48,l),
(184,30,l)
);
}
);
userData = {
com.hugojourdan.ColorFlow = {
"0" = 0;
"1" = 0;
"10" = 0;
"11" = 0;
"2" = 0;
"3" = 0;
"4" = 0;
"5" = 0;
"6" = 0;
"7" = 0;
"8" = 0;
"9" = 0;
};
};
width = 665;
},
{
layerId = m004;
shapes = (
{
closed = 1;
nodes = (
(299,0,ls),
(478,0,o),
(574,129,o),
(574,350,cs),
(574,571,o),
(478,700,o),
(303,700,cs),
(96,700,l),
(96,0,l)
);
},
{
closed = 1;
nodes = (
(144,676,l),
(126,658,l),
(294,658,ls),
(444,658,o),
(521,544,o),
(521,350,cs),
(521,156,o),
(444,42,o),
(302,42,cs),
(126,42,l),
(144,24,l)
);
}
);
userData = {
com.hugojourdan.ColorFlow = {
"0" = 0;
"1" = 0;
"10" = 0;
"11" = 0;
"2" = 0;
"3" = 0;
"4" = 0;
"5" = 0;
"6" = 0;
"7" = 0;
"8" = 0;
"9" = 0;
};
};
width = 649;
},
{
layerId = m005;
shapes = (
{
closed = 1;
nodes = (
(294,0,ls),
(497,0,o),
(601,124,o),
(601,350,cs),
(601,576,o),
(497,700,o),
(297,700,cs),
(86,700,l),
(86,0,l)
);
},
{
closed = 1;
nodes = (
(184,652,l),
(154,622,l),
(297,622,ls),
(429,622,o),
(496,524,o),
(496,350,cs),
(496,176,o),
(429,78,o),
(302,78,cs),
(154,78,l),
(184,48,l)
);
}
);
userData = {
com.hugojourdan.ColorFlow = {
"0" = 0;
"1" = 0;
"10" = 0;
"11" = 0;
"2" = 0;
"3" = 0;
"4" = 0;
"5" = 0;
"6" = 0;
"7" = 0;
"8" = 0;
"9" = 0;
};
};
width = 665;
},
{
layerId = m006;
shapes = (
{
closed = 1;
nodes = (
(274,0,ls),
(510,0,o),
(627,116,o),
(627,350,cs),
(627,584,o),
(510,700,o),
(274,700,cs),
(58,700,l),
(58,0,l)
);
},
{
closed = 1;
nodes = (
(236,610,l),
(190,564,l),
(289,564,ls),
(389,564,o),
(439,493,o),
(439,350,cs),
(439,207,o),
(389,136,o),
(289,136,cs),
(188,136,l),
(236,90,l)
);
}
);
userData = {
com.hugojourdan.ColorFlow = {
"0" = 0;
"1" = 0;
"10" = 0;
"11" = 0;
"2" = 0;
"3" = 0;
"4" = 0;
"5" = 0;
"6" = 0;
"7" = 0;
"8" = 0;
"9" = 0;
};
};
width = 673;
},
{
background = {
shapes = (
{
closed = 0;
nodes = (
(597,429,ls),
(597,592,o),
(525,687,o),
(380,700,c)
);
},
{
closed = 0;
nodes = (
(365,658,l),
(485,648,o),
(545,568,o),
(545,431,cs)
);
}
);
};
guides = (
{
angle = 80.5;
pos = (96,239);
},
{
angle = 80.5;
pos = (574,239);
},
{
angle = 80.5;
pos = (521,239);
},
{
angle = 80.5;
pos = (144,239);
},
{
angle = 80.5;
pos = (125,239);
}
);
layerId = "4E5694F4-F64E-4331-B998-78BE273203C7";
shapes = (
{
closed = 1;
nodes = (
(280,0,ls),
(525,0,o),
(597,264,o),
(597,429,cs),
(597,592,o),
(526,700,o),
(320,700,cs),
(173,700,l),
(56,0,l)
);
},
{
closed = 1;
nodes = (
(217,676,l),
(195,658,l),
(317,658,ls),
(486,658,o),
(545,568,o),
(545,431,cs),
(545,294,o),
(487,42,o),
(279,42,cs),
(92,42,l),
(108,24,l)
);
}
);
userData = {
com.hugojourdan.ColorFlow = {
"0" = 0;
"1" = 0;
"10" = 0;
"11" = 0;
"2" = 0;
"3" = 0;
"4" = 0;
"5" = 0;
"6" = 0;
"7" = 0;
"8" = 0;
"9" = 0;
};
};
width = 649;
},
{
guides = (
{
angle = 80.5069;
pos = (171,350);
},
{
angle = 80.5;
pos = (86,245);
},
{
angle = 80.5;
pos = (601,245);
},
{
angle = 80.5;
pos = (496,245);
}
);
layerId = "DF4E5521-40BA-460F-874A-364F4D14AAD8";
shapes = (
{
closed = 1;
nodes = (
(291,0,ls),
(533,0,o),
(622,232,o),
(622,417,cs),
(622,591,o),
(543,700,o),
(337,700,cs),
(162,700,l),
(45,0,l)
);
},
{
closed = 1;
nodes = (
(252,652,l),
(217,622,l),
(340,622,ls),
(466,622,o),
(519,544,o),
(519,424,cs),
(519,308,o),
(473,78,o),
(293,78,cs),
(126,78,l),
(151,48,l)
);
}
);
userData = {
com.hugojourdan.ColorFlow = {
"0" = 0;
"1" = 0;
"10" = 0;
"11" = 0;
"2" = 0;
"3" = 0;
"4" = 0;
"5" = 0;
"6" = 0;
"7" = 0;
"8" = 0;
"9" = 0;
};
};
width = 665;
},
{
background = {
shapes = (
{
closed = 0;
nodes = (
(340,563,l),
(420,556,o),
(460,510,o),
(460,413,cs)
);
},
{
closed = 0;
nodes = (
(645,403,ls),
(645,590,o),
(556,680,o),
(347,700,c)
);
}
);
};
guides = (
{
angle = 80.5;
pos = (58,251);
},
{
angle = 80.5;
pos = (627,251);
},
{
angle = 80.5;
pos = (236,251);
},
{
angle = 80.5;
pos = (439,251);
}
);
layerId = "C6DE9ED7-34B3-46A1-8A00-A72C4A5E93A3";
shapes = (
{
closed = 1;
nodes = (
(276,0,ls),
(500,0,o),
(644,156,o),
(644,398,cs),
(644,609,o),
(538,700,o),
(293,700,cs),
(133,700,l),
(16,0,l)
);
},
{
closed = 1;
nodes = (
(296,610,l),
(243,563,l),
(326,563,ls),
(418,563,o),
(459,514,o),
(459,405,cs),
(459,253,o),
(379,137,o),
(275,137,cs),
(172,137,l),
(209,90,l)
);
}
);
userData = {
com.hugojourdan.ColorFlow = {
"0" = 0;
"1" = 0;
"10" = 0;
"11" = 0;
"2" = 0;
"3" = 0;
"4" = 0;
"5" = 0;
"6" = 0;
"7" = 0;
"8" = 0;
"9" = 0;
};
};
width = 673;
},
{
background = {
shapes = (
{
closed = 0;
nodes = (
(332,668,l),
(474,656,o),
(545,577,o),
(545,429,cs),
(545,399,o),
(542,366,o),
(536,330,cs),
(503,131,o),
(411,32,o),
(264,32,cs)
);
},
{
closed = 0;
nodes = (
(265,0,ls),
(443,0,o),
(553,110,o),
(588,325,cs),
(594,362,o),
(597,396,o),
(597,428,cs),
(597,594,o),
(512,687,o),
(345,700,cs)
);
}
);
};
layerId = "D2741A44-CB8E-4434-9CC9-735A9A127F4C";
shapes = (
{
closed = 1;
nodes = (
(265,0,ls),
(462,0,o),
(596,174,o),
(596,428,cs),
(596,607,o),
(499,700,o),
(313,700,cs),
(173,700,l),
(56,0,l)
);
},
{
closed = 1;
nodes = (
(219,687,l),
(197,668,l),
(300,668,ls),
(462,668,o),
(544,588,o),
(544,429,cs),
(544,196,o),
(428,32,o),
(264,32,cs),
(89,32,l),
(106,12,l)
);
}
);
userData = {
com.hugojourdan.ColorFlow = {
"0" = 0;
"1" = 0;
"10" = 0;
"11" = 0;
"2" = 0;
"3" = 0;
"4" = 0;
"5" = 0;
"6" = 0;
"7" = 0;
"8" = 0;
"9" = 0;
};
};
width = 649;
},
{
background = {
shapes = (
{
closed = 0;
nodes = (
(259,0,l),
(440,0,o),
(582,126,o),
(614,323,cs),
(618,349,o),
(620,374,o),
(620,398,cs),
(620,567,o),
(515,685,o),
(343,699,cs)
);
},
{
closed = 0;
nodes = (
(333,651,l),
(449,642,o),
(517,551,o),
(517,413,cs),
(517,387,o),
(515,360,o),
(510,331,cs),
(481,157,o),
(381,48,o),
(252,48,cs)
);
}
);
};
guides = (
{
angle = 80.5;
pos = (86,245);
},
{
angle = 80.5;
pos = (184,245);
},
{
angle = 80.5;
pos = (601,245);
},
{
angle = 80.5;
pos = (496,245);
}
);
layerId = "0B63B416-D10E-4459-8DAA-360BF3D1BFD2";
shapes = (
{
closed = 1;
nodes = (
(259,0,ls),
(467,0,o),
(620,169,o),
(620,398,cs),
(620,584,o),
(499,700,o),
(305,700,cs),
(162,700,l),
(45,0,l)
);
},
{
closed = 1;
nodes = (
(255,669,l),
(235,652,l),
(313,652,ls),
(440,652,o),
(517,562,o),
(517,413,cs),
(517,208,o),
(401,48,o),
(252,48,cs),
(133,48,l),
(148,30,l)
);
}
);
userData = {
com.hugojourdan.ColorFlow = {
"0" = 0;
"1" = 0;
"10" = 0;
"11" = 0;
"2" = 0;
"3" = 0;
"4" = 0;
"5" = 0;
"6" = 0;
"7" = 0;
"8" = 0;
"9" = 0;
};
};
width = 665;
},
{
background = {
shapes = (
{
closed = 0;
nodes = (
(286,1,l),
(486,1,o),
(604,107,o),
(639,322,cs),
(645,356,o),
(647,387,o),
(647,416,cs),
(647,590,o),
(547,684,o),
(347,700,cs)
);
},
{
closed = 0;
nodes = (
(348,610,l),
(424,603,o),
(463,547,o),
(463,442,cs),
(463,411,o),
(460,377,o),
(453,338,cs),
(425,173,o),
(366,89,o),
(275,89,cs)
);
}
);
};
guides = (
{
angle = 80.5;
pos = (58,251);
},
{
angle = 80.5;
pos = (627,251);
},
{
angle = 80.5;
pos = (439,251);
}
);
layerId = "EE3858F4-A475-4EBA-A8F4-31CE9F38567C";
shapes = (
{
closed = 1;
nodes = (
(286,0,ls),
(568,0,o),
(644,225,o),
(644,401,cs),
(644,593,o),
(547,700,o),
(302,700,cs),
(133,700,l),
(16,0,l)
);
},
{
closed = 1;
nodes = (
(303,651,l),
(255,614,l),
(337,614,ls),
(423,614,o),
(462,550,o),
(462,437,cs),
(462,332,o),
(427,86,o),
(275,86,cs),
(168,86,l),
(202,48,l)
);
}
);
userData = {
com.hugojourdan.ColorFlow = {
"0" = 0;
"1" = 0;
"10" = 0;
"11" = 0;
"2" = 0;
"3" = 0;
"4" = 0;
"5" = 0;
"6" = 0;
"7" = 0;
"8" = 0;
"9" = 0;
};
};
width = 673;
}
);
metricLeft = "=H";
metricRight = "=O";
note = D;
unicode = 68;
},
{
glyphname = E;
layers = (
{
anchors = (
{
name = ogonek;
pos = (477,0);
},
{
name = top;
pos = (280,700);
}
);
background = {
anchors = (
{
name = top;
pos = (280,700);
}
);
shapes = (
{
closed = 1;
nodes = (
(477,0,l),
(477,32,l),
(124,32,l),
(144,12,l),
(144,685,l),
(124,668,l),
(467,668,l),
(467,700,l),
(96,700,l),
(96,0,l)
);
},
{
closed = 1;
nodes = (
(444,348,l),
(444,378,l),
(120,378,l),
(120,348,l)
);
}
);
};
layerId = m01;
shapes = (
{
closed = 1;
nodes = (
(477,0,l),
(477,32,l),
(124,32,l),
(144,12,l),
(144,687,l),
(124,668,l),
(467,668,l),
(467,700,l),
(96,700,l),
(96,0,l)
);
},
{
closed = 1;
nodes = (
(444,347,l),
(444,377,l),
(120,377,l),
(120,347,l)
);
}
);
userData = {
com.hugojourdan.ColorFlow = {
"0" = 0;
"1" = 0;
"10" = 0;
"11" = 0;
"2" = 0;
"3" = 0;
"4" = 0;
"5" = 0;
"6" = 0;
"7" = 0;
"8" = 0;
"9" = 0;
};
};
width = 521;
},
{
anchors = (
{
name = ogonek;
pos = (509,0);
},
{
name = top;
pos = (274,700);
}
);
layerId = "FF73925E-1E34-445B-881D-5A7CAAA8E8BE";
shapes = (
{
closed = 1;
nodes = (
(509,0,l),
(509,87,l),
(194,87,l),
(236,48,l),
(236,651,l),
(195,614,l),
(499,614,l),
(499,700,l),
(58,700,l),
(58,0,l)
);
},
{
closed = 1;
nodes = (
(476,323,l),
(476,403,l),
(147,403,l),
(147,323,l)
);
}
);
userData = {
com.hugojourdan.ColorFlow = {
"0" = 0;
"1" = 0;
"10" = 0;
"11" = 0;
"2" = 0;
"3" = 0;
"4" = 0;
"5" = 0;
"6" = 0;
"7" = 0;
"8" = 0;
"9" = 0;
};
};
width = 536;
},
{
anchors = (
{
name = ogonek;
pos = (494,0);
},
{
name = top;
pos = (284,700);
}
);
layerId = "BF6BA5B2-0556-42F4-A103-614BEBF16A1A";
shapes = (
{
closed = 1;
nodes = (
(494,0,l),
(494,52,l),
(162,52,l),
(184,30,l),
(184,669,l),
(163,648,l),
(482,648,l),
(482,700,l),
(86,700,l),
(86,0,l)
);
},
{
closed = 1;
nodes = (
(461,341,l),
(461,389,l),
(134,389,l),
(134,341,l)
);
}
);
userData = {
com.hugojourdan.ColorFlow = {
"0" = 0;
"1" = 0;
"10" = 0;
"11" = 0;
"2" = 0;
"3" = 0;
"4" = 0;
"5" = 0;
"6" = 0;
"7" = 0;
"8" = 0;
"9" = 0;
};
};
width = 534;
},
{
anchors = (
{
name = ogonek;
pos = (477,0);
},
{
name = top;
pos = (280,700);
}
);
layerId = m004;
shapes = (
{
closed = 1;
nodes = (
(477,0,l),
(477,42,l),
(126,42,l),
(144,24,l),
(144,676,l),
(126,658,l),
(467,658,l),
(467,700,l),
(96,700,l),
(96,0,l)
);
},
{
closed = 1;
nodes = (
(444,342,l),
(444,384,l),
(120,384,l),
(120,342,l)
);
}
);
userData = {
com.hugojourdan.ColorFlow = {
"0" = 0;
"1" = 0;
"10" = 0;
"11" = 0;
"2" = 0;
"3" = 0;
"4" = 0;
"5" = 0;
"6" = 0;
"7" = 0;
"8" = 0;
"9" = 0;
};
};
width = 521;
},
{
anchors = (
{
name = ogonek;
pos = (494,0);
},
{
name = top;
pos = (284,700);
}
);
layerId = m005;
shapes = (
{
closed = 1;
nodes = (
(494,0,l),
(494,78,l),
(154,78,l),
(184,48,l),
(184,652,l),
(154,622,l),
(482,622,l),
(482,700,l),
(86,700,l),
(86,0,l)
);
},
{
closed = 1;
nodes = (
(459,326,l),
(459,400,l),
(134,400,l),
(134,326,l)
);
}
);
userData = {
com.hugojourdan.ColorFlow = {
"0" = 0;
"1" = 0;
"10" = 0;
"11" = 0;
"2" = 0;
"3" = 0;
"4" = 0;
"5" = 0;
"6" = 0;
"7" = 0;
"8" = 0;
"9" = 0;
};
};
width = 534;
},
{
anchors = (
{
name = ogonek;
pos = (509,0);
},
{
name = top;
pos = (274,700);
}
);
background = {
anchors = (
{
name = top;
pos = (274,700);
}
);
};
layerId = m006;
shapes = (
{
closed = 1;
nodes = (
(509,0,l),
(509,137,l),
(189,137,l),
(236,90,l),
(236,610,l),
(189,563,l),
(499,563,l),
(499,700,l),
(58,700,l),
(58,0,l)
);
},
{
closed = 1;
nodes = (
(476,298,l),
(476,428,l),
(147,428,l),
(147,298,l)
);
}
);
userData = {
com.hugojourdan.ColorFlow = {
"0" = 0;
"1" = 0;
"10" = 0;
"11" = 0;
"2" = 0;
"3" = 0;
"4" = 0;
"5" = 0;
"6" = 0;
"7" = 0;
"8" = 0;
"9" = 0;
};
};
width = 536;
},
{
anchors = (
{
name = ogonek;
pos = (437,0);
},
{
name = top;
pos = (357,700);
}
);
background = {
shapes = (
{
pos = (-6,0);
ref = I;
}
);
};
layerId = "4E5694F4-F64E-4331-B998-78BE273203C7";
shapes = (
{
closed = 1;
nodes = (
(437,0,l),
(444,42,l),
(97,42,l),
(109,30,l),
(217,676,l),
(199,658,l),
(534,658,l),
(541,700,l),
(173,700,l),
(56,0,l)
);
},
{
closed = 1;
nodes = (
(461,342,l),
(468,384,l),
(147,384,l),
(141,342,l)
);
}
);
userData = {
com.hugojourdan.ColorFlow = {
"0" = 0;
"1" = 0;
"10" = 0;
"11" = 0;
"2" = 0;
"3" = 0;
"4" = 0;
"5" = 0;
"6" = 0;
"7" = 0;
"8" = 0;
"9" = 0;
};
};
width = 521;
},
{
anchors = (
{
name = ogonek;
pos = (453,0);
},
{
name = top;
pos = (360,700);
}
);
background = {
shapes = (
{
pos = (-2,0);
ref = I;
}
);
};
guides = (
{
angle = 80.5069;
pos = (152,350);
}
);
layerId = "DF4E5521-40BA-460F-874A-364F4D14AAD8";
shapes = (
{
closed = 1;
nodes = (
(453,0,l),
(466,78,l),
(126,78,l),
(151,48,l),
(252,652,l),
(217,622,l),
(544,622,l),
(557,700,l),
(162,700,l),
(45,0,l)
);
},
{
closed = 1;
nodes = (
(471,326,l),
(485,400,l),
(160,400,l),
(148,326,l)
);
}
);
userData = {
com.hugojourdan.ColorFlow = {
"0" = 0;
"1" = 0;
"10" = 0;
"11" = 0;
"2" = 0;
"3" = 0;
"4" = 0;
"5" = 0;
"6" = 0;
"7" = 0;
"8" = 0;
"9" = 0;
};
};
width = 534;
},
{
anchors = (
{
name = ogonek;
pos = (467,0);
},
{
name = top;
pos = (349,700);
}
);
background = {
anchors = (
{
name = top;
pos = (262,700);
}
);
};
guides = (
{
angle = 80.5;
pos = (58,251);
},
{
angle = 80.5;
pos = (236,251);
},
{
angle = 80.5;
pos = (509,251);
},
{
angle = 80.5;
pos = (476,251);
}
);
layerId = "C6DE9ED7-34B3-46A1-8A00-A72C4A5E93A3";
shapes = (
{
closed = 1;
nodes = (
(467,0,l),
(490,137,l),
(172,137,l),
(209,90,l),
(296,610,l),
(243,563,l),
(551,563,l),
(574,700,l),
(133,700,l),
(16,0,l)
);
},
{
closed = 1;
nodes = (
(484,298,l),
(506,428,l),
(177,428,l),
(155,298,l)
);
}
);
userData = {
com.hugojourdan.ColorFlow = {
"0" = 0;
"1" = 0;
"10" = 0;
"11" = 0;
"2" = 0;
"3" = 0;
"4" = 0;
"5" = 0;
"6" = 0;
"7" = 0;
"8" = 0;
"9" = 0;
};
};
width = 536;
},
{
anchors = (
{
name = ogonek;
pos = (437,0);
},
{
name = top;
pos = (357,700);
}
);
guides = (
{
angle = 80.5;
pos = (96,239);
},
{
angle = 80.5;
pos = (144,239);
},
{
angle = 80.5;
pos = (124,239);
}
);
layerId = "D2741A44-CB8E-4434-9CC9-735A9A127F4C";
shapes = (
{
closed = 1;
nodes = (
(437,0,l),
(442,32,l),
(89,32,l),
(106,12,l),
(219,687,l),
(197,668,l),
(539,668,l),
(544,700,l),
(173,700,l),
(56,0,l)
);
},
{
closed = 1;
nodes = (
(462,347,l),
(467,377,l),
(143,377,l),
(138,347,l)
);
}
);
userData = {
com.hugojourdan.ColorFlow = {
"0" = 0;
"1" = 0;
"10" = 0;
"11" = 0;
"2" = 0;
"3" = 0;
"4" = 0;
"5" = 0;
"6" = 0;
"7" = 0;
"8" = 0;
"9" = 0;
};
};
width = 521;
},
{
anchors = (
{
name = ogonek;
pos = (453,0);
},
{
name = top;
pos = (360,700);
}
);
guides = (
{
angle = 80.5;
pos = (86,245);
},
{
angle = 80.5;
pos = (184,245);
}
);
layerId = "0B63B416-D10E-4459-8DAA-360BF3D1BFD2";
shapes = (
{
closed = 1;
nodes = (
(453,0,l),
(462,52,l),
(130,52,l),
(148,30,l),
(255,669,l),
(230,648,l),
(549,648,l),
(558,700,l),
(162,700,l),
(45,0,l)
);
},
{
closed = 1;
nodes = (
(477,341,l),
(485,389,l),
(158,389,l),
(150,341,l)
);
}
);
userData = {
com.hugojourdan.ColorFlow = {
"0" = 0;
"1" = 0;
"10" = 0;
"11" = 0;
"2" = 0;
"3" = 0;
"4" = 0;
"5" = 0;
"6" = 0;
"7" = 0;
"8" = 0;
"9" = 0;
};
};
width = 534;
},
{
anchors = (
{
name = ogonek;
pos = (467,0);
},
{
name = top;
pos = (349,700);
}
);
guides = (
{
angle = 80.5;
pos = (58,251);
},
{
angle = 80.5;
pos = (236,251);
}
);
layerId = "EE3858F4-A475-4EBA-A8F4-31CE9F38567C";
shapes = (
{
closed = 1;
nodes = (
(467,0,l),
(481,87,l),
(167,87,l),
(202,48,l),
(303,651,l),
(255,614,l),
(560,614,l),
(574,700,l),
(133,700,l),
(16,0,l)
);
},
{
closed = 1;
nodes = (
(488,323,l),
(501,403,l),
(172,403,l),
(159,323,l)
);
}
);
userData = {
com.hugojourdan.ColorFlow = {
"0" = 0;
"1" = 0;
"10" = 0;
"11" = 0;
"2" = 0;
"3" = 0;
"4" = 0;
"5" = 0;
"6" = 0;
"7" = 0;
"8" = 0;
"9" = 0;
};
};
width = 536;
}
);
metricLeft = "=H";
metricRight = "=H*0.46";
note = E;
unicode = 69;
},
{
glyphname = F;
layers = (
{
layerId = m01;
shapes = (
{
closed = 1;
nodes = (
(144,0,l),
(144,687,l),
(125,668,l),
(477,668,l),
(477,700,l),
(96,700,l),
(96,0,l)
);
},
{
closed = 1;
nodes = (
(440,343,l),
(440,373,l),
(120,373,l),
(120,343,l)
);
}
);
userData = {
com.hugojourdan.ColorFlow = {
"0" = 0;
"1" = 0;
"10" = 0;
"11" = 0;
"2" = 0;
"3" = 0;
"4" = 0;
"5" = 0;
"6" = 0;
"7" = 0;
"8" = 0;
"9" = 0;
};
};
width = 517;
},
{
layerId = "FF73925E-1E34-445B-881D-5A7CAAA8E8BE";
shapes = (
{
closed = 1;
nodes = (
(236,0,l),
(236,651,l),
(195,614,l),
(505,614,l),
(505,700,l),
(58,700,l),
(58,0,l)
);
},
{
closed = 1;
nodes = (
(461,325,l),
(461,405,l),
(147,405,l),
(147,325,l)
);
}
);
userData = {
com.hugojourdan.ColorFlow = {
"0" = 0;
"1" = 0;
"10" = 0;
"11" = 0;
"2" = 0;
"3" = 0;
"4" = 0;
"5" = 0;
"6" = 0;
"7" = 0;
"8" = 0;
"9" = 0;
};
};
width = 529;
},
{
layerId = "BF6BA5B2-0556-42F4-A103-614BEBF16A1A";
shapes = (
{
closed = 1;
nodes = (
(184,0,l),
(184,669,l),
(163,648,l),
(494,648,l),
(494,700,l),
(86,700,l),
(86,0,l)
);
},
{
closed = 1;
nodes = (
(455,337,l),
(455,385,l),
(134,385,l),
(134,337,l)
);
}
);
userData = {
com.hugojourdan.ColorFlow = {
"0" = 0;
"1" = 0;
"10" = 0;
"11" = 0;
"2" = 0;
"3" = 0;
"4" = 0;
"5" = 0;
"6" = 0;
"7" = 0;
"8" = 0;
"9" = 0;
};
};
width = 530;
},
{
layerId = m004;
shapes = (
{
closed = 1;
nodes = (
(144,0,l),
(144,681,l),
(120,657,l),
(477,657,l),
(477,700,l),
(96,700,l),
(96,0,l)
);
},
{
closed = 1;
nodes = (
(440,337,l),
(440,379,l),
(120,379,l),
(120,337,l)
);
}
);
userData = {
com.hugojourdan.ColorFlow = {
"0" = 0;
"1" = 0;
"10" = 0;
"11" = 0;
"2" = 0;
"3" = 0;
"4" = 0;
"5" = 0;
"6" = 0;
"7" = 0;
"8" = 0;
"9" = 0;
};
};
width = 517;
},
{
layerId = m005;
shapes = (
{
closed = 1;
nodes = (
(184,0,l),
(184,652,l),
(154,622,l),
(494,622,l),
(494,700,l),
(86,700,l),
(86,0,l)
);
},
{
closed = 1;
nodes = (
(454,321,l),
(454,398,l),
(134,398,l),
(134,321,l)
);
}
);
userData = {
com.hugojourdan.ColorFlow = {
"0" = 0;
"1" = 0;
"10" = 0;
"11" = 0;
"2" = 0;
"3" = 0;
"4" = 0;
"5" = 0;
"6" = 0;
"7" = 0;
"8" = 0;
"9" = 0;
};
};
width = 530;
},
{
layerId = m006;
shapes = (
{
closed = 1;
nodes = (
(236,0,l),
(236,610,l),
(189,563,l),
(505,563,l),
(505,700,l),
(58,700,l),
(58,0,l)
);
},
{
closed = 1;
nodes = (
(461,297,l),
(461,430,l),
(147,430,l),
(147,297,l)
);
}
);
userData = {
com.hugojourdan.ColorFlow = {
"0" = 0;
"1" = 0;
"10" = 0;
"11" = 0;
"2" = 0;
"3" = 0;
"4" = 0;
"5" = 0;
"6" = 0;
"7" = 0;
"8" = 0;
"9" = 0;
};
};
width = 529;
},
{
layerId = "4E5694F4-F64E-4331-B998-78BE273203C7";
shapes = (
{
closed = 1;
nodes = (
(104,0,l),
(217,676,l),
(199,658,l),
(547,658,l),
(554,700,l),
(173,700,l),
(56,0,l)
);
},
{
closed = 1;
nodes = (
(460,338,l),
(467,380,l),
(145,380,l),
(139,338,l)
);
}
);
userData = {
com.hugojourdan.ColorFlow = {
"0" = 0;
"1" = 0;
"10" = 0;
"11" = 0;
"2" = 0;
"3" = 0;
"4" = 0;
"5" = 0;
"6" = 0;
"7" = 0;
"8" = 0;
"9" = 0;
};
};
width = 517;
},
{
guides = (
{
angle = 80.5069;
pos = (512,350);
},
{
angle = 80.5069;
pos = (472,350);
}
);
layerId = "DF4E5521-40BA-460F-874A-364F4D14AAD8";
shapes = (
{
closed = 1;
nodes = (
(143,0,l),
(252,652,l),
(217,622,l),
(557,622,l),
(570,700,l),
(162,700,l),
(45,0,l)
);
},
{
closed = 1;
nodes = (
(467,321,l),
(480,398,l),
(162,398,l),
(149,321,l)
);
}
);
userData = {
com.hugojourdan.ColorFlow = {
"0" = 0;
"1" = 0;
"10" = 0;
"11" = 0;
"2" = 0;
"3" = 0;
"4" = 0;
"5" = 0;
"6" = 0;
"7" = 0;
"8" = 0;
"9" = 0;
};
};
width = 530;
},
{
guides = (
{
angle = 80.5;
pos = (58,251);
},
{
angle = 80.5;
pos = (236,251);
},
{
angle = 80.5;
pos = (509,251);
},
{
angle = 80.5;
pos = (476,251);
}
);
layerId = "C6DE9ED7-34B3-46A1-8A00-A72C4A5E93A3";
shapes = (
{
closed = 1;
nodes = (
(194,0,l),
(296,610,l),
(243,563,l),
(557,563,l),
(580,700,l),
(133,700,l),
(16,0,l)
);
},
{
closed = 1;
nodes = (
(480,297,l),
(502,430,l),
(177,430,l),
(155,297,l)
);
}
);
userData = {
com.hugojourdan.ColorFlow = {
"0" = 0;
"1" = 0;
"10" = 0;
"11" = 0;
"2" = 0;
"3" = 0;
"4" = 0;
"5" = 0;
"6" = 0;
"7" = 0;
"8" = 0;
"9" = 0;
};
};
width = 529;
},
{
layerId = "D2741A44-CB8E-4434-9CC9-735A9A127F4C";
shapes = (
{
closed = 1;
nodes = (
(104,0,l),
(219,687,l),
(197,668,l),
(549,668,l),
(554,700,l),
(173,700,l),
(56,0,l)
);
},
{
closed = 1;
nodes = (
(457,343,l),
(462,373,l),
(142,373,l),
(137,343,l)
);
}
);
userData = {
com.hugojourdan.ColorFlow = {
"0" = 0;
"1" = 0;
"10" = 0;
"11" = 0;
"2" = 0;
"3" = 0;
"4" = 0;
"5" = 0;
"6" = 0;
"7" = 0;
"8" = 0;
"9" = 0;
};
};
width = 517;
},
{
layerId = "0B63B416-D10E-4459-8DAA-360BF3D1BFD2";
shapes = (
{
closed = 1;
nodes = (
(143,0,l),
(255,669,l),
(230,648,l),
(561,648,l),
(570,700,l),
(162,700,l),
(45,0,l)
);
},
{
closed = 1;
nodes = (
(470,337,l),
(478,385,l),
(157,385,l),
(149,337,l)
);
}
);
userData = {
com.hugojourdan.ColorFlow = {
"0" = 0;
"1" = 0;
"10" = 0;
"11" = 0;
"2" = 0;
"3" = 0;
"4" = 0;
"5" = 0;
"6" = 0;
"7" = 0;
"8" = 0;
"9" = 0;
};
};
width = 530;
},
{
layerId = "EE3858F4-A475-4EBA-A8F4-31CE9F38567C";
shapes = (
{
closed = 1;
nodes = (
(194,0,l),
(303,651,l),
(255,614,l),
(566,614,l),
(580,700,l),
(133,700,l),
(16,0,l)
);
},
{
closed = 1;
nodes = (
(473,325,l),
(487,405,l),
(173,405,l),
(159,325,l)
);
}
);
userData = {
com.hugojourdan.ColorFlow = {
"0" = 0;
"1" = 0;
"10" = 0;
"11" = 0;
"2" = 0;
"3" = 0;
"4" = 0;
"5" = 0;
"6" = 0;
"7" = 0;
"8" = 0;
"9" = 0;
};
};
width = 529;
}
);
metricLeft = "=H";
metricRight = "=H*0.42";
note = F;
unicode = 70;
},
{
glyphname = G;
layers = (
{
layerId = m01;
shapes = (
{
closed = 1;
nodes = (
(456,-10,o),
(533,45,o),
(550,138,c),
(533,138,l),
(533,0,l),
(571,0,l),
(571,344,l),
(356,344,l),
(356,312,l),
(552,307,l),
(523,334,l),
(523,187,ls),
(523,84,o),
(460,22,o),
(353,22,cs),
(209,22,o),
(128,141,o),
(128,350,cs),
(128,558,o),
(209,678,o),
(349,678,cs),
(421,678,o),
(486,648,o),
(515,602,c),
(548,637,l),
(501,684,o),
(430,710,o),
(350,710,cs),
(175,710,o),
(75,579,o),
(75,350,cs),
(75,123,o),
(174,-10,o),
(343,-10,cs)
);
}
);
userData = {
com.hugojourdan.ColorFlow = {
"0" = 0;
"1" = 0;
"10" = 0;
"11" = 0;
"2" = 0;
"3" = 0;
"4" = 0;
"5" = 0;
"6" = 0;
"7" = 0;
"8" = 0;
"9" = 0;
};
};
width = 654;
},
{
layerId = "FF73925E-1E34-445B-881D-5A7CAAA8E8BE";
shapes = (
{
closed = 1;
nodes = (
(452,-10,o),
(530,56,o),
(538,160,c),
(532,168,l),
(532,0,l),
(625,0,l),
(625,365,l),
(337,365,l),
(337,303,l),
(503,298,l),
(458,334,l),
(458,196,ls),
(458,120,o),
(428,80,o),
(370,80,cs),
(283,80,o),
(234,179,o),
(234,355,cs),
(234,522,o),
(279,616,o),
(360,616,cs),
(410,616,o),
(451,571,o),
(475,491,c),
(620,542,l),
(581,650,o),
(490,710,o),
(364,710,cs),
(160,710,o),
(46,580,o),
(46,348,cs),
(46,118,o),
(151,-10,o),
(338,-10,cs)
);
}
);
userData = {
com.hugojourdan.ColorFlow = {
"0" = 0;
"1" = 0;
"10" = 0;
"11" = 0;
"2" = 0;
"3" = 0;
"4" = 0;
"5" = 0;
"6" = 0;
"7" = 0;
"8" = 0;
"9" = 0;
};
};
width = 675;
},
{
layerId = "BF6BA5B2-0556-42F4-A103-614BEBF16A1A";
shapes = (
{
closed = 1;
nodes = (
(456,-10,o),
(526,39,o),
(549,131,c),
(545,135,l),
(545,0,l),
(604,0,l),
(604,352,l),
(351,352,l),
(351,307,l),
(556,302,l),
(510,344,l),
(510,208,ls),
(510,105,o),
(455,42,o),
(367,42,cs),
(238,42,o),
(169,149,o),
(169,347,cs),
(169,541,o),
(238,658,o),
(351,658,cs),
(420,658,o),
(482,616,o),
(504,555,c),
(584,591,l),
(551,661,o),
(455,710,o),
(350,710,cs),
(175,710,o),
(64,570,o),
(64,345,cs),
(64,128,o),
(178,-10,o),
(354,-10,cs)
);
}
);
userData = {
com.hugojourdan.ColorFlow = {
"0" = 0;
"1" = 0;
"10" = 0;
"11" = 0;
"2" = 0;
"3" = 0;
"4" = 0;
"5" = 0;
"6" = 0;
"7" = 0;
"8" = 0;
"9" = 0;
};
};
width = 678;
},
{
layerId = m004;
shapes = (
{
closed = 1;
nodes = (
(456,-10,o),
(533,45,o),
(550,138,c),
(533,138,l),
(533,0,l),
(571,0,l),
(571,348,l),
(356,348,l),
(356,306,l),
(551,306,l),
(523,334,l),
(523,192,ls),
(524,92,o),
(460,32,o),
(353,32,cs),
(209,32,o),
(128,147,o),
(128,350,cs),
(128,552,o),
(209,668,o),
(349,668,cs),
(417,668,o),
(484,641,o),
(515,602,c),
(548,637,l),
(501,684,o),
(430,710,o),
(350,710,cs),
(175,710,o),
(75,579,o),
(75,350,cs),
(75,123,o),
(174,-10,o),
(343,-10,cs)
);
}
);
userData = {
com.hugojourdan.ColorFlow = {
"0" = 0;
"1" = 0;
"10" = 0;
"11" = 0;
"2" = 0;
"3" = 0;
"4" = 0;
"5" = 0;
"6" = 0;
"7" = 0;
"8" = 0;
"9" = 0;
};
};
width = 654;
},
{
layerId = m005;
shapes = (
{
closed = 1;
nodes = (
(460,-10,o),
(543,57,o),
(558,166,c),
(535,166,l),
(535,0,l),
(604,0,l),
(604,371,l),
(351,371,l),
(351,299,l),
(554,299,l),
(510,344,l),
(510,228,ls),
(510,131,o),
(450,75,o),
(363,75,cs),
(248,75,o),
(170,171,o),
(170,350,cs),
(170,535,o),
(251,627,o),
(369,627,cs),
(437,627,o),
(502,594,o),
(536,557,c),
(587,625,l),
(540,674,o),
(460,710,o),
(367,710,cs),
(176,710,o),
(64,580,o),
(64,350,cs),
(64,125,o),
(169,-10,o),
(339,-10,cs)
);
}
);
userData = {
com.hugojourdan.ColorFlow = {
"0" = 0;
"1" = 0;
"10" = 0;
"11" = 0;
"2" = 0;
"3" = 0;
"4" = 0;
"5" = 0;
"6" = 0;
"7" = 0;
"8" = 0;
"9" = 0;
};
};
width = 678;
},
{
layerId = m006;
shapes = (
{
closed = 1;
nodes = (
(460,-10,o),
(537,62,o),
(552,194,c),
(506,210,l),
(506,0,l),
(625,0,l),
(625,412,l),
(337,412,l),
(337,292,l),
(503,292,l),
(458,334,l),
(458,284,ls),
(458,194,o),
(420,138,o),
(359,138,cs),
(284,138,o),
(234,222,o),
(234,348,cs),
(234,481,o),
(288,562,o),
(377,562,cs),
(429,562,o),
(485,535,o),
(538,485,c),
(618,608,l),
(559,674,o),
(470,710,o),
(367,710,cs),
(161,710,o),
(46,581,o),
(46,349,cs),
(46,120,o),
(151,-10,o),
(334,-10,cs)
);
}
);
userData = {
com.hugojourdan.ColorFlow = {
"0" = 0;
"1" = 0;
"10" = 0;
"11" = 0;
"2" = 0;
"3" = 0;
"4" = 0;
"5" = 0;
"6" = 0;
"7" = 0;
"8" = 0;
"9" = 0;
};
};
width = 675;
},
{
guides = (
{
angle = 80.5377;
pos = (560,174);
}
);
layerId = "4E5694F4-F64E-4331-B998-78BE273203C7";
shapes = (
{
closed = 1;
nodes = (
(428,-10,o),
(502,38,o),
(532,120,c),
(514,125,l),
(493,0,l),
(531,0,l),
(589,348,l),
(374,348,l),
(367,306,l),
(579,306,l),
(541,350,l),
(513,179,ls),
(498,87,o),
(434,32,o),
(338,32,cs),
(210,32,o),
(140,116,o),
(140,266,cs),
(140,407,o),
(200,668,o),
(405,668,cs),
(481,668,o),
(546,630,o),
(573,584,c),
(611,616,l),
(569,675,o),
(492,710,o),
(406,710,cs),
(161,710,o),
(88,428,o),
(88,263,cs),
(88,90,o),
(175,-10,o),
(330,-10,cs)
);
}
);
userData = {
com.hugojourdan.ColorFlow = {
"0" = 0;
"1" = 0;
"10" = 0;
"11" = 0;
"2" = 0;
"3" = 0;
"4" = 0;
"5" = 0;
"6" = 0;
"7" = 0;
"8" = 0;
"9" = 0;
};
};
width = 654;
},
{
background = {
shapes = (
{
pos = (10,0);
ref = C;
}
);
};
guides = (
{
angle = 80.5;
pos = (65,245);
},
{
angle = 80.5;
pos = (170,245);
},
{
angle = 80.5;
pos = (604,245);
},
{
angle = 80.5;
pos = (511,245);
},
{
angle = 80.5;
pos = (352,245);
}
);
layerId = "DF4E5521-40BA-460F-874A-364F4D14AAD8";
shapes = (
{
closed = 1;
nodes = (
(433,-10,o),
(514,49,o),
(544,148,c),
(519,149,l),
(494,0,l),
(563,0,l),
(625,371,l),
(372,371,l),
(360,299,l),
(562,299,l),
(524,329,l),
(505,215,ls),
(490,126,o),
(431,75,o),
(347,75,cs),
(246,75,o),
(183,147,o),
(183,283,cs),
(183,406,o),
(237,627,o),
(416,627,cs),
(494,627,o),
(556,585,o),
(585,540,c),
(647,604,l),
(596,677,o),
(502,710,o),
(413,710,cs),
(177,710,o),
(78,482,o),
(78,270,cs),
(78,96,o),
(178,-10,o),
(324,-10,cs)
);
}
);
userData = {
com.hugojourdan.ColorFlow = {
"0" = 0;
"1" = 0;
"10" = 0;
"11" = 0;
"2" = 0;
"3" = 0;
"4" = 0;
"5" = 0;
"6" = 0;
"7" = 0;
"8" = 0;
"9" = 0;
};
};
width = 678;
},
{
background = {
shapes = (
{
ref = C;
}
);
};
guides = (
{
angle = 80.5;
pos = (46,251);
},
{
angle = 80.5;
pos = (234,251);
},
{
angle = 80.5;
pos = (625,251);
},
{
angle = 80.5;
pos = (618,251);
},
{
angle = 80.5;
pos = (458,251);
},
{
angle = 80.5;
pos = (506,251);
}
);
layerId = "C6DE9ED7-34B3-46A1-8A00-A72C4A5E93A3";
shapes = (
{
closed = 1;
nodes = (
(420,-10,o),
(506,58,o),
(539,179,c),
(497,197,l),
(464,0,l),
(583,0,l),
(652,412,l),
(365,412,l),
(346,292,l),
(510,292,l),
(470,323,l),
(462,275,ls),
(447,187,o),
(407,138,o),
(351,138,cs),
(293,138,o),
(248,193,o),
(248,302,cs),
(248,445,o),
(327,562,o),
(422,562,cs),
(473,562,o),
(528,529,o),
(574,470,c),
(674,586,l),
(625,662,o),
(526,710,o),
(416,710,cs),
(201,710,o),
(60,529,o),
(60,289,cs),
(60,93,o),
(155,-10,o),
(303,-10,cs)
);
}
);
userData = {
com.hugojourdan.ColorFlow = {
"0" = 0;
"1" = 0;
"10" = 0;
"11" = 0;
"2" = 0;
"3" = 0;
"4" = 0;
"5" = 0;
"6" = 0;
"7" = 0;
"8" = 0;
"9" = 0;
};
};
width = 675;
},
{
guides = (
{
angle = 80.5;
pos = (75,239);
},
{
angle = 80.5;
pos = (128,239);
},
{
angle = 80.5;
pos = (571,239);
},
{
angle = 80.5;
pos = (533,239);
},
{
angle = 80.5;
pos = (523,239);
},
{
angle = 80.5;
pos = (548,239);
},
{
angle = 80.5;
pos = (356,239);
}
);
layerId = "D2741A44-CB8E-4434-9CC9-735A9A127F4C";
shapes = (
{
closed = 1;
nodes = (
(428,-10,o),
(501,38,o),
(531,121,c),
(514,125,l),
(493,0,l),
(531,0,l),
(589,344,l),
(374,344,l),
(368,311,l),
(553,308,l),
(536,317,l),
(512,173,ls),
(496,77,o),
(433,22,o),
(341,22,cs),
(209,22,o),
(140,109,o),
(140,260,cs),
(140,406,o),
(204,678,o),
(405,678,cs),
(485,678,o),
(551,640,o),
(574,589,c),
(612,621,l),
(570,677,o),
(493,710,o),
(403,710,cs),
(161,710,o),
(88,429,o),
(88,264,cs),
(88,90,o),
(175,-10,o),
(331,-10,cs)
);
}
);
userData = {
com.hugojourdan.ColorFlow = {
"0" = 0;
"1" = 0;
"10" = 0;
"11" = 0;
"2" = 0;
"3" = 0;
"4" = 0;
"5" = 0;
"6" = 0;
"7" = 0;
"8" = 0;
"9" = 0;
};
};
width = 654;
},
{
guides = (
{
angle = 80.5;
pos = (64,245);
},
{
angle = 80.5;
pos = (604,245);
},
{
angle = 80.5;
pos = (584,245);
},
{
angle = 80.5;
pos = (169,245);
},
{
angle = 80.5;
pos = (510,245);
},
{
angle = 80.5;
pos = (349,245);
},
{
angle = 80.5;
pos = (545,245);
}
);
layerId = "0B63B416-D10E-4459-8DAA-360BF3D1BFD2";
shapes = (
{
closed = 1;
nodes = (
(428,-10,o),
(492,29,o),
(529,115,c),
(524,119,l),
(504,0,l),
(563,0,l),
(622,352,l),
(367,352,l),
(359,307,l),
(538,302,l),
(524,329,l),
(502,197,ls),
(486,100,o),
(429,42,o),
(346,42,cs),
(243,42,o),
(179,125,o),
(179,261,cs),
(179,392,o),
(240,658,o),
(410,658,cs),
(484,658,o),
(541,607,o),
(553,539,c),
(638,568,l),
(616,649,o),
(527,710,o),
(414,710,cs),
(192,710,o),
(78,481,o),
(78,286,cs),
(78,103,o),
(175,-10,o),
(334,-10,cs)
);
}
);
userData = {
com.hugojourdan.ColorFlow = {
"0" = 0;
"1" = 0;
"10" = 0;
"11" = 0;
"2" = 0;
"3" = 0;
"4" = 0;
"5" = 0;
"6" = 0;
"7" = 0;
"8" = 0;
"9" = 0;
};
};
width = 678;
},
{
layerId = "EE3858F4-A475-4EBA-A8F4-31CE9F38567C";
shapes = (
{
closed = 1;
nodes = (
(425,-10,o),
(497,47,o),
(523,146,c),
(516,155,l),
(490,0,l),
(583,0,l),
(644,365,l),
(356,365,l),
(346,303,l),
(508,298,l),
(471,329,l),
(448,191,ls),
(435,115,o),
(404,80,o),
(352,80,cs),
(282,80,o),
(243,142,o),
(243,249,cs),
(243,358,o),
(284,616,o),
(412,616,cs),
(467,616,o),
(503,568,o),
(513,481,c),
(665,520,l),
(642,649,o),
(537,710,o),
(408,710,cs),
(161,710,o),
(60,483,o),
(60,285,cs),
(60,71,o),
(178,-10,o),
(312,-10,cs)
);
}
);
userData = {
com.hugojourdan.ColorFlow = {
"0" = 0;
"1" = 0;
"10" = 0;
"11" = 0;
"2" = 0;
"3" = 0;
"4" = 0;
"5" = 0;
"6" = 0;
"7" = 0;
"8" = 0;
"9" = 0;
};
};
width = 675;
}
);
metricLeft = "=O";
metricRight = "=H*0.86";
note = G;
unicode = 71;
},
{
glyphname = H;
layers = (
{
layerId = m01;
metricLeft = "=n*1.26";
shapes = (
{
closed = 1;
nodes = (
(579,0,l),
(579,700,l),
(531,700,l),
(531,0,l)
);
},
{
closed = 1;
nodes = (
(144,0,l),
(144,700,l),
(96,700,l),
(96,0,l)
);
},
{
closed = 1;
nodes = (
(539,340,l),
(539,372,l),
(136,372,l),
(136,340,l)
);
}
);
userData = {
com.hugojourdan.ColorFlow = {
"0" = 0;
"1" = 0;
"10" = 0;
"11" = 0;
"2" = 0;
"3" = 0;
"4" = 0;
"5" = 0;
"6" = 0;
"7" = 0;
"8" = 0;
"9" = 0;
};
};
width = 675;
},
{
layerId = "FF73925E-1E34-445B-881D-5A7CAAA8E8BE";
metricLeft = "=n*1.52";
shapes = (
{
closed = 1;
nodes = (
(632,0,l),
(632,700,l),
(454,700,l),
(454,0,l)
);
},
{
closed = 1;
nodes = (
(236,0,l),
(236,700,l),
(58,700,l),
(58,0,l)
);
},
{
closed = 1;
nodes = (
(470,310,l),
(470,400,l),
(220,400,l),
(220,310,l)
);
}
);
userData = {
com.hugojourdan.ColorFlow = {
"0" = 0;
"1" = 0;
"10" = 0;
"11" = 0;
"2" = 0;
"3" = 0;
"4" = 0;
"5" = 0;
"6" = 0;
"7" = 0;
"8" = 0;
"9" = 0;
};
};
width = 690;
},
{
layerId = "BF6BA5B2-0556-42F4-A103-614BEBF16A1A";
metricLeft = "=n*1.3";
shapes = (
{
closed = 1;
nodes = (
(604,0,l),
(604,700,l),
(506,700,l),
(506,0,l)
);
},
{
closed = 1;
nodes = (
(184,0,l),
(184,700,l),
(86,700,l),
(86,0,l)
);
},
{
closed = 1;
nodes = (
(520,329,l),
(520,381,l),
(170,381,l),
(170,329,l)
);
}
);
userData = {
com.hugojourdan.ColorFlow = {
"0" = 0;
"1" = 0;
"10" = 0;
"11" = 0;
"2" = 0;
"3" = 0;
"4" = 0;
"5" = 0;
"6" = 0;
"7" = 0;
"8" = 0;
"9" = 0;
};
};
width = 690;
},
{
layerId = m004;
metricLeft = "=n*1.12";
shapes = (
{
closed = 1;
nodes = (
(579,0,l),
(579,700,l),
(531,700,l),
(531,0,l)
);
},
{
closed = 1;
nodes = (
(144,0,l),
(144,700,l),
(96,700,l),
(96,0,l)
);
},
{
closed = 1;
nodes = (
(559,334,l),
(559,377,l),
(116,377,l),
(116,334,l)
);
}
);
userData = {
com.hugojourdan.ColorFlow = {
"0" = 0;
"1" = 0;
"10" = 0;
"11" = 0;
"2" = 0;
"3" = 0;
"4" = 0;
"5" = 0;
"6" = 0;
"7" = 0;
"8" = 0;
"9" = 0;
};
};
width = 675;
},
{
layerId = m005;
metricLeft = "=n*1.13";
shapes = (
{
closed = 1;
nodes = (
(604,0,l),
(604,700,l),
(506,700,l),
(506,0,l)
);
},
{
closed = 1;
nodes = (
(184,0,l),
(184,700,l),
(86,700,l),
(86,0,l)
);
},
{
closed = 1;
nodes = (
(517,316,l),
(517,396,l),
(173,396,l),
(173,316,l)
);
}
);
userData = {
com.hugojourdan.ColorFlow = {
"0" = 0;
"1" = 0;
"10" = 0;
"11" = 0;
"2" = 0;
"3" = 0;
"4" = 0;
"5" = 0;
"6" = 0;
"7" = 0;
"8" = 0;
"9" = 0;
};
};
width = 690;
},
{
layerId = m006;
metricLeft = "=n*1.2";
shapes = (
{
closed = 1;
nodes = (
(632,0,l),
(632,700,l),
(454,700,l),
(454,0,l)
);
},
{
closed = 1;
nodes = (
(236,0,l),
(236,700,l),
(58,700,l),
(58,0,l)
);
},
{
closed = 1;
nodes = (
(520,285,l),
(520,425,l),
(170,425,l),
(170,285,l)
);
}
);
userData = {
com.hugojourdan.ColorFlow = {
"0" = 0;
"1" = 0;
"10" = 0;
"11" = 0;
"2" = 0;
"3" = 0;
"4" = 0;
"5" = 0;
"6" = 0;
"7" = 0;
"8" = 0;
"9" = 0;
};
};
width = 690;
},
{
layerId = "4E5694F4-F64E-4331-B998-78BE273203C7";
metricLeft = "=n*1.12";
shapes = (
{
closed = 1;
nodes = (
(539,0,l),
(656,700,l),
(608,700,l),
(491,0,l)
);
},
{
closed = 1;
nodes = (
(104,0,l),
(221,700,l),
(173,700,l),
(56,0,l)
);
},
{
closed = 1;
nodes = (
(572,334,l),
(579,377,l),
(141,377,l),
(133,334,l)
);
}
);
userData = {
com.hugojourdan.ColorFlow = {
"0" = 0;
"1" = 0;
"10" = 0;
"11" = 0;
"2" = 0;
"3" = 0;
"4" = 0;
"5" = 0;
"6" = 0;
"7" = 0;
"8" = 0;
"9" = 0;
};
};
width = 675;
},
{
layerId = "DF4E5521-40BA-460F-874A-364F4D14AAD8";
metricLeft = "=n*1.13";
shapes = (
{
closed = 1;
nodes = (
(563,0,l),
(680,700,l),
(582,700,l),
(465,0,l)
);
},
{
closed = 1;
nodes = (
(143,0,l),
(260,700,l),
(162,700,l),
(45,0,l)
);
},
{
closed = 1;
nodes = (
(528,316,l),
(541,396,l),
(199,396,l),
(186,316,l)
);
}
);
userData = {
com.hugojourdan.ColorFlow = {
"0" = 0;
"1" = 0;
"10" = 0;
"11" = 0;
"2" = 0;
"3" = 0;
"4" = 0;
"5" = 0;
"6" = 0;
"7" = 0;
"8" = 0;
"9" = 0;
};
};
width = 690;
},
{
layerId = "C6DE9ED7-34B3-46A1-8A00-A72C4A5E93A3";
metricLeft = "=n*1.2";
shapes = (
{
closed = 1;
nodes = (
(590,0,l),
(707,700,l),
(529,700,l),
(412,0,l)
);
},
{
closed = 1;
nodes = (
(194,0,l),
(311,700,l),
(133,700,l),
(16,0,l)
);
},
{
closed = 1;
nodes = (
(525,286,l),
(548,425,l),
(210,425,l),
(187,286,l)
);
}
);
userData = {
com.hugojourdan.ColorFlow = {
"0" = 0;
"1" = 0;
"10" = 0;
"11" = 0;
"2" = 0;
"3" = 0;
"4" = 0;
"5" = 0;
"6" = 0;
"7" = 0;
"8" = 0;
"9" = 0;
};
};
width = 690;
},
{
layerId = "D2741A44-CB8E-4434-9CC9-735A9A127F4C";
metricLeft = "=n*1.26";
shapes = (
{
closed = 1;
nodes = (
(539,0,l),
(656,700,l),
(608,700,l),
(491,0,l)
);
},
{
closed = 1;
nodes = (
(104,0,l),
(221,700,l),
(173,700,l),
(56,0,l)
);
},
{
closed = 1;
nodes = (
(556,340,l),
(561,372,l),
(158,372,l),
(153,340,l)
);
}
);
userData = {
com.hugojourdan.ColorFlow = {
"0" = 0;
"1" = 0;
"10" = 0;
"11" = 0;
"2" = 0;
"3" = 0;
"4" = 0;
"5" = 0;
"6" = 0;
"7" = 0;
"8" = 0;
"9" = 0;
};
};
width = 675;
},
{
layerId = "0B63B416-D10E-4459-8DAA-360BF3D1BFD2";
metricLeft = "=n*1.3";
shapes = (
{
closed = 1;
nodes = (
(563,0,l),
(680,700,l),
(582,700,l),
(465,0,l)
);
},
{
closed = 1;
nodes = (
(143,0,l),
(260,700,l),
(162,700,l),
(45,0,l)
);
},
{
closed = 1;
nodes = (
(534,329,l),
(543,381,l),
(193,381,l),
(184,329,l)
);
}
);
userData = {
com.hugojourdan.ColorFlow = {
"0" = 0;
"1" = 0;
"10" = 0;
"11" = 0;
"2" = 0;
"3" = 0;
"4" = 0;
"5" = 0;
"6" = 0;
"7" = 0;
"8" = 0;
"9" = 0;
};
};
width = 690;
},
{
layerId = "EE3858F4-A475-4EBA-A8F4-31CE9F38567C";
metricLeft = "=n*1.52";
shapes = (
{
closed = 1;
nodes = (
(590,0,l),
(707,700,l),
(529,700,l),
(412,0,l)
);
},
{
closed = 1;
nodes = (
(194,0,l),
(311,700,l),
(133,700,l),
(16,0,l)
);
},
{
closed = 1;
nodes = (
(480,310,l),
(495,400,l),
(245,400,l),
(230,310,l)
);
}
);
userData = {
com.hugojourdan.ColorFlow = {
"0" = 0;
"1" = 0;
"10" = 0;
"11" = 0;
"2" = 0;
"3" = 0;
"4" = 0;
"5" = 0;
"6" = 0;
"7" = 0;
"8" = 0;
"9" = 0;
};
};
width = 690;
}
);
metricLeft = "=n+10*1.24";
metricRight = "=|";
note = H;
unicode = 72;
},
{
glyphname = I;
layers = (
{
anchors = (
{
name = ogonek;
pos = (144,0);
},
{
name = top;
pos = (120,700);
}
);
layerId = m01;
shapes = (
{
closed = 1;
nodes = (
(144,0,l),
(144,700,l),
(96,700,l),
(96,0,l)
);
}
);
userData = {
com.hugojourdan.ColorFlow = {
"0" = 0;
"1" = 0;
"10" = 0;
"11" = 0;
"2" = 0;
"3" = 0;
"4" = 0;
"5" = 0;
"6" = 0;
"7" = 0;
"8" = 0;
"9" = 0;
};
};
width = 240;
},
{
anchors = (
{
name = ogonek;
pos = (236,0);
},
{
name = top;
pos = (147,700);
}
);
layerId = "FF73925E-1E34-445B-881D-5A7CAAA8E8BE";
shapes = (
{
closed = 1;
nodes = (
(236,0,l),
(236,700,l),
(58,700,l),
(58,0,l)
);
}
);
userData = {
com.hugojourdan.ColorFlow = {
"0" = 0;
"1" = 0;
"10" = 0;
"11" = 0;
"2" = 0;
"3" = 0;
"4" = 0;
"5" = 0;
"6" = 0;
"7" = 0;
"8" = 0;
"9" = 0;
};
};
width = 294;
},
{
anchors = (
{
name = ogonek;
pos = (184,0);
},
{
name = top;
pos = (135,700);
}
);
layerId = "BF6BA5B2-0556-42F4-A103-614BEBF16A1A";
shapes = (
{
closed = 1;
nodes = (
(184,0,l),
(184,700,l),
(86,700,l),
(86,0,l)
);
}
);
userData = {
com.hugojourdan.ColorFlow = {
"0" = 0;
"1" = 0;
"10" = 0;
"11" = 0;
"2" = 0;
"3" = 0;
"4" = 0;
"5" = 0;
"6" = 0;
"7" = 0;
"8" = 0;
"9" = 0;
};
};
width = 270;
},
{
anchors = (
{
name = ogonek;
pos = (144,0);
},
{
name = top;
pos = (120,700);
}
);
layerId = m004;
shapes = (
{
closed = 1;
nodes = (
(144,0,l),
(144,700,l),
(96,700,l),
(96,0,l)
);
}
);
userData = {
com.hugojourdan.ColorFlow = {
"0" = 0;
"1" = 0;
"10" = 0;
"11" = 0;
"2" = 0;
"3" = 0;
"4" = 0;
"5" = 0;
"6" = 0;
"7" = 0;
"8" = 0;
"9" = 0;
};
};
width = 240;
},
{
anchors = (
{
name = ogonek;
pos = (184,0);
},
{
name = top;
pos = (135,700);
}
);
layerId = m005;
shapes = (
{
closed = 1;
nodes = (
(184,0,l),
(184,700,l),
(86,700,l),
(86,0,l)
);
}
);
userData = {
com.hugojourdan.ColorFlow = {
"0" = 0;
"1" = 0;
"10" = 0;
"11" = 0;
"2" = 0;
"3" = 0;
"4" = 0;
"5" = 0;
"6" = 0;
"7" = 0;
"8" = 0;
"9" = 0;
};
};
width = 270;
},
{
anchors = (
{
name = ogonek;
pos = (236,0);
},
{
name = top;
pos = (147,700);
}
);
layerId = m006;
shapes = (
{
closed = 1;
nodes = (
(236,0,l),
(236,700,l),
(58,700,l),
(58,0,l)
);
}
);
userData = {
com.hugojourdan.ColorFlow = {
"0" = 0;
"1" = 0;
"10" = 0;
"11" = 0;
"2" = 0;
"3" = 0;
"4" = 0;
"5" = 0;
"6" = 0;
"7" = 0;
"8" = 0;
"9" = 0;
};
};
width = 294;
},
{
anchors = (
{
name = ogonek;
pos = (104,0);
},
{
name = top;
pos = (197,700);
}
);
layerId = "4E5694F4-F64E-4331-B998-78BE273203C7";
shapes = (
{
closed = 1;
nodes = (
(104,0,l),
(221,700,l),
(173,700,l),
(56,0,l)
);
}
);
userData = {
com.hugojourdan.ColorFlow = {
"0" = 0;
"1" = 0;
"10" = 0;
"11" = 0;
"2" = 0;
"3" = 0;
"4" = 0;
"5" = 0;
"6" = 0;
"7" = 0;
"8" = 0;
"9" = 0;
};
};
width = 240;
},
{
anchors = (
{
name = ogonek;
pos = (143,0);
},
{
name = top;
pos = (211,700);
}
);
layerId = "DF4E5521-40BA-460F-874A-364F4D14AAD8";
shapes = (
{
closed = 1;
nodes = (
(143,0,l),
(260,700,l),
(162,700,l),
(45,0,l)
);
}
);
userData = {
com.hugojourdan.ColorFlow = {
"0" = 0;
"1" = 0;
"10" = 0;
"11" = 0;
"2" = 0;
"3" = 0;
"4" = 0;
"5" = 0;
"6" = 0;
"7" = 0;
"8" = 0;
"9" = 0;
};
};
width = 270;
},
{
anchors = (
{
name = ogonek;
pos = (194,0);
},
{
name = top;
pos = (222,700);
}
);
layerId = "C6DE9ED7-34B3-46A1-8A00-A72C4A5E93A3";
shapes = (
{
closed = 1;
nodes = (
(194,0,l),
(311,700,l),
(133,700,l),
(16,0,l)
);
}
);
userData = {
com.hugojourdan.ColorFlow = {
"0" = 0;
"1" = 0;
"10" = 0;
"11" = 0;
"2" = 0;
"3" = 0;
"4" = 0;
"5" = 0;
"6" = 0;
"7" = 0;
"8" = 0;
"9" = 0;
};
};
width = 294;
},
{
anchors = (
{
name = ogonek;
pos = (104,0);
},
{
name = top;
pos = (197,700);
}
);
layerId = "D2741A44-CB8E-4434-9CC9-735A9A127F4C";
shapes = (
{
closed = 1;
nodes = (
(104,0,l),
(221,700,l),
(173,700,l),
(56,0,l)
);
}
);
userData = {
com.hugojourdan.ColorFlow = {
"0" = 0;
"1" = 0;
"10" = 0;
"11" = 0;
"2" = 0;
"3" = 0;
"4" = 0;
"5" = 0;
"6" = 0;
"7" = 0;
"8" = 0;
"9" = 0;
};
};
width = 240;
},
{
anchors = (
{
name = ogonek;
pos = (143,0);
},
{
name = top;
pos = (211,700);
}
);
layerId = "0B63B416-D10E-4459-8DAA-360BF3D1BFD2";
shapes = (
{
closed = 1;
nodes = (
(143,0,l),
(260,700,l),
(162,700,l),
(45,0,l)
);
}
);
userData = {
com.hugojourdan.ColorFlow = {
"0" = 0;
"1" = 0;
"10" = 0;
"11" = 0;
"2" = 0;
"3" = 0;
"4" = 0;
"5" = 0;
"6" = 0;
"7" = 0;
"8" = 0;
"9" = 0;
};
};
width = 270;
},
{
anchors = (
{
name = ogonek;
pos = (194,0);
},
{
name = top;
pos = (222,700);
}
);
layerId = "EE3858F4-A475-4EBA-A8F4-31CE9F38567C";
shapes = (
{
closed = 1;
nodes = (
(194,0,l),
(311,700,l),
(133,700,l),
(16,0,l)
);
}
);
userData = {
com.hugojourdan.ColorFlow = {
"0" = 0;
"1" = 0;
"10" = 0;
"11" = 0;
"2" = 0;
"3" = 0;
"4" = 0;
"5" = 0;
"6" = 0;
"7" = 0;
"8" = 0;
"9" = 0;
};
};
width = 294;
}
);
metricLeft = "=H";
metricRight = "=|";
note = I;
unicode = 73;
},
{
glyphname = J;
layers = (
{
layerId = m01;
shapes = (
{
closed = 1;
nodes = (
(314,-10,o),
(402,55,o),
(402,177,cs),
(402,700,l),
(354,700,l),
(354,170,ls),
(354,78,o),
(289,24,o),
(216,24,cs),
(163,24,o),
(104,53,o),
(65,118,c),
(36,81,l),
(85,20,o),
(153,-10,o),
(218,-10,cs)
);
}
);
userData = {
com.hugojourdan.ColorFlow = {
"0" = 0;
"1" = 0;
"10" = 0;
"11" = 0;
"2" = 0;
"3" = 0;
"4" = 0;
"5" = 0;
"6" = 0;
"7" = 0;
"8" = 0;
"9" = 0;
};
};
width = 486;
},
{
layerId = "FF73925E-1E34-445B-881D-5A7CAAA8E8BE";
shapes = (
{
closed = 1;
nodes = (
(447,-10,o),
(537,79,o),
(537,239,cs),
(537,700,l),
(359,700,l),
(359,235,ls),
(359,136,o),
(332,80,o),
(284,80,cs),
(240,80,o),
(191,128,o),
(150,211,c),
(21,121,l),
(74,37,o),
(168,-10,o),
(285,-10,cs)
);
}
);
userData = {
com.hugojourdan.ColorFlow = {
"0" = 0;
"1" = 0;
"10" = 0;
"11" = 0;
"2" = 0;
"3" = 0;
"4" = 0;
"5" = 0;
"6" = 0;
"7" = 0;
"8" = 0;
"9" = 0;
};
};
width = 588;
},
{
layerId = "BF6BA5B2-0556-42F4-A103-614BEBF16A1A";
shapes = (
{
closed = 1;
nodes = (
(348,-10,o),
(417,60,o),
(417,183,cs),
(417,700,l),
(320,700,l),
(320,177,ls),
(320,90,o),
(289,41,o),
(233,41,cs),
(175,41,o),
(132,78,o),
(114,145,c),
(32,114,l),
(60,34,o),
(129,-10,o),
(229,-10,cs)
);
}
);
userData = {
com.hugojourdan.ColorFlow = {
"0" = 0;
"1" = 0;
"10" = 0;
"11" = 0;
"2" = 0;
"3" = 0;
"4" = 0;
"5" = 0;
"6" = 0;
"7" = 0;
"8" = 0;
"9" = 0;
};
};
width = 493;
},
{
layerId = m004;
shapes = (
{
closed = 1;
nodes = (
(326,-10,o),
(402,67,o),
(402,177,cs),
(402,700,l),
(354,700,l),
(354,170,ls),
(354,91,o),
(298,34,o),
(220,34,cs),
(165,34,o),
(107,61,o),
(69,104,c),
(36,69,l),
(91,18,o),
(155,-10,o),
(219,-10,cs)
);
}
);
userData = {
com.hugojourdan.ColorFlow = {
"0" = 0;
"1" = 0;
"10" = 0;
"11" = 0;
"2" = 0;
"3" = 0;
"4" = 0;
"5" = 0;
"6" = 0;
"7" = 0;
"8" = 0;
"9" = 0;
};
};
width = 486;
},
{
layerId = m005;
shapes = (
{
closed = 1;
nodes = (
(375,-10,o),
(457,71,o),
(457,202,cs),
(457,700,l),
(359,700,l),
(359,195,ls),
(359,122,o),
(315,74,o),
(246,74,cs),
(194,74,o),
(129,102,o),
(87,143,c),
(32,78,l),
(86,23,o),
(166,-10,o),
(244,-10,cs)
);
}
);
userData = {
com.hugojourdan.ColorFlow = {
"0" = 0;
"1" = 0;
"10" = 0;
"11" = 0;
"2" = 0;
"3" = 0;
"4" = 0;
"5" = 0;
"6" = 0;
"7" = 0;
"8" = 0;
"9" = 0;
};
};
width = 533;
},
{
layerId = m006;
shapes = (
{
closed = 1;
nodes = (
(454,-10,o),
(537,71,o),
(537,234,cs),
(537,700,l),
(359,700,l),
(359,235,ls),
(359,169,o),
(333,138,o),
(276,138,cs),
(220,138,o),
(156,168,o),
(101,221,c),
(21,98,l),
(83,28,o),
(178,-10,o),
(289,-10,cs)
);
}
);
userData = {
com.hugojourdan.ColorFlow = {
"0" = 0;
"1" = 0;
"10" = 0;
"11" = 0;
"2" = 0;
"3" = 0;
"4" = 0;
"5" = 0;
"6" = 0;
"7" = 0;
"8" = 0;
"9" = 0;
};
};
width = 588;
},
{
background = {
shapes = (
{
pos = (252,0);
ref = I;
}
);
};
layerId = "4E5694F4-F64E-4331-B998-78BE273203C7";
shapes = (
{
closed = 1;
nodes = (
(297,-10,o),
(372,57,o),
(389,162,cs),
(479,700,l),
(431,700,l),
(341,162,ls),
(328,85,o),
(270,34,o),
(197,34,cs),
(139,34,o),
(81,67,o),
(49,117,c),
(10,85,l),
(60,24,o),
(127,-10,o),
(198,-10,cs)
);
}
);
userData = {
com.hugojourdan.ColorFlow = {
"0" = 0;
"1" = 0;
"10" = 0;
"11" = 0;
"2" = 0;
"3" = 0;
"4" = 0;
"5" = 0;
"6" = 0;
"7" = 0;
"8" = 0;
"9" = 0;
};
};
width = 486;
},
{
background = {
shapes = (
{
pos = (271,0);
ref = I;
}
);
};
layerId = "DF4E5521-40BA-460F-874A-364F4D14AAD8";
shapes = (
{
closed = 1;
nodes = (
(344,-10,o),
(426,61,o),
(446,180,cs),
(533,700,l),
(435,700,l),
(349,186,ls),
(337,117,o),
(291,74,o),
(229,74,cs),
(175,74,o),
(108,109,o),
(72,157,c),
(7,97,l),
(57,30,o),
(140,-10,o),
(227,-10,cs)
);
}
);
userData = {
com.hugojourdan.ColorFlow = {
"0" = 0;
"1" = 0;
"10" = 0;
"11" = 0;
"2" = 0;
"3" = 0;
"4" = 0;
"5" = 0;
"6" = 0;
"7" = 0;
"8" = 0;
"9" = 0;
};
};
width = 533;
},
{
background = {
shapes = (
{
pos = (308,0);
ref = I;
}
);
};
layerId = "C6DE9ED7-34B3-46A1-8A00-A72C4A5E93A3";
shapes = (
{
closed = 1;
nodes = (
(422,-10,o),
(506,65,o),
(531,215,cs),
(612,700,l),
(434,700,l),
(355,227,ls),
(345,167,o),
(318,138,o),
(268,138,cs),
(211,138,o),
(147,175,o),
(99,235,c),
(-1,119,l),
(52,40,o),
(158,-10,o),
(277,-10,cs)
);
}
);
userData = {
com.hugojourdan.ColorFlow = {
"0" = 0;
"1" = 0;
"10" = 0;
"11" = 0;
"2" = 0;
"3" = 0;
"4" = 0;
"5" = 0;
"6" = 0;
"7" = 0;
"8" = 0;
"9" = 0;
};
};
width = 588;
},
{
guides = (
{
angle = 80.5;
pos = (354,239);
},
{
angle = 80.5;
pos = (402,239);
}
);
layerId = "D2741A44-CB8E-4434-9CC9-735A9A127F4C";
shapes = (
{
closed = 1;
nodes = (
(293,-10,o),
(372,58,o),
(389,161,cs),
(479,700,l),
(431,700,l),
(341,161,ls),
(327,80,o),
(266,24,o),
(192,24,cs),
(129,24,o),
(73,66,o),
(47,132,c),
(12,97,l),
(52,30,o),
(119,-10,o),
(195,-10,cs)
);
}
);
userData = {
com.hugojourdan.ColorFlow = {
"0" = 0;
"1" = 0;
"10" = 0;
"11" = 0;
"2" = 0;
"3" = 0;
"4" = 0;
"5" = 0;
"6" = 0;
"7" = 0;
"8" = 0;
"9" = 0;
};
};
width = 486;
},
{
guides = (
{
angle = 80.5;
pos = (320,245);
},
{
angle = 80.5;
pos = (417,245);
}
);
layerId = "0B63B416-D10E-4459-8DAA-360BF3D1BFD2";
shapes = (
{
closed = 1;
nodes = (
(317,-10,o),
(385,53,o),
(404,167,cs),
(493,700,l),
(396,700,l),
(307,167,ls),
(293,84,o),
(258,41,o),
(203,41,cs),
(146,41,o),
(104,88,o),
(99,155,c),
(13,131,l),
(27,44,o),
(99,-10,o),
(204,-10,cs)
);
}
);
userData = {
com.hugojourdan.ColorFlow = {
"0" = 0;
"1" = 0;
"10" = 0;
"11" = 0;
"2" = 0;
"3" = 0;
"4" = 0;
"5" = 0;
"6" = 0;
"7" = 0;
"8" = 0;
"9" = 0;
};
};
width = 493;
},
{
guides = (
{
angle = 80.5;
pos = (359,251);
},
{
angle = 80.5;
pos = (537,251);
}
);
layerId = "EE3858F4-A475-4EBA-A8F4-31CE9F38567C";
shapes = (
{
closed = 1;
nodes = (
(417,-10,o),
(507,69,o),
(531,215,cs),
(612,700,l),
(434,700,l),
(355,227,ls),
(339,131,o),
(306,80,o),
(260,80,cs),
(215,80,o),
(173,132,o),
(145,222,c),
(3,143,l),
(44,49,o),
(147,-10,o),
(272,-10,cs)
);
}
);
userData = {
com.hugojourdan.ColorFlow = {
"0" = 0;
"1" = 0;
"10" = 0;
"11" = 0;
"2" = 0;
"3" = 0;
"4" = 0;
"5" = 0;
"6" = 0;
"7" = 0;
"8" = 0;
"9" = 0;
};
};
width = 588;
}
);
metricLeft = "=T";
metricRight = "=U";
note = J;
unicode = 74;
},
{
glyphname = K;
layers = (
{
layerId = m01;
shapes = (
{
closed = 1;
nodes = (
(258,334,l),
(258,334,l),
(572,700,l),
(526,700,l),
(246,379,l),
(137,362,l),
(137,334,l)
);
},
{
closed = 1;
nodes = (
(144,0,l),
(144,700,l),
(96,700,l),
(96,0,l)
);
},
{
closed = 1;
nodes = (
(597,0,l),
(273,376,l),
(225,367,l),
(536,0,l)
);
}
);
userData = {
com.hugojourdan.ColorFlow = {
"0" = 0;
"1" = 0;
"10" = 0;
"11" = 0;
"2" = 0;
"3" = 0;
"4" = 0;
"5" = 0;
"6" = 0;
"7" = 0;
"8" = 0;
"9" = 0;
};
};
width = 642;
},
{
layerId = "FF73925E-1E34-445B-881D-5A7CAAA8E8BE";
shapes = (
{
closed = 1;
nodes = (
(364,322,l),
(364,322,l),
(633,700,l),
(523,700,l),
(321,417,l),
(220,404,l),
(220,322,l)
);
},
{
closed = 1;
nodes = (
(236,0,l),
(236,700,l),
(58,700,l),
(58,0,l)
);
},
{
closed = 1;
nodes = (
(653,0,l),
(414,418,l),
(266,365,l),
(456,0,l)
);
}
);
userData = {
com.hugojourdan.ColorFlow = {
"0" = 0;
"1" = 0;
"10" = 0;
"11" = 0;
"2" = 0;
"3" = 0;
"4" = 0;
"5" = 0;
"6" = 0;
"7" = 0;
"8" = 0;
"9" = 0;
};
};
width = 664;
},
{
layerId = "BF6BA5B2-0556-42F4-A103-614BEBF16A1A";
shapes = (
{
closed = 1;
nodes = (
(296,324,l),
(296,324,l),
(600,700,l),
(529,700,l),
(278,392,l),
(163,374,l),
(163,324,l)
);
},
{
closed = 1;
nodes = (
(183,0,l),
(183,700,l),
(86,700,l),
(86,0,l)
);
},
{
closed = 1;
nodes = (
(623,0,l),
(331,394,l),
(242,367,l),
(509,0,l)
);
}
);
userData = {
com.hugojourdan.ColorFlow = {
"0" = 0;
"1" = 0;
"10" = 0;
"11" = 0;
"2" = 0;
"3" = 0;
"4" = 0;
"5" = 0;
"6" = 0;
"7" = 0;
"8" = 0;
"9" = 0;
};
};
width = 654;
},
{
layerId = m004;
shapes = (
{
closed = 1;
nodes = (
(258,365,l),
(258,365,l),
(559,700,l),
(499,700,l),
(247,417,l),
(137,293,l),
(137,230,l)
);
},
{
closed = 1;
nodes = (
(144,0,l),
(144,700,l),
(96,700,l),
(96,0,l)
);
},
{
closed = 1;
nodes = (
(597,0,l),
(288,418,l),
(256,382,l),
(540,0,l)
);
}
);
userData = {
com.hugojourdan.ColorFlow = {
"0" = 0;
"1" = 0;
"10" = 0;
"11" = 0;
"2" = 0;
"3" = 0;
"4" = 0;
"5" = 0;
"6" = 0;
"7" = 0;
"8" = 0;
"9" = 0;
};
};
width = 633;
},
{
layerId = m005;
shapes = (
{
closed = 1;
nodes = (
(293,345,l),
(293,343,l),
(600,700,l),
(494,700,l),
(272,441,l),
(164,315,l),
(164,195,l)
);
},
{
closed = 1;
nodes = (
(184,0,l),
(184,700,l),
(86,700,l),
(86,0,l)
);
},
{
closed = 1;
nodes = (
(623,0,l),
(333,412,l),
(259,365,l),
(512,0,l)
);
}
);
userData = {
com.hugojourdan.ColorFlow = {
"0" = 0;
"1" = 0;
"10" = 0;
"11" = 0;
"2" = 0;
"3" = 0;
"4" = 0;
"5" = 0;
"6" = 0;
"7" = 0;
"8" = 0;
"9" = 0;
};
};
width = 654;
},
{
guides = (
{
angle = 90;
pos = (236,350);
},
{
angle = 90;
pos = (220,350);
},
{
angle = 90;
pos = (363,322);
}
);
layerId = m006;
shapes = (
{
closed = 1;
nodes = (
(363,356,l),
(363,345,l),
(653,700,l),
(473,700,l),
(321,512,l),
(220,387,l),
(220,181,l)
);
},
{
closed = 1;
nodes = (
(236,0,l),
(236,700,l),
(58,700,l),
(58,0,l)
);
},
{
closed = 1;
nodes = (
(653,0,l),
(392,403,l),
(252,338,l),
(456,0,l)
);
}
);
userData = {
com.hugojourdan.ColorFlow = {
"0" = 0;
"1" = 0;
"10" = 0;
"11" = 0;
"2" = 0;
"3" = 0;
"4" = 0;
"5" = 0;
"6" = 0;
"7" = 0;
"8" = 0;
"9" = 0;
};
};
width = 664;
},
{
associatedMasterId = m005;
layerId = "08F6F4D0-0A49-4B80-A84D-A6F92DF2C3BE";
name = "20 Jun 23 4.51 PM";
shapes = (
{
closed = 1;
nodes = (
(143,167,l),
(602,700,l),
(496,700,l),
(118,259,l),
(100,259,l),
(100,167,l)
);
},
{
closed = 1;
nodes = (
(186,0,l),
(186,700,l),
(88,700,l),
(88,0,l)
);
},
{
closed = 1;
nodes = (
(625,0,l),
(335,412,l),
(261,365,l),
(514,0,l)
);
}
);
userData = {
com.hugojourdan.ColorFlow = {
"0" = 0;
"1" = 0;
"10" = 0;
"11" = 0;
"2" = 0;
"3" = 0;
"4" = 0;
"5" = 0;
"6" = 0;
"7" = 0;
"8" = 0;
"9" = 0;
};
};
width = 657;
},
{
layerId = "4E5694F4-F64E-4331-B998-78BE273203C7";
shapes = (
{
closed = 1;
nodes = (
(280,372,l),
(280,372,l),
(654,700,l),
(589,700,l),
(277,425,l),
(148,311,l),
(138,248,l)
);
},
{
closed = 1;
nodes = (
(104,0,l),
(221,700,l),
(173,700,l),
(56,0,l)
);
},
{
closed = 1;
nodes = (
(557,0,l),
(332,423,l),
(294,389,l),
(503,0,l)
);
}
);
userData = {
com.hugojourdan.ColorFlow = {
"0" = 0;
"1" = 0;
"10" = 0;
"11" = 0;
"2" = 0;
"3" = 0;
"4" = 0;
"5" = 0;
"6" = 0;
"7" = 0;
"8" = 0;
"9" = 0;
};
};
width = 633;
},
{
layerId = "DF4E5521-40BA-460F-874A-364F4D14AAD8";
shapes = (
{
closed = 1;
nodes = (
(311,350,l),
(311,348,l),
(697,700,l),
(583,700,l),
(306,448,l),
(179,331,l),
(159,211,l)
);
},
{
closed = 1;
nodes = (
(143,0,l),
(260,700,l),
(162,700,l),
(45,0,l)
);
},
{
closed = 1;
nodes = (
(582,0,l),
(374,414,l),
(294,373,l),
(477,0,l)
);
}
);
userData = {
com.hugojourdan.ColorFlow = {
"0" = 0;
"1" = 0;
"10" = 0;
"11" = 0;
"2" = 0;
"3" = 0;
"4" = 0;
"5" = 0;
"6" = 0;
"7" = 0;
"8" = 0;
"9" = 0;
};
};
width = 654;
},
{
associatedMasterId = "DF4E5521-40BA-460F-874A-364F4D14AAD8";
layerId = "C1F258F3-652C-4BCC-9A10-007598A3D2A6";
name = "20 Jun 23 4.51 PM";
shapes = (
{
closed = 1;
nodes = (
(219,167,l),
(678,700,l),
(572,700,l),
(194,259,l),
(176,259,l),
(176,167,l)
);
},
{
closed = 1;
nodes = (
(262,0,l),
(262,700,l),
(164,700,l),
(164,0,l)
);
},
{
closed = 1;
nodes = (
(701,0,l),
(411,412,l),
(337,365,l),
(590,0,l)
);
}
);
userData = {
com.hugojourdan.ColorFlow = {
"0" = 0;
"1" = 0;
"10" = 0;
"11" = 0;
"2" = 0;
"3" = 0;
"4" = 0;
"5" = 0;
"6" = 0;
"7" = 0;
"8" = 0;
"9" = 0;
};
};
width = 774;
},
{
guides = (
{
angle = 80.5;
pos = (653,251);
}
);
layerId = "C6DE9ED7-34B3-46A1-8A00-A72C4A5E93A3";
shapes = (
{
closed = 1;
nodes = (
(355,355,l),
(355,344,l),
(728,700,l),
(533,700,l),
(341,514,l),
(220,398,l),
(185,193,l)
);
},
{
closed = 1;
nodes = (
(194,0,l),
(311,700,l),
(133,700,l),
(16,0,l)
);
},
{
closed = 1;
nodes = (
(611,0,l),
(414,431,l),
(265,378,l),
(423,0,l)
);
}
);
userData = {
com.hugojourdan.ColorFlow = {
"0" = 0;
"1" = 0;
"10" = 0;
"11" = 0;
"2" = 0;
"3" = 0;
"4" = 0;
"5" = 0;
"6" = 0;
"7" = 0;
"8" = 0;
"9" = 0;
};
};
width = 664;
},
{
layerId = "D2741A44-CB8E-4434-9CC9-735A9A127F4C";
shapes = (
{
closed = 1;
nodes = (
(274,334,l),
(274,334,l),
(649,700,l),
(603,700,l),
(269,379,l),
(158,362,l),
(153,334,l)
);
},
{
closed = 1;
nodes = (
(104,0,l),
(221,700,l),
(173,700,l),
(56,0,l)
);
},
{
closed = 1;
nodes = (
(557,0,l),
(296,376,l),
(246,367,l),
(496,0,l)
);
}
);
userData = {
com.hugojourdan.ColorFlow = {
"0" = 0;
"1" = 0;
"10" = 0;
"11" = 0;
"2" = 0;
"3" = 0;
"4" = 0;
"5" = 0;
"6" = 0;
"7" = 0;
"8" = 0;
"9" = 0;
};
};
width = 642;
},
{
layerId = "0B63B416-D10E-4459-8DAA-360BF3D1BFD2";
shapes = (
{
closed = 1;
nodes = (
(309,324,l),
(309,324,l),
(676,700,l),
(605,700,l),
(303,392,l),
(185,374,l),
(176,324,l)
);
},
{
closed = 1;
nodes = (
(142,0,l),
(259,700,l),
(162,700,l),
(45,0,l)
);
},
{
closed = 1;
nodes = (
(582,0,l),
(356,394,l),
(262,367,l),
(468,0,l)
);
}
);
userData = {
com.hugojourdan.ColorFlow = {
"0" = 0;
"1" = 0;
"10" = 0;
"11" = 0;
"2" = 0;
"3" = 0;
"4" = 0;
"5" = 0;
"6" = 0;
"7" = 0;
"8" = 0;
"9" = 0;
};
};
width = 654;
},
{
layerId = "EE3858F4-A475-4EBA-A8F4-31CE9F38567C";
shapes = (
{
closed = 1;
nodes = (
(376,322,l),
(376,322,l),
(708,700,l),
(598,700,l),
(349,417,l),
(246,404,l),
(232,322,l)
);
},
{
closed = 1;
nodes = (
(194,0,l),
(311,700,l),
(133,700,l),
(16,0,l)
);
},
{
closed = 1;
nodes = (
(611,0,l),
(442,418,l),
(285,365,l),
(414,0,l)
);
}
);
userData = {
com.hugojourdan.ColorFlow = {
"0" = 0;
"1" = 0;
"10" = 0;
"11" = 0;
"2" = 0;
"3" = 0;
"4" = 0;
"5" = 0;
"6" = 0;
"7" = 0;
"8" = 0;
"9" = 0;
};
};
width = 664;
}
);
metricLeft = "=H";
metricRight = "=V";
note = K;
unicode = 75;
},
{
glyphname = L;
layers = (
{
layerId = m01;
shapes = (
{
closed = 1;
nodes = (
(468,0,l),
(468,32,l),
(144,32,l),
(144,700,l),
(96,700,l),
(96,0,l)
);
}
);
userData = {
com.hugojourdan.ColorFlow = {
"0" = 0;
"1" = 0;
"10" = 0;
"11" = 0;
"2" = 0;
"3" = 0;
"4" = 0;
"5" = 0;
"6" = 0;
"7" = 0;
"8" = 0;
"9" = 0;
};
};
width = 507;
},
{
layerId = "FF73925E-1E34-445B-881D-5A7CAAA8E8BE";
shapes = (
{
closed = 1;
nodes = (
(494,0,l),
(494,90,l),
(236,90,l),
(236,700,l),
(58,700,l),
(58,0,l)
);
}
);
userData = {
com.hugojourdan.ColorFlow = {
"0" = 0;
"1" = 0;
"10" = 0;
"11" = 0;
"2" = 0;
"3" = 0;
"4" = 0;
"5" = 0;
"6" = 0;
"7" = 0;
"8" = 0;
"9" = 0;
};
};
width = 518;
},
{
layerId = "BF6BA5B2-0556-42F4-A103-614BEBF16A1A";
shapes = (
{
closed = 1;
nodes = (
(482,0,l),
(482,52,l),
(183,52,l),
(183,700,l),
(86,700,l),
(86,0,l)
);
}
);
userData = {
com.hugojourdan.ColorFlow = {
"0" = 0;
"1" = 0;
"10" = 0;
"11" = 0;
"2" = 0;
"3" = 0;
"4" = 0;
"5" = 0;
"6" = 0;
"7" = 0;
"8" = 0;
"9" = 0;
};
};
width = 517;
},
{
background = {
guides = (
{
angle = 258.6901;
pos = (-6,0);
},
{
angle = 260.5377;
pos = (-6,24);
}
);
shapes = (
{
closed = 1;
nodes = (
(-6,0,l),
(3,45,l)
);
},
{
closed = 1;
nodes = (
(2,0,l),
(13,44,l)
);
},
{
closed = 1;
nodes = (
(-10,0,l),
(-2,48,l)
);
}
);
};
layerId = m004;
shapes = (
{
closed = 1;
nodes = (
(468,0,l),
(468,42,l),
(144,42,l),
(144,700,l),
(96,700,l),
(96,0,l)
);
}
);
userData = {
com.hugojourdan.ColorFlow = {
"0" = 0;
"1" = 0;
"10" = 0;
"11" = 0;
"2" = 0;
"3" = 0;
"4" = 0;
"5" = 0;
"6" = 0;
"7" = 0;
"8" = 0;
"9" = 0;
};
};
width = 507;
},
{
layerId = m005;
shapes = (
{
closed = 1;
nodes = (
(483,0,l),
(483,83,l),
(184,83,l),
(184,700,l),
(86,700,l),
(86,0,l)
);
}
);
userData = {
com.hugojourdan.ColorFlow = {
"0" = 0;
"1" = 0;
"10" = 0;
"11" = 0;
"2" = 0;
"3" = 0;
"4" = 0;
"5" = 0;
"6" = 0;
"7" = 0;
"8" = 0;
"9" = 0;
};
};
width = 518;
},
{
layerId = m006;
shapes = (
{
closed = 1;
nodes = (
(494,0,l),
(494,143,l),
(236,143,l),
(236,700,l),
(58,700,l),
(58,0,l)
);
}
);
userData = {
com.hugojourdan.ColorFlow = {
"0" = 0;
"1" = 0;
"10" = 0;
"11" = 0;
"2" = 0;
"3" = 0;
"4" = 0;
"5" = 0;
"6" = 0;
"7" = 0;
"8" = 0;
"9" = 0;
};
};
width = 518;
},
{
layerId = "4E5694F4-F64E-4331-B998-78BE273203C7";
shapes = (
{
closed = 1;
nodes = (
(428,0,l),
(435,42,l),
(111,42,l),
(221,700,l),
(173,700,l),
(56,0,l)
);
}
);
userData = {
com.hugojourdan.ColorFlow = {
"0" = 0;
"1" = 0;
"10" = 0;
"11" = 0;
"2" = 0;
"3" = 0;
"4" = 0;
"5" = 0;
"6" = 0;
"7" = 0;
"8" = 0;
"9" = 0;
};
};
width = 507;
},
{
background = {
shapes = (
{
pos = (-2,0);
ref = I;
}
);
};
layerId = "DF4E5521-40BA-460F-874A-364F4D14AAD8";
shapes = (
{
closed = 1;
nodes = (
(442,0,l),
(456,83,l),
(157,83,l),
(260,700,l),
(162,700,l),
(45,0,l)
);
}
);
userData = {
com.hugojourdan.ColorFlow = {
"0" = 0;
"1" = 0;
"10" = 0;
"11" = 0;
"2" = 0;
"3" = 0;
"4" = 0;
"5" = 0;
"6" = 0;
"7" = 0;
"8" = 0;
"9" = 0;
};
};
width = 518;
},
{
background = {
shapes = (
{
pos = (7,0);
ref = I;
}
);
};
layerId = "C6DE9ED7-34B3-46A1-8A00-A72C4A5E93A3";
shapes = (
{
closed = 1;
nodes = (
(452,0,l),
(476,143,l),
(218,143,l),
(311,700,l),
(133,700,l),
(16,0,l)
);
}
);
userData = {
com.hugojourdan.ColorFlow = {
"0" = 0;
"1" = 0;
"10" = 0;
"11" = 0;
"2" = 0;
"3" = 0;
"4" = 0;
"5" = 0;
"6" = 0;
"7" = 0;
"8" = 0;
"9" = 0;
};
};
width = 518;
},
{
layerId = "D2741A44-CB8E-4434-9CC9-735A9A127F4C";
shapes = (
{
closed = 1;
nodes = (
(428,0,l),
(433,32,l),
(109,32,l),
(221,700,l),
(173,700,l),
(56,0,l)
);
}
);
userData = {
com.hugojourdan.ColorFlow = {
"0" = 0;
"1" = 0;
"10" = 0;
"11" = 0;
"2" = 0;
"3" = 0;
"4" = 0;
"5" = 0;
"6" = 0;
"7" = 0;
"8" = 0;
"9" = 0;
};
};
width = 507;
},
{
layerId = "0B63B416-D10E-4459-8DAA-360BF3D1BFD2";
shapes = (
{
closed = 1;
nodes = (
(441,0,l),
(450,52,l),
(151,52,l),
(259,700,l),
(162,700,l),
(45,0,l)
);
}
);
userData = {
com.hugojourdan.ColorFlow = {
"0" = 0;
"1" = 0;
"10" = 0;
"11" = 0;
"2" = 0;
"3" = 0;
"4" = 0;
"5" = 0;
"6" = 0;
"7" = 0;
"8" = 0;
"9" = 0;
};
};
width = 517;
},
{
layerId = "EE3858F4-A475-4EBA-A8F4-31CE9F38567C";
shapes = (
{
closed = 1;
nodes = (
(452,0,l),
(467,90,l),
(209,90,l),
(311,700,l),
(133,700,l),
(16,0,l)
);
}
);
userData = {
com.hugojourdan.ColorFlow = {
"0" = 0;
"1" = 0;
"10" = 0;
"11" = 0;
"2" = 0;
"3" = 0;
"4" = 0;
"5" = 0;
"6" = 0;
"7" = 0;
"8" = 0;
"9" = 0;
};
};
width = 518;
}
);
metricLeft = "=H";
metricRight = "=H*0.41";
note = L;
unicode = 76;
},
{
glyphname = M;
layers = (
{
layerId = m01;
shapes = (
{
closed = 1;
nodes = (
(133,0,l),
(133,673,l),
(115,669,l),
(403,0,l),
(433,0,l),
(717,671,l),
(699,675,l),
(699,0,l),
(748,0,l),
(748,700,l),
(690,700,l),
(408,36,l),
(444,36,l),
(157,700,l),
(96,700,l),
(96,0,l)
);
}
);
userData = {
com.hugojourdan.ColorFlow = {
"0" = 0;
"1" = 0;
"10" = 0;
"11" = 0;
"2" = 0;
"3" = 0;
"4" = 0;
"5" = 0;
"6" = 0;
"7" = 0;
"8" = 0;
"9" = 0;
};
};
width = 844;
},
{
layerId = "FF73925E-1E34-445B-881D-5A7CAAA8E8BE";
shapes = (
{
closed = 1;
nodes = (
(152,0,l),
(152,547,l),
(137,544,l),
(327,0,l),
(465,0,l),
(646,549,l),
(632,551,l),
(632,0,l),
(808,0,l),
(808,700,l),
(605,700,l),
(425,155,l),
(445,155,l),
(256,700,l),
(58,700,l),
(58,0,l)
);
}
);
userData = {
com.hugojourdan.ColorFlow = {
"0" = 0;
"1" = 0;
"10" = 0;
"11" = 0;
"2" = 0;
"3" = 0;
"4" = 0;
"5" = 0;
"6" = 0;
"7" = 0;
"8" = 0;
"9" = 0;
};
};
width = 866;
},
{
layerId = "BF6BA5B2-0556-42F4-A103-614BEBF16A1A";
shapes = (
{
closed = 1;
nodes = (
(146,0,l),
(146,624,l),
(129,621,l),
(379,0,l),
(445,0,l),
(689,628,l),
(673,631,l),
(673,0,l),
(771,0,l),
(771,700,l),
(653,700,l),
(416,78,l),
(449,78,l),
(201,700,l),
(86,700,l),
(86,0,l)
);
}
);
userData = {
com.hugojourdan.ColorFlow = {
"0" = 0;
"1" = 0;
"10" = 0;
"11" = 0;
"2" = 0;
"3" = 0;
"4" = 0;
"5" = 0;
"6" = 0;
"7" = 0;
"8" = 0;
"9" = 0;
};
};
width = 857;
},
{
guides = (
{
angle = -67.6543;
pos = (266,335);
},
{
angle = -67.654;
pos = (301,362);
}
);
layerId = m004;
shapes = (
{
closed = 1;
nodes = (
(144,0,l),
(144,673,l),
(128,669,l),
(403,0,l),
(442,0,l),
(717,669,l),
(701,673,l),
(701,0,l),
(748,0,l),
(748,700,l),
(683,700,l),
(405,24,l),
(440,24,l),
(162,700,l),
(96,700,l),
(96,0,l)
);
}
);
userData = {
com.hugojourdan.ColorFlow = {
"0" = 0;
"1" = 0;
"10" = 0;
"11" = 0;
"2" = 0;
"3" = 0;
"4" = 0;
"5" = 0;
"6" = 0;
"7" = 0;
"8" = 0;
"9" = 0;
};
};
width = 844;
},
{
guides = (
{
angle = 109.9686;
pos = (331,384);
},
{
angle = 109.969;
pos = (279,293);
}
);
layerId = m005;
shapes = (
{
closed = 1;
nodes = (
(184,0,l),
(184,635,l),
(167,621,l),
(382,0,l),
(475,0,l),
(689,618,l),
(675,636,l),
(675,0,l),
(771,0,l),
(771,700,l),
(626,700,l),
(407,67,l),
(453,67,l),
(233,700,l),
(86,700,l),
(86,0,l)
);
}
);
userData = {
com.hugojourdan.ColorFlow = {
"0" = 0;
"1" = 0;
"10" = 0;
"11" = 0;
"2" = 0;
"3" = 0;
"4" = 0;
"5" = 0;
"6" = 0;
"7" = 0;
"8" = 0;
"9" = 0;
};
};
width = 857;
},
{
guides = (
{
angle = -74.994;
pos = (310,263);
},
{
angle = -74.994;
pos = (416,413);
}
);
layerId = m006;
shapes = (
{
closed = 1;
nodes = (
(236,0,l),
(236,570,l),
(215,564,l),
(367,0,l),
(516,0,l),
(668,564,l),
(647,570,l),
(647,0,l),
(823,0,l),
(823,700,l),
(561,700,l),
(407,126,l),
(478,126,l),
(324,700,l),
(58,700,l),
(58,0,l)
);
}
);
userData = {
com.hugojourdan.ColorFlow = {
"0" = 0;
"1" = 0;
"10" = 0;
"11" = 0;
"2" = 0;
"3" = 0;
"4" = 0;
"5" = 0;
"6" = 0;
"7" = 0;
"8" = 0;
"9" = 0;
};
};
width = 881;
},
{
guides = (
{
angle = -67.6543;
pos = (257,335);
},
{
angle = -67.654;
pos = (292,362);
}
);
layerId = "4E5694F4-F64E-4331-B998-78BE273203C7";
shapes = (
{
closed = 1;
nodes = (
(104,0,l),
(217,673,l),
(200,669,l),
(363,0,l),
(402,0,l),
(789,669,l),
(774,673,l),
(661,0,l),
(708,0,l),
(825,700,l),
(758,700,l),
(367,24,l),
(402,24,l),
(237,700,l),
(173,700,l),
(56,0,l)
);
}
);
userData = {
com.hugojourdan.ColorFlow = {
"0" = 0;
"1" = 0;
"10" = 0;
"11" = 0;
"2" = 0;
"3" = 0;
"4" = 0;
"5" = 0;
"6" = 0;
"7" = 0;
"8" = 0;
"9" = 0;
};
};
width = 844;
},
{
guides = (
{
angle = 109.9686;
pos = (321,384);
},
{
angle = 109.969;
pos = (269,293);
}
);
layerId = "DF4E5521-40BA-460F-874A-364F4D14AAD8";
shapes = (
{
closed = 1;
nodes = (
(143,0,l),
(244,606,l),
(236,590,l),
(341,0,l),
(434,0,l),
(737,590,l),
(735,606,l),
(634,0,l),
(730,0,l),
(847,700,l),
(699,700,l),
(374,67,l),
(420,67,l),
(306,700,l),
(162,700,l),
(45,0,l)
);
}
);
userData = {
com.hugojourdan.ColorFlow = {
"0" = 0;
"1" = 0;
"10" = 0;
"11" = 0;
"2" = 0;
"3" = 0;
"4" = 0;
"5" = 0;
"6" = 0;
"7" = 0;
"8" = 0;
"9" = 0;
};
};
width = 857;
},
{
layerId = "C6DE9ED7-34B3-46A1-8A00-A72C4A5E93A3";
shapes = (
{
closed = 1;
nodes = (
(194,0,l),
(285,541,l),
(272,526,l),
(325,0,l),
(474,0,l),
(703,526,l),
(696,541,l),
(605,0,l),
(781,0,l),
(898,700,l),
(636,700,l),
(386,126,l),
(457,126,l),
(399,700,l),
(133,700,l),
(16,0,l)
);
}
);
userData = {
com.hugojourdan.ColorFlow = {
"0" = 0;
"1" = 0;
"10" = 0;
"11" = 0;
"2" = 0;
"3" = 0;
"4" = 0;
"5" = 0;
"6" = 0;
"7" = 0;
"8" = 0;
"9" = 0;
};
};
width = 881;
},
{
layerId = "D2741A44-CB8E-4434-9CC9-735A9A127F4C";
shapes = (
{
closed = 1;
nodes = (
(93,0,l),
(206,673,l),
(186,668,l),
(363,0,l),
(393,0,l),
(789,671,l),
(772,675,l),
(659,0,l),
(708,0,l),
(825,700,l),
(767,700,l),
(374,36,l),
(410,36,l),
(234,700,l),
(173,700,l),
(56,0,l)
);
}
);
userData = {
com.hugojourdan.ColorFlow = {
"0" = 0;
"1" = 0;
"10" = 0;
"11" = 0;
"2" = 0;
"3" = 0;
"4" = 0;
"5" = 0;
"6" = 0;
"7" = 0;
"8" = 0;
"9" = 0;
};
};
width = 844;
},
{
layerId = "0B63B416-D10E-4459-8DAA-360BF3D1BFD2";
shapes = (
{
closed = 1;
nodes = (
(105,0,l),
(209,624,l),
(192,621,l),
(338,0,l),
(404,0,l),
(753,628,l),
(738,631,l),
(632,0,l),
(730,0,l),
(847,700,l),
(729,700,l),
(388,78,l),
(421,78,l),
(277,700,l),
(162,700,l),
(45,0,l)
);
}
);
userData = {
com.hugojourdan.ColorFlow = {
"0" = 0;
"1" = 0;
"10" = 0;
"11" = 0;
"2" = 0;
"3" = 0;
"4" = 0;
"5" = 0;
"6" = 0;
"7" = 0;
"8" = 0;
"9" = 0;
};
};
width = 857;
},
{
layerId = "EE3858F4-A475-4EBA-A8F4-31CE9F38567C";
shapes = (
{
closed = 1;
nodes = (
(110,0,l),
(202,547,l),
(189,544,l),
(285,0,l),
(423,0,l),
(696,549,l),
(682,551,l),
(590,0,l),
(766,0,l),
(883,700,l),
(680,700,l),
(409,155,l),
(426,155,l),
(331,700,l),
(133,700,l),
(16,0,l)
);
}
);
userData = {
com.hugojourdan.ColorFlow = {
"0" = 0;
"1" = 0;
"10" = 0;
"11" = 0;
"2" = 0;
"3" = 0;
"4" = 0;
"5" = 0;
"6" = 0;
"7" = 0;
"8" = 0;
"9" = 0;
};
};
width = 866;
},
{
associatedMasterId = m006;
guides = (
{
angle = -74.085;
pos = (290,249);
},
{
angle = -74.085;
pos = (348,435);
}
);
layerId = "A8486F25-8BB5-4986-BB93-E7BA9262C45B";
name = "2 Jul 23 10.04 PM";
shapes = (
{
closed = 1;
nodes = (
(236,0,l),
(236,541,l),
(232,526,l),
(367,0,l),
(490,0,l),
(625,526,l),
(621,541,l),
(621,0,l),
(797,0,l),
(797,700,l),
(530,700,l),
(383,126,l),
(474,126,l),
(329,700,l),
(58,700,l),
(58,0,l)
);
}
);
userData = {
com.hugojourdan.ColorFlow = {
"0" = 0;
"1" = 0;
"10" = 0;
"11" = 0;
"2" = 0;
"3" = 0;
"4" = 0;
"5" = 0;
"6" = 0;
"7" = 0;
"8" = 0;
"9" = 0;
};
};
width = 855;
}
);
metricLeft = "=H";
metricRight = "=|";
note = M;
unicode = 77;
},
{
glyphname = N;
layers = (
{
anchors = (
{
name = top;
pos = (327,700);
}
);
layerId = m01;
shapes = (
{
closed = 1;
nodes = (
(133,0,l),
(133,650,l),
(107,643,l),
(526,0,l),
(558,0,l),
(558,700,l),
(521,700,l),
(521,55,l),
(543,62,l),
(126,700,l),
(96,700,l),
(96,0,l)
);
}
);
userData = {
com.hugojourdan.ColorFlow = {
"0" = 0;
"1" = 0;
"10" = 0;
"11" = 0;
"2" = 0;
"3" = 0;
"4" = 0;
"5" = 0;
"6" = 0;
"7" = 0;
"8" = 0;
"9" = 0;
};
};
width = 654;
},
{
anchors = (
{
name = top;
pos = (324,700);
}
);
layerId = "FF73925E-1E34-445B-881D-5A7CAAA8E8BE";
shapes = (
{
closed = 1;
nodes = (
(152,0,l),
(152,495,l),
(123,488,l),
(450,0,l),
(592,0,l),
(592,700,l),
(498,700,l),
(498,213,l),
(519,220,l),
(197,700,l),
(58,700,l),
(58,0,l)
);
}
);
userData = {
com.hugojourdan.ColorFlow = {
"0" = 0;
"1" = 0;
"10" = 0;
"11" = 0;
"2" = 0;
"3" = 0;
"4" = 0;
"5" = 0;
"6" = 0;
"7" = 0;
"8" = 0;
"9" = 0;
};
};
width = 650;
},
{
anchors = (
{
name = top;
pos = (331,700);
}
);
layerId = "BF6BA5B2-0556-42F4-A103-614BEBF16A1A";
shapes = (
{
closed = 1;
nodes = (
(145,0,l),
(145,590,l),
(119,583,l),
(502,0,l),
(576,0,l),
(576,700,l),
(517,700,l),
(517,115,l),
(539,122,l),
(158,700,l),
(86,700,l),
(86,0,l)
);
}
);
userData = {
com.hugojourdan.ColorFlow = {
"0" = 0;
"1" = 0;
"10" = 0;
"11" = 0;
"2" = 0;
"3" = 0;
"4" = 0;
"5" = 0;
"6" = 0;
"7" = 0;
"8" = 0;
"9" = 0;
};
};
width = 662;
},
{
anchors = (
{
name = top;
pos = (322,700);
}
);
layerId = m004;
shapes = (
{
closed = 1;
nodes = (
(144,0,l),
(144,650,l),
(128,643,l),
(502,0,l),
(551,0,l),
(551,700,l),
(503,700,l),
(503,50,l),
(518,57,l),
(144,700,l),
(96,700,l),
(96,0,l)
);
}
);
userData = {
com.hugojourdan.ColorFlow = {
"0" = 0;
"1" = 0;
"10" = 0;
"11" = 0;
"2" = 0;
"3" = 0;
"4" = 0;
"5" = 0;
"6" = 0;
"7" = 0;
"8" = 0;
"9" = 0;
};
};
width = 647;
},
{
anchors = (
{
name = top;
pos = (348,700);
}
);
guides = (
{
angle = -59.6032;
pos = (320,292);
},
{
angle = -59.603;
pos = (186,700);
}
);
layerId = m005;
shapes = (
{
closed = 1;
nodes = (
(184,0,l),
(184,590,l),
(151,583,l),
(493,0,l),
(593,0,l),
(593,700,l),
(495,700,l),
(495,116,l),
(522,124,l),
(184,700,l),
(86,700,l),
(86,0,l)
);
}
);
userData = {
com.hugojourdan.ColorFlow = {
"0" = 0;
"1" = 0;
"10" = 0;
"11" = 0;
"2" = 0;
"3" = 0;
"4" = 0;
"5" = 0;
"6" = 0;
"7" = 0;
"8" = 0;
"9" = 0;
};
};
width = 679;
},
{
anchors = (
{
name = top;
pos = (352,700);
}
);
layerId = m006;
shapes = (
{
closed = 1;
nodes = (
(235,0,l),
(235,530,l),
(194,522,l),
(433,0,l),
(646,0,l),
(646,700,l),
(469,700,l),
(469,178,l),
(502,186,l),
(268,700,l),
(58,700,l),
(58,0,l)
);
}
);
userData = {
com.hugojourdan.ColorFlow = {
"0" = 0;
"1" = 0;
"10" = 0;
"11" = 0;
"2" = 0;
"3" = 0;
"4" = 0;
"5" = 0;
"6" = 0;
"7" = 0;
"8" = 0;
"9" = 0;
};
};
width = 704;
},
{
anchors = (
{
name = top;
pos = (401,700);
}
);
layerId = "4E5694F4-F64E-4331-B998-78BE273203C7";
shapes = (
{
closed = 1;
nodes = (
(104,0,l),
(213,650,l),
(199,643,l),
(462,0,l),
(511,0,l),
(628,700,l),
(580,700,l),
(472,55,l),
(485,57,l),
(221,700,l),
(173,700,l),
(56,0,l)
);
}
);
userData = {
com.hugojourdan.ColorFlow = {
"0" = 0;
"1" = 0;
"10" = 0;
"11" = 0;
"2" = 0;
"3" = 0;
"4" = 0;
"5" = 0;
"6" = 0;
"7" = 0;
"8" = 0;
"9" = 0;
};
};
width = 647;
},
{
anchors = (
{
name = top;
pos = (415,700);
}
);
guides = (
{
angle = -59.6032;
pos = (309,292);
},
{
angle = -59.603;
pos = (175,700);
}
);
layerId = "DF4E5521-40BA-460F-874A-364F4D14AAD8";
shapes = (
{
closed = 1;
nodes = (
(143,0,l),
(242,590,l),
(212,583,l),
(452,0,l),
(552,0,l),
(669,700,l),
(571,700,l),
(473,116,l),
(497,124,l),
(260,700,l),
(162,700,l),
(45,0,l)
);
}
);
userData = {
com.hugojourdan.ColorFlow = {
"0" = 0;
"1" = 0;
"10" = 0;
"11" = 0;
"2" = 0;
"3" = 0;
"4" = 0;
"5" = 0;
"6" = 0;
"7" = 0;
"8" = 0;
"9" = 0;
};
};
width = 679;
},
{
anchors = (
{
name = top;
pos = (426,700);
}
);
layerId = "C6DE9ED7-34B3-46A1-8A00-A72C4A5E93A3";
shapes = (
{
closed = 1;
nodes = (
(193,0,l),
(282,530,l),
(239,522,l),
(391,0,l),
(604,0,l),
(721,700,l),
(544,700,l),
(457,178,l),
(491,186,l),
(343,700,l),
(133,700,l),
(16,0,l)
);
}
);
userData = {
com.hugojourdan.ColorFlow = {
"0" = 0;
"1" = 0;
"10" = 0;
"11" = 0;
"2" = 0;
"3" = 0;
"4" = 0;
"5" = 0;
"6" = 0;
"7" = 0;
"8" = 0;
"9" = 0;
};
};
width = 704;
},
{
anchors = (
{
name = top;
pos = (404,700);
}
);
layerId = "D2741A44-CB8E-4434-9CC9-735A9A127F4C";
shapes = (
{
closed = 1;
nodes = (
(93,0,l),
(202,650,l),
(175,643,l),
(486,0,l),
(518,0,l),
(635,700,l),
(598,700,l),
(490,55,l),
(513,62,l),
(203,700,l),
(173,700,l),
(56,0,l)
);
}
);
userData = {
com.hugojourdan.ColorFlow = {
"0" = 0;
"1" = 0;
"10" = 0;
"11" = 0;
"2" = 0;
"3" = 0;
"4" = 0;
"5" = 0;
"6" = 0;
"7" = 0;
"8" = 0;
"9" = 0;
};
};
width = 654;
},
{
anchors = (
{
name = top;
pos = (407,700);
}
);
layerId = "0B63B416-D10E-4459-8DAA-360BF3D1BFD2";
shapes = (
{
closed = 1;
nodes = (
(104,0,l),
(203,590,l),
(176,583,l),
(461,0,l),
(535,0,l),
(652,700,l),
(593,700,l),
(495,115,l),
(518,122,l),
(234,700,l),
(162,700,l),
(45,0,l)
);
}
);
userData = {
com.hugojourdan.ColorFlow = {
"0" = 0;
"1" = 0;
"10" = 0;
"11" = 0;
"2" = 0;
"3" = 0;
"4" = 0;
"5" = 0;
"6" = 0;
"7" = 0;
"8" = 0;
"9" = 0;
};
};
width = 662;
},
{
anchors = (
{
name = top;
pos = (399,700);
}
);
layerId = "EE3858F4-A475-4EBA-A8F4-31CE9F38567C";
shapes = (
{
closed = 1;
nodes = (
(110,0,l),
(193,495,l),
(163,488,l),
(408,0,l),
(550,0,l),
(667,700,l),
(573,700,l),
(492,213,l),
(514,220,l),
(272,700,l),
(133,700,l),
(16,0,l)
);
}
);
userData = {
com.hugojourdan.ColorFlow = {
"0" = 0;
"1" = 0;
"10" = 0;
"11" = 0;
"2" = 0;
"3" = 0;
"4" = 0;
"5" = 0;
"6" = 0;
"7" = 0;
"8" = 0;
"9" = 0;
};
};
width = 650;
}
);
metricLeft = "=H";
metricRight = "=|";
note = N;
unicode = 78;
},
{
glyphname = O;
layers = (
{
anchors = (
{
name = center;
pos = (342,350);
},
{
name = ogonek;
pos = (419,0);
},
{
name = top;
pos = (342,700);
}
);
layerId = m01;
metricLeft = "=H*0.78";
shapes = (
{
closed = 1;
nodes = (
(513,-10,o),
(609,119,o),
(609,350,cs),
(609,581,o),
(513,710,o),
(342,710,cs),
(171,710,o),
(75,581,o),
(75,350,cs),
(75,119,o),
(171,-10,o),
(342,-10,cs)
);
},
{
closed = 1;
nodes = (
(205,22,o),
(128,140,o),
(128,350,cs),
(128,560,o),
(205,678,o),
(342,678,cs),
(479,678,o),
(556,560,o),
(556,350,cs),
(556,140,o),
(479,22,o),
(342,22,cs)
);
}
);
userData = {
com.hugojourdan.ColorFlow = {
"0" = 0;
"1" = 0;
"10" = 0;
"11" = 0;
"2" = 0;
"3" = 0;
"4" = 0;
"5" = 0;
"6" = 0;
"7" = 0;
"8" = 0;
"9" = 0;
};
};
width = 684;
},
{
anchors = (
{
name = center;
pos = (345,350);
},
{
name = ogonek;
pos = (424,0);
},
{
name = top;
pos = (345,700);
}
);
layerId = "FF73925E-1E34-445B-881D-5A7CAAA8E8BE";
metricLeft = "=H*0.8";
shapes = (
{
closed = 1;
nodes = (
(546,-10,o),
(644,109,o),
(644,350,cs),
(644,591,o),
(546,710,o),
(346,710,cs),
(146,710,o),
(46,590,o),
(46,351,cs),
(46,111,o),
(147,-10,o),
(347,-10,cs)
);
},
{
closed = 1;
nodes = (
(271,80,o),
(234,169,o),
(234,350,cs),
(234,531,o),
(271,620,o),
(346,620,cs),
(420,620,o),
(456,532,o),
(456,350,cs),
(456,169,o),
(420,80,o),
(346,80,cs)
);
}
);
userData = {
com.hugojourdan.ColorFlow = {
"0" = 0;
"1" = 0;
"10" = 0;
"11" = 0;
"2" = 0;
"3" = 0;
"4" = 0;
"5" = 0;
"6" = 0;
"7" = 0;
"8" = 0;
"9" = 0;
};
};
width = 690;
},
{
anchors = (
{
name = center;
pos = (344,350);
},
{
name = ogonek;
pos = (421,0);
},
{
name = top;
pos = (344,700);
}
);
layerId = "BF6BA5B2-0556-42F4-A103-614BEBF16A1A";
metricLeft = "=H*0.74";
shapes = (
{
closed = 1;
nodes = (
(527,-10,o),
(624,111,o),
(624,350,cs),
(624,589,o),
(527,710,o),
(344,710,cs),
(161,710,o),
(64,585,o),
(64,350,cs),
(64,115,o),
(161,-10,o),
(344,-10,cs)
);
},
{
closed = 1;
nodes = (
(226,38,o),
(169,139,o),
(169,351,cs),
(169,562,o),
(226,662,o),
(344,662,cs),
(461,662,o),
(519,560,o),
(519,351,cs),
(519,141,o),
(461,38,o),
(344,38,cs)
);
}
);
userData = {
com.hugojourdan.ColorFlow = {
"0" = 0;
"1" = 0;
"10" = 0;
"11" = 0;
"2" = 0;
"3" = 0;
"4" = 0;
"5" = 0;
"6" = 0;
"7" = 0;
"8" = 0;
"9" = 0;
};
};
width = 688;
},
{
anchors = (
{
name = center;
pos = (342,350);
},
{
name = ogonek;
pos = (419,0);
},
{
name = top;
pos = (342,700);
}
);
layerId = m004;
metricLeft = "=H*0.78";
shapes = (
{
closed = 1;
nodes = (
(513,-10,o),
(609,119,o),
(609,350,cs),
(609,581,o),
(513,710,o),
(342,710,cs),
(171,710,o),
(75,581,o),
(75,350,cs),
(75,119,o),
(171,-10,o),
(342,-10,cs)
);
},
{
closed = 1;
nodes = (
(205,33,o),
(128,148,o),
(128,350,cs),
(128,552,o),
(205,667,o),
(342,667,cs),
(479,667,o),
(556,552,o),
(556,350,cs),
(556,148,o),
(479,33,o),
(342,33,cs)
);
}
);
userData = {
com.hugojourdan.ColorFlow = {
"0" = 0;
"1" = 0;
"10" = 0;
"11" = 0;
"2" = 0;
"3" = 0;
"4" = 0;
"5" = 0;
"6" = 0;
"7" = 0;
"8" = 0;
"9" = 0;
};
};
width = 684;
},
{
anchors = (
{
name = center;
pos = (344,350);
},
{
name = ogonek;
pos = (421,0);
},
{
name = top;
pos = (344,700);
}
);
layerId = m005;
metricLeft = "=H*0.74";
shapes = (
{
closed = 1;
nodes = (
(526,-10,o),
(624,116,o),
(624,350,cs),
(624,585,o),
(526,710,o),
(344,710,cs),
(160,710,o),
(64,585,o),
(64,350,cs),
(64,115,o),
(161,-10,o),
(344,-10,cs)
);
},
{
closed = 1;
nodes = (
(230,75,o),
(169,171,o),
(169,350,cs),
(169,530,o),
(230,626,o),
(344,626,cs),
(457,626,o),
(519,530,o),
(519,350,cs),
(519,171,o),
(457,75,o),
(344,75,cs)
);
}
);
userData = {
com.hugojourdan.ColorFlow = {
"0" = 0;
"1" = 0;
"10" = 0;
"11" = 0;
"2" = 0;
"3" = 0;
"4" = 0;
"5" = 0;
"6" = 0;
"7" = 0;
"8" = 0;
"9" = 0;
};
};
width = 688;
},
{
anchors = (
{
name = center;
pos = (346,350);
},
{
name = ogonek;
pos = (423,0);
},
{
name = top;
pos = (346,700);
}
);
layerId = m006;
metricLeft = "=H*0.8";
shapes = (
{
closed = 1;
nodes = (
(546,-10,o),
(644,110,o),
(644,351,cs),
(644,592,o),
(546,710,o),
(346,710,cs),
(146,710,o),
(46,591,o),
(46,351,cs),
(46,111,o),
(146,-10,o),
(346,-10,cs)
);
},
{
closed = 1;
nodes = (
(271,138,o),
(234,209,o),
(234,351,cs),
(234,493,o),
(271,562,o),
(346,562,cs),
(420,562,o),
(456,493,o),
(456,351,cs),
(456,207,o),
(420,138,o),
(346,138,cs)
);
}
);
userData = {
com.hugojourdan.ColorFlow = {
"0" = 0;
"1" = 0;
"10" = 0;
"11" = 0;
"2" = 0;
"3" = 0;
"4" = 0;
"5" = 0;
"6" = 0;
"7" = 0;
"8" = 0;
"9" = 0;
};
};
width = 690;
},
{
anchors = (
{
name = center;
pos = (360,350);
},
{
name = ogonek;
pos = (400,0);
},
{
name = top;
pos = (419,700);
}
);
guides = (
{
angle = 80.5;
pos = (75,239);
},
{
angle = 80.5;
pos = (609,239);
},
{
angle = 80.5;
pos = (128,239);
},
{
angle = 80.5;
pos = (556,239);
}
);
layerId = "4E5694F4-F64E-4331-B998-78BE273203C7";
metricLeft = "=H*0.78";
shapes = (
{
closed = 1;
nodes = (
(563,-10,o),
(633,271,o),
(633,439,cs),
(633,612,o),
(550,710,o),
(394,710,cs),
(158,710,o),
(88,429,o),
(88,261,cs),
(88,88,o),
(171,-10,o),
(327,-10,cs)
);
},
{
closed = 1;
nodes = (
(204,33,o),
(141,116,o),
(141,263,cs),
(141,410,o),
(198,667,o),
(393,667,cs),
(517,667,o),
(580,584,o),
(580,437,cs),
(580,292,o),
(523,33,o),
(328,33,cs)
);
}
);
userData = {
com.hugojourdan.ColorFlow = {
"0" = 0;
"1" = 0;
"10" = 0;
"11" = 0;
"2" = 0;
"3" = 0;
"4" = 0;
"5" = 0;
"6" = 0;
"7" = 0;
"8" = 0;
"9" = 0;
};
};
width = 684;
},
{
anchors = (
{
name = center;
pos = (362,350);
},
{
name = ogonek;
pos = (400,0);
},
{
name = top;
pos = (421,700);
}
);
background = {
shapes = (
{
closed = 1;
nodes = (
(312,-10,o),
(322,-10,o),
(332,-10,cs),
(496,-10,o),
(603,107,o),
(639,327,cs),
(646,367,o),
(649,404,o),
(649,438,cs),
(649,603,o),
(571,697,o),
(422,709,cs),
(412,710,o),
(401,710,o),
(391,710,cs),
(226,710,o),
(121,594,o),
(85,373,cs),
(79,333,o),
(75,296,o),
(75,262,cs),
(75,97,o),
(152,3,o),
(302,-9,cs)
);
},
{
closed = 1;
nodes = (
(232,75,o),
(180,142,o),
(180,266,cs),
(180,295,o),
(183,328,o),
(189,364,cs),
(218,536,o),
(288,626,o),
(393,626,cs),
(490,626,o),
(543,559,o),
(543,434,cs),
(543,405,o),
(540,372,o),
(534,336,cs),
(506,165,o),
(435,75,o),
(331,75,cs)
);
}
);
};
guides = (
{
angle = 80.5;
pos = (64,245);
},
{
angle = 80.5;
pos = (624,245);
},
{
angle = 80.5;
pos = (169,245);
},
{
angle = 80.5;
pos = (519,245);
}
);
layerId = "DF4E5521-40BA-460F-874A-364F4D14AAD8";
metricLeft = "=H*0.74";
shapes = (
{
closed = 1;
nodes = (
(580,-10,o),
(647,269,o),
(647,438,cs),
(647,615,o),
(560,710,o),
(392,710,cs),
(138,710,o),
(77,421,o),
(77,262,cs),
(77,82,o),
(169,-10,o),
(332,-10,cs)
);
},
{
closed = 1;
nodes = (
(233,74,o),
(182,141,o),
(182,266,cs),
(182,388,o),
(229,626,o),
(393,626,cs),
(490,626,o),
(542,559,o),
(542,434,cs),
(542,312,o),
(496,74,o),
(331,74,cs)
);
}
);
userData = {
com.hugojourdan.ColorFlow = {
"0" = 0;
"1" = 0;
"10" = 0;
"11" = 0;
"2" = 0;
"3" = 0;
"4" = 0;
"5" = 0;
"6" = 0;
"7" = 0;
"8" = 0;
"9" = 0;
};
};
width = 688;
},
{
anchors = (
{
name = center;
pos = (362,350);
},
{
name = ogonek;
pos = (404,0);
},
{
name = top;
pos = (421,700);
}
);
background = {
shapes = (
{
closed = 1;
nodes = (
(179,-10,o),
(339,-10,cs),
(514,-10,o),
(620,102,o),
(657,326,cs),
(664,367,o),
(667,405,o),
(667,439,cs),
(667,638,o),
(546,710,o),
(386,710,cs),
(210,710,o),
(104,599,o),
(67,376,cs),
(60,336,o),
(57,299,o),
(57,265,cs),
(57,65,o)
);
},
{
closed = 1;
nodes = (
(275,138,o),
(244,182,o),
(244,270,cs),
(244,297,o),
(246,326,o),
(252,360,cs),
(275,497,o),
(320,562,o),
(390,562,cs),
(450,562,o),
(480,520,o),
(480,433,cs),
(480,407,o),
(478,376,o),
(472,342,cs),
(449,203,o),
(405,138,o),
(337,138,cs)
);
}
);
};
guides = (
{
angle = 80.5;
pos = (46,251);
},
{
angle = 80.5;
pos = (644,251);
},
{
angle = 80.5;
pos = (234,251);
},
{
angle = 80.5;
pos = (456,251);
}
);
layerId = "C6DE9ED7-34B3-46A1-8A00-A72C4A5E93A3";
metricLeft = "=H*0.8";
shapes = (
{
closed = 1;
nodes = (
(610,-10,o),
(665,277,o),
(665,435,cs),
(665,635,o),
(552,710,o),
(384,710,cs),
(113,710,o),
(58,423,o),
(58,265,cs),
(58,65,o),
(175,-10,o),
(339,-10,cs)
);
},
{
closed = 1;
nodes = (
(275,138,o),
(244,182,o),
(244,270,cs),
(244,356,o),
(272,562,o),
(387,562,cs),
(449,562,o),
(479,518,o),
(479,430,cs),
(479,344,o),
(452,138,o),
(337,138,cs)
);
}
);
userData = {
com.hugojourdan.ColorFlow = {
"0" = 0;
"1" = 0;
"10" = 0;
"11" = 0;
"2" = 0;
"3" = 0;
"4" = 0;
"5" = 0;
"6" = 0;
"7" = 0;
"8" = 0;
"9" = 0;
};
};
width = 690;
},
{
anchors = (
{
name = center;
pos = (360,350);
},
{
name = ogonek;
pos = (400,0);
},
{
name = top;
pos = (419,700);
}
);
background = {
shapes = (
{
closed = 1;
nodes = (
(483,-10,o),
(589,110,o),
(625,328,cs),
(632,368,o),
(635,405,o),
(635,439,cs),
(635,612,o),
(551,710,o),
(395,710,cs),
(239,710,o),
(133,590,o),
(97,372,cs),
(90,332,o),
(87,295,o),
(87,261,cs),
(87,88,o),
(171,-10,o),
(327,-10,cs)
);
},
{
closed = 1;
nodes = (
(204,22,o),
(139,105,o),
(139,254,cs),
(139,288,o),
(143,327,o),
(150,368,cs),
(182,568,o),
(271,678,o),
(397,678,cs),
(519,678,o),
(583,593,o),
(583,444,cs),
(583,410,o),
(580,372,o),
(573,332,cs),
(540,132,o),
(451,22,o),
(325,22,cs)
);
}
);
};
guides = (
{
angle = 80.5;
pos = (75,239);
},
{
angle = 80.5;
pos = (128,239);
},
{
angle = 80.5;
pos = (609,239);
},
{
angle = 80.5;
pos = (556,239);
}
);
layerId = "D2741A44-CB8E-4434-9CC9-735A9A127F4C";
metricLeft = "=H*0.78";
shapes = (
{
closed = 1;
nodes = (
(563,-10,o),
(633,271,o),
(633,439,cs),
(633,612,o),
(550,710,o),
(394,710,cs),
(158,710,o),
(88,429,o),
(88,261,cs),
(88,88,o),
(171,-10,o),
(327,-10,cs)
);
},
{
closed = 1;
nodes = (
(204,22,o),
(139,105,o),
(139,254,cs),
(139,400,o),
(197,678,o),
(396,678,cs),
(517,678,o),
(582,595,o),
(582,446,cs),
(582,300,o),
(524,22,o),
(324,22,cs)
);
}
);
userData = {
com.hugojourdan.ColorFlow = {
"0" = 0;
"1" = 0;
"10" = 0;
"11" = 0;
"2" = 0;
"3" = 0;
"4" = 0;
"5" = 0;
"6" = 0;
"7" = 0;
"8" = 0;
"9" = 0;
};
};
width = 684;
},
{
anchors = (
{
name = center;
pos = (362,350);
},
{
name = ogonek;
pos = (404,0);
},
{
name = top;
pos = (421,700);
}
);
background = {
shapes = (
{
closed = 1;
nodes = (
(313,-10,o),
(323,-10,o),
(333,-10,cs),
(497,-10,o),
(601,103,o),
(639,327,cs),
(646,368,o),
(649,406,o),
(649,441,cs),
(649,606,o),
(572,697,o),
(422,709,cs),
(412,710,o),
(401,710,o),
(392,710,cs),
(227,710,o),
(121,594,o),
(85,373,cs),
(79,333,o),
(75,296,o),
(75,262,cs),
(75,97,o),
(152,3,o),
(302,-9,cs)
);
},
{
closed = 1;
nodes = (
(177,111,o),
(177,235,cs),
(177,272,o),
(181,316,o),
(189,365,cs),
(222,566,o),
(290,662,o),
(398,662,cs),
(496,662,o),
(547,597,o),
(547,465,cs),
(547,428,o),
(543,385,o),
(535,337,cs),
(503,137,o),
(433,38,o),
(326,38,cs),
(224,38,o)
);
}
);
};
guides = (
{
angle = 80.5;
pos = (64,245);
},
{
angle = 80.5;
pos = (624,245);
},
{
angle = 80.5;
pos = (169,245);
},
{
angle = 80.5;
pos = (519,245);
}
);
layerId = "0B63B416-D10E-4459-8DAA-360BF3D1BFD2";
metricLeft = "=H*0.74";
shapes = (
{
closed = 1;
nodes = (
(580,-10,o),
(647,269,o),
(647,438,cs),
(647,615,o),
(560,710,o),
(392,710,cs),
(138,710,o),
(77,421,o),
(77,262,cs),
(77,82,o),
(169,-10,o),
(332,-10,cs)
);
},
{
closed = 1;
nodes = (
(225,38,o),
(179,111,o),
(179,235,cs),
(179,366,o),
(221,662,o),
(398,662,cs),
(499,662,o),
(545,589,o),
(545,465,cs),
(545,334,o),
(503,38,o),
(326,38,cs)
);
}
);
userData = {
com.hugojourdan.ColorFlow = {
"0" = 0;
"1" = 0;
"10" = 0;
"11" = 0;
"2" = 0;
"3" = 0;
"4" = 0;
"5" = 0;
"6" = 0;
"7" = 0;
"8" = 0;
"9" = 0;
};
};
width = 688;
},
{
anchors = (
{
name = center;
pos = (362,350);
},
{
name = ogonek;
pos = (402,0);
},
{
name = top;
pos = (421,700);
}
);
background = {
shapes = (
{
closed = 1;
nodes = (
(316,-9,o),
(329,-10,o),
(341,-10,cs),
(516,-10,o),
(620,101,o),
(657,325,cs),
(664,366,o),
(667,404,o),
(667,438,cs),
(667,604,o),
(587,694,o),
(423,708,cs),
(410,709,o),
(398,710,o),
(386,710,cs),
(210,710,o),
(104,598,o),
(67,376,cs),
(60,336,o),
(57,300,o),
(57,264,cs),
(57,98,o),
(141,6,o),
(304,-8,cs)
);
},
{
closed = 1;
nodes = (
(268,81,o),
(239,129,o),
(239,225,cs),
(239,262,o),
(243,307,o),
(252,359,cs),
(281,534,o),
(331,619,o),
(400,619,cs),
(457,619,o),
(485,572,o),
(485,477,cs),
(485,439,o),
(481,394,o),
(472,341,cs),
(443,166,o),
(394,81,o),
(326,81,cs)
);
}
);
};
layerId = "EE3858F4-A475-4EBA-A8F4-31CE9F38567C";
metricLeft = "=H*0.8";
shapes = (
{
closed = 1;
nodes = (
(610,-10,o),
(665,277,o),
(665,435,cs),
(665,635,o),
(552,710,o),
(384,710,cs),
(113,710,o),
(58,423,o),
(58,265,cs),
(58,65,o),
(175,-10,o),
(339,-10,cs)
);
},
{
closed = 1;
nodes = (
(268,81,o),
(239,129,o),
(239,225,cs),
(239,327,o),
(277,619,o),
(401,619,cs),
(455,619,o),
(484,571,o),
(484,475,cs),
(484,373,o),
(446,81,o),
(322,81,cs)
);
}
);
userData = {
com.hugojourdan.ColorFlow = {
"0" = 0;
"1" = 0;
"10" = 0;
"11" = 0;
"2" = 0;
"3" = 0;
"4" = 0;
"5" = 0;
"6" = 0;
"7" = 0;
"8" = 0;
"9" = 0;
};
};
width = 690;
}
);
metricRight = "=|";
note = O;
unicode = 79;
},
{
glyphname = OE;
layers = (
{
layerId = m01;
shapes = (
{
closed = 1;
nodes = (
(508,-10,o),
(604,119,o),
(604,350,cs),
(604,581,o),
(510,710,o),
(342,710,cs),
(171,710,o),
(75,581,o),
(75,350,cs),
(75,119,o),
(170,-10,o),
(337,-10,cs)
);
},
{
closed = 1;
nodes = (
(205,22,o),
(128,140,o),
(128,350,cs),
(128,560,o),
(205,678,o),
(342,678,cs),
(479,678,o),
(556,560,o),
(556,350,cs),
(556,140,o),
(479,22,o),
(342,22,cs)
);
},
{
closed = 1;
nodes = (
(937,0,l),
(937,32,l),
(580,32,l),
(604,8,l),
(604,692,l),
(580,668,l),
(924,668,l),
(924,700,l),
(556,700,l),
(556,0,l)
);
},
{
closed = 1;
nodes = (
(904,348,l),
(904,378,l),
(580,378,l),
(580,348,l)
);
}
);
userData = {
com.hugojourdan.ColorFlow = {
"0" = 0;
"1" = 0;
"10" = 0;
"11" = 0;
"2" = 0;
"3" = 0;
"4" = 0;
"5" = 0;
"6" = 0;
"7" = 0;
"8" = 0;
"9" = 0;
};
};
width = 981;
},
{
layerId = "BF6BA5B2-0556-42F4-A103-614BEBF16A1A";
shapes = (
{
closed = 1;
nodes = (
(511,-10,o),
(604,116,o),
(604,350,cs),
(604,587,o),
(513,710,o),
(339,710,cs),
(163,710,o),
(64,581,o),
(64,350,cs),
(64,114,o),
(159,-10,o),
(339,-10,cs)
);
},
{
closed = 1;
nodes = (
(226,41,o),
(169,141,o),
(169,351,cs),
(169,560,o),
(226,659,o),
(345,659,cs),
(463,659,o),
(521,558,o),
(521,351,cs),
(521,143,o),
(463,41,o),
(345,41,cs)
);
},
{
closed = 1;
nodes = (
(924,0,l),
(924,52,l),
(579,52,l),
(618,13,l),
(618,687,l),
(579,648,l),
(912,648,l),
(912,700,l),
(521,700,l),
(521,0,l)
);
},
{
closed = 1;
nodes = (
(891,339,l),
(891,387,l),
(569,387,l),
(569,339,l)
);
}
);
userData = {
com.hugojourdan.ColorFlow = {
"0" = 0;
"1" = 0;
"10" = 0;
"11" = 0;
"2" = 0;
"3" = 0;
"4" = 0;
"5" = 0;
"6" = 0;
"7" = 0;
"8" = 0;
"9" = 0;
};
};
width = 964;
},
{
layerId = "FF73925E-1E34-445B-881D-5A7CAAA8E8BE";
shapes = (
{
closed = 1;
nodes = (
(465,-10,o),
(554,125,o),
(554,350,cs),
(554,576,o),
(465,710,o),
(316,710,cs),
(140,710,o),
(46,585,o),
(46,350,cs),
(46,116,o),
(141,-10,o),
(316,-10,cs)
);
},
{
closed = 1;
nodes = (
(271,84,o),
(234,172,o),
(234,350,cs),
(234,528,o),
(271,616,o),
(346,616,cs),
(420,616,o),
(456,529,o),
(456,350,cs),
(456,172,o),
(420,84,o),
(346,84,cs)
);
},
{
closed = 1;
nodes = (
(907,0,l),
(907,87,l),
(592,87,l),
(634,48,l),
(634,651,l),
(593,614,l),
(897,614,l),
(897,700,l),
(456,700,l),
(456,0,l)
);
},
{
closed = 1;
nodes = (
(874,323,l),
(874,403,l),
(545,403,l),
(545,323,l)
);
}
);
userData = {
com.hugojourdan.ColorFlow = {
"0" = 0;
"1" = 0;
"10" = 0;
"11" = 0;
"2" = 0;
"3" = 0;
"4" = 0;
"5" = 0;
"6" = 0;
"7" = 0;
"8" = 0;
"9" = 0;
};
};
width = 934;
},
{
layerId = m004;
shapes = (
{
closed = 1;
nodes = (
(510,-10,o),
(604,119,o),
(604,350,cs),
(604,581,o),
(510,710,o),
(342,710,cs),
(171,710,o),
(75,581,o),
(75,350,cs),
(75,119,o),
(171,-10,o),
(342,-10,cs)
);
},
{
closed = 1;
nodes = (
(205,34,o),
(128,148,o),
(128,350,cs),
(128,552,o),
(205,666,o),
(342,666,cs),
(479,666,o),
(556,552,o),
(556,350,cs),
(556,148,o),
(479,34,o),
(342,34,cs)
);
},
{
closed = 1;
nodes = (
(937,0,l),
(937,43,l),
(580,43,l),
(604,19,l),
(604,681,l),
(580,657,l),
(924,657,l),
(924,700,l),
(556,700,l),
(556,0,l)
);
},
{
closed = 1;
nodes = (
(904,342,l),
(904,384,l),
(580,384,l),
(580,342,l)
);
}
);
userData = {
com.hugojourdan.ColorFlow = {
"0" = 0;
"1" = 0;
"10" = 0;
"11" = 0;
"2" = 0;
"3" = 0;
"4" = 0;
"5" = 0;
"6" = 0;
"7" = 0;
"8" = 0;
"9" = 0;
};
};
width = 981;
},
{
layerId = m005;
shapes = (
{
closed = 1;
nodes = (
(511,-10,o),
(602,114,o),
(602,350,cs),
(602,586,o),
(511,710,o),
(338,710,cs),
(161,710,o),
(64,584,o),
(64,350,cs),
(64,117,o),
(161,-10,o),
(338,-10,cs)
);
},
{
closed = 1;
nodes = (
(231,75,o),
(169,172,o),
(169,350,cs),
(169,528,o),
(231,625,o),
(343,625,cs),
(455,625,o),
(516,529,o),
(516,350,cs),
(516,171,o),
(455,75,o),
(343,75,cs)
);
},
{
closed = 1;
nodes = (
(924,0,l),
(924,77,l),
(574,77,l),
(614,38,l),
(614,662,l),
(574,623,l),
(912,623,l),
(912,700,l),
(516,700,l),
(516,0,l)
);
},
{
closed = 1;
nodes = (
(889,326,l),
(889,400,l),
(564,400,l),
(564,326,l)
);
}
);
userData = {
com.hugojourdan.ColorFlow = {
"0" = 0;
"1" = 0;
"10" = 0;
"11" = 0;
"2" = 0;
"3" = 0;
"4" = 0;
"5" = 0;
"6" = 0;
"7" = 0;
"8" = 0;
"9" = 0;
};
};
width = 964;
},
{
layerId = m006;
shapes = (
{
closed = 1;
nodes = (
(481,-10,o),
(554,104,o),
(554,351,cs),
(554,597,o),
(481,710,o),
(322,710,cs),
(142,710,o),
(46,586,o),
(46,351,cs),
(46,115,o),
(142,-10,o),
(322,-10,cs)
);
},
{
closed = 1;
nodes = (
(271,143,o),
(234,212,o),
(234,351,cs),
(234,489,o),
(271,557,o),
(346,557,cs),
(420,557,o),
(456,490,o),
(456,351,cs),
(456,211,o),
(420,143,o),
(346,143,cs)
);
},
{
closed = 1;
nodes = (
(907,0,l),
(907,136,l),
(589,136,l),
(634,91,l),
(634,609,l),
(589,564,l),
(897,564,l),
(897,700,l),
(456,700,l),
(456,0,l)
);
},
{
closed = 1;
nodes = (
(874,298,l),
(874,428,l),
(545,428,l),
(545,298,l)
);
}
);
userData = {
com.hugojourdan.ColorFlow = {
"0" = 0;
"1" = 0;
"10" = 0;
"11" = 0;
"2" = 0;
"3" = 0;
"4" = 0;
"5" = 0;
"6" = 0;
"7" = 0;
"8" = 0;
"9" = 0;
};
};
width = 934;
},
{
layerId = "4E5694F4-F64E-4331-B998-78BE273203C7";
shapes = (
{
closed = 1;
nodes = (
(558,-10,o),
(627,271,o),
(627,439,cs),
(627,612,o),
(546,710,o),
(394,710,cs),
(158,710,o),
(88,429,o),
(88,261,cs),
(88,88,o),
(171,-10,o),
(327,-10,cs)
);
},
{
closed = 1;
nodes = (
(204,33,o),
(141,116,o),
(141,263,cs),
(141,410,o),
(198,667,o),
(393,667,cs),
(517,667,o),
(580,584,o),
(580,437,cs),
(580,292,o),
(523,33,o),
(328,33,cs)
);
},
{
closed = 1;
nodes = (
(897,0,l),
(904,42,l),
(557,42,l),
(569,30,l),
(677,676,l),
(659,658,l),
(994,658,l),
(1001,700,l),
(633,700,l),
(516,0,l)
);
},
{
closed = 1;
nodes = (
(921,342,l),
(928,384,l),
(607,384,l),
(601,342,l)
);
}
);
userData = {
com.hugojourdan.ColorFlow = {
"0" = 0;
"1" = 0;
"10" = 0;
"11" = 0;
"2" = 0;
"3" = 0;
"4" = 0;
"5" = 0;
"6" = 0;
"7" = 0;
"8" = 0;
"9" = 0;
};
};
width = 981;
},
{
layerId = "DF4E5521-40BA-460F-874A-364F4D14AAD8";
shapes = (
{
closed = 1;
nodes = (
(563,-10,o),
(626,269,o),
(626,438,cs),
(626,615,o),
(545,710,o),
(384,710,cs),
(139,710,o),
(77,421,o),
(77,262,cs),
(77,82,o),
(169,-10,o),
(324,-10,cs)
);
},
{
closed = 1;
nodes = (
(231,74,o),
(180,141,o),
(180,266,cs),
(180,388,o),
(227,626,o),
(391,626,cs),
(488,626,o),
(540,559,o),
(540,434,cs),
(540,312,o),
(494,74,o),
(329,74,cs)
);
},
{
closed = 1;
nodes = (
(883,0,l),
(896,78,l),
(557,78,l),
(582,48,l),
(683,652,l),
(648,622,l),
(974,622,l),
(987,700,l),
(593,700,l),
(476,0,l)
);
},
{
closed = 1;
nodes = (
(901,326,l),
(915,400,l),
(591,400,l),
(579,326,l)
);
}
);
userData = {
com.hugojourdan.ColorFlow = {
"0" = 0;
"1" = 0;
"10" = 0;
"11" = 0;
"2" = 0;
"3" = 0;
"4" = 0;
"5" = 0;
"6" = 0;
"7" = 0;
"8" = 0;
"9" = 0;
};
};
width = 964;
},
{
layerId = "C6DE9ED7-34B3-46A1-8A00-A72C4A5E93A3";
shapes = (
{
closed = 1;
nodes = (
(537,-10,o),
(583,327,o),
(583,474,cs),
(583,634,o),
(514,710,o),
(370,710,cs),
(120,710,o),
(57,423,o),
(57,260,cs),
(57,65,o),
(167,-10,o),
(305,-10,cs)
);
},
{
closed = 1;
nodes = (
(276,138,o),
(245,182,o),
(245,270,cs),
(245,356,o),
(273,562,o),
(387,562,cs),
(448,562,o),
(478,518,o),
(478,430,cs),
(478,344,o),
(451,138,o),
(337,138,cs)
);
},
{
closed = 1;
nodes = (
(865,0,l),
(888,137,l),
(570,137,l),
(607,90,l),
(694,610,l),
(641,563,l),
(949,563,l),
(972,700,l),
(531,700,l),
(414,0,l)
);
},
{
closed = 1;
nodes = (
(882,298,l),
(904,428,l),
(575,428,l),
(553,298,l)
);
}
);
userData = {
com.hugojourdan.ColorFlow = {
"0" = 0;
"1" = 0;
"10" = 0;
"11" = 0;
"2" = 0;
"3" = 0;
"4" = 0;
"5" = 0;
"6" = 0;
"7" = 0;
"8" = 0;
"9" = 0;
};
};
width = 934;
},
{
layerId = "D2741A44-CB8E-4434-9CC9-735A9A127F4C";
shapes = (
{
closed = 1;
nodes = (
(559,-10,o),
(628,271,o),
(628,439,cs),
(628,612,o),
(547,710,o),
(394,710,cs),
(158,710,o),
(88,429,o),
(88,261,cs),
(88,88,o),
(171,-10,o),
(327,-10,cs)
);
},
{
closed = 1;
nodes = (
(204,22,o),
(139,105,o),
(139,254,cs),
(139,400,o),
(197,678,o),
(396,678,cs),
(517,678,o),
(582,595,o),
(582,446,cs),
(582,300,o),
(524,22,o),
(324,22,cs)
);
},
{
closed = 1;
nodes = (
(897,0,l),
(902,32,l),
(549,32,l),
(566,12,l),
(679,687,l),
(657,668,l),
(999,668,l),
(1004,700,l),
(633,700,l),
(516,0,l)
);
},
{
closed = 1;
nodes = (
(922,347,l),
(927,377,l),
(603,377,l),
(598,347,l)
);
}
);
userData = {
com.hugojourdan.ColorFlow = {
"0" = 0;
"1" = 0;
"10" = 0;
"11" = 0;
"2" = 0;
"3" = 0;
"4" = 0;
"5" = 0;
"6" = 0;
"7" = 0;
"8" = 0;
"9" = 0;
};
};
width = 981;
},
{
layerId = "0B63B416-D10E-4459-8DAA-360BF3D1BFD2";
shapes = (
{
closed = 1;
nodes = (
(560,-10,o),
(622,269,o),
(622,438,cs),
(622,615,o),
(543,710,o),
(390,710,cs),
(138,710,o),
(77,421,o),
(77,262,cs),
(77,82,o),
(168,-10,o),
(330,-10,cs)
);
},
{
closed = 1;
nodes = (
(224,38,o),
(179,111,o),
(179,235,cs),
(179,366,o),
(221,662,o),
(396,662,cs),
(496,662,o),
(541,589,o),
(541,465,cs),
(541,334,o),
(499,38,o),
(324,38,cs)
);
},
{
closed = 1;
nodes = (
(883,0,l),
(892,52,l),
(560,52,l),
(578,30,l),
(685,669,l),
(660,648,l),
(979,648,l),
(988,700,l),
(592,700,l),
(475,0,l)
);
},
{
closed = 1;
nodes = (
(907,341,l),
(915,389,l),
(588,389,l),
(580,341,l)
);
}
);
userData = {
com.hugojourdan.ColorFlow = {
"0" = 0;
"1" = 0;
"10" = 0;
"11" = 0;
"2" = 0;
"3" = 0;
"4" = 0;
"5" = 0;
"6" = 0;
"7" = 0;
"8" = 0;
"9" = 0;
};
};
width = 964;
},
{
layerId = "EE3858F4-A475-4EBA-A8F4-31CE9F38567C";
shapes = (
{
closed = 1;
nodes = (
(506,-10,o),
(581,280,o),
(581,448,cs),
(581,608,o),
(512,710,o),
(361,710,cs),
(119,710,o),
(57,418,o),
(57,258,cs),
(57,85,o),
(147,-10,o),
(289,-10,cs)
);
},
{
closed = 1;
nodes = (
(268,81,o),
(239,129,o),
(239,225,cs),
(239,327,o),
(277,619,o),
(400,619,cs),
(453,619,o),
(482,571,o),
(482,475,cs),
(482,373,o),
(444,81,o),
(321,81,cs)
);
},
{
closed = 1;
nodes = (
(865,0,l),
(879,87,l),
(565,87,l),
(600,48,l),
(701,651,l),
(653,614,l),
(958,614,l),
(972,700,l),
(531,700,l),
(414,0,l)
);
},
{
closed = 1;
nodes = (
(886,323,l),
(899,403,l),
(570,403,l),
(557,323,l)
);
}
);
userData = {
com.hugojourdan.ColorFlow = {
"0" = 0;
"1" = 0;
"10" = 0;
"11" = 0;
"2" = 0;
"3" = 0;
"4" = 0;
"5" = 0;
"6" = 0;
"7" = 0;
"8" = 0;
"9" = 0;
};
};
width = 934;
}
);
metricLeft = "=O";
metricRight = "=E";
unicode = 338;
},
{
glyphname = P;
layers = (
{
layerId = m01;
shapes = (
{
closed = 1;
nodes = (
(144,0,l),
(144,687,l),
(125,668,l),
(248,668,ls),
(390,668,o),
(470,607,o),
(470,497,cs),
(470,387,o),
(390,325,o),
(248,325,cs),
(120,325,l),
(120,293,l),
(250,293,ls),
(424,293,o),
(522,366,o),
(522,497,cs),
(522,627,o),
(424,700,o),
(250,700,cs),
(96,700,l),
(96,0,l)
);
}
);
userData = {
com.hugojourdan.ColorFlow = {
"0" = 0;
"1" = 0;
"10" = 0;
"11" = 0;
"2" = 0;
"3" = 0;
"4" = 0;
"5" = 0;
"6" = 0;
"7" = 0;
"8" = 0;
"9" = 0;
};
};
width = 593;
},
{
layerId = "FF73925E-1E34-445B-881D-5A7CAAA8E8BE";
shapes = (
{
closed = 1;
nodes = (
(235,0,l),
(235,655,l),
(190,614,l),
(277,614,ls),
(366,614,o),
(415,567,o),
(415,481,cs),
(415,395,o),
(366,348,o),
(277,348,cs),
(147,348,l),
(147,263,l),
(287,263,ls),
(488,263,o),
(601,342,o),
(601,482,cs),
(601,622,o),
(488,700,o),
(287,700,cs),
(58,700,l),
(58,0,l)
);
}
);
userData = {
com.hugojourdan.ColorFlow = {
"0" = 0;
"1" = 0;
"10" = 0;
"11" = 0;
"2" = 0;
"3" = 0;
"4" = 0;
"5" = 0;
"6" = 0;
"7" = 0;
"8" = 0;
"9" = 0;
};
};
width = 644;
},
{
layerId = "BF6BA5B2-0556-42F4-A103-614BEBF16A1A";
shapes = (
{
closed = 1;
nodes = (
(184,0,l),
(184,669,l),
(165,650,l),
(274,650,ls),
(388,650,o),
(456,592,o),
(456,491,cs),
(456,389,o),
(389,331,o),
(274,331,cs),
(135,331,l),
(135,281,l),
(279,281,ls),
(459,281,o),
(561,357,o),
(561,491,cs),
(561,624,o),
(459,700,o),
(279,700,cs),
(86,700,l),
(86,0,l)
);
}
);
userData = {
com.hugojourdan.ColorFlow = {
"0" = 0;
"1" = 0;
"10" = 0;
"11" = 0;
"2" = 0;
"3" = 0;
"4" = 0;
"5" = 0;
"6" = 0;
"7" = 0;
"8" = 0;
"9" = 0;
};
};
width = 621;
},
{
layerId = m004;
shapes = (
{
closed = 1;
nodes = (
(144,0,l),
(144,681,l),
(120,658,l),
(248,658,ls),
(390,658,o),
(470,600,o),
(470,497,cs),
(470,393,o),
(390,335,o),
(248,335,cs),
(120,335,l),
(120,293,l),
(250,293,ls),
(424,293,o),
(522,366,o),
(522,497,cs),
(522,627,o),
(424,700,o),
(250,700,cs),
(96,700,l),
(96,0,l)
);
}
);
userData = {
com.hugojourdan.ColorFlow = {
"0" = 0;
"1" = 0;
"10" = 0;
"11" = 0;
"2" = 0;
"3" = 0;
"4" = 0;
"5" = 0;
"6" = 0;
"7" = 0;
"8" = 0;
"9" = 0;
};
};
width = 593;
},
{
layerId = m005;
shapes = (
{
closed = 1;
nodes = (
(184,0,l),
(184,652,l),
(154,622,l),
(280,622,ls),
(398,622,o),
(456,579,o),
(456,491,cs),
(456,402,o),
(399,359,o),
(280,359,cs),
(135,359,l),
(135,281,l),
(277,281,ls),
(461,281,o),
(561,355,o),
(561,491,cs),
(561,627,o),
(461,700,o),
(277,700,cs),
(86,700,l),
(86,0,l)
);
}
);
userData = {
com.hugojourdan.ColorFlow = {
"0" = 0;
"1" = 0;
"10" = 0;
"11" = 0;
"2" = 0;
"3" = 0;
"4" = 0;
"5" = 0;
"6" = 0;
"7" = 0;
"8" = 0;
"9" = 0;
};
};
width = 621;
},
{
layerId = m006;
shapes = (
{
closed = 1;
nodes = (
(235,0,l),
(235,610,l),
(189,564,l),
(317,564,ls),
(383,564,o),
(415,537,o),
(415,481,cs),
(415,425,o),
(383,398,o),
(317,398,cs),
(219,398,l),
(219,263,l),
(307,263,ls),
(502,263,o),
(601,337,o),
(601,482,cs),
(601,627,o),
(502,700,o),
(307,700,cs),
(58,700,l),
(58,0,l)
);
}
);
userData = {
com.hugojourdan.ColorFlow = {
"0" = 0;
"1" = 0;
"10" = 0;
"11" = 0;
"2" = 0;
"3" = 0;
"4" = 0;
"5" = 0;
"6" = 0;
"7" = 0;
"8" = 0;
"9" = 0;
};
};
width = 644;
},
{
background = {
shapes = (
{
closed = 1;
nodes = (
(104,0,l),
(217,676,l),
(199,658,l),
(291,658,ls),
(457,658,o),
(517,603,o),
(517,521,cs),
(517,428,o),
(429,370,o),
(305,370,cs),
(144,370,l),
(137,328,l),
(307,328,ls),
(468,328,o),
(567,406,o),
(567,523,cs),
(567,631,o),
(489,700,o),
(299,700,cs),
(173,700,l),
(56,0,l)
);
}
);
};
layerId = "4E5694F4-F64E-4331-B998-78BE273203C7";
shapes = (
{
closed = 1;
nodes = (
(104,0,l),
(217,676,l),
(199,658,l),
(287,658,ls),
(453,658,o),
(513,596,o),
(513,504,cs),
(513,400,o),
(425,335,o),
(301,335,cs),
(140,335,l),
(133,293,l),
(303,293,ls),
(464,293,o),
(563,378,o),
(563,506,cs),
(563,624,o),
(489,700,o),
(295,700,cs),
(173,700,l),
(56,0,l)
);
}
);
userData = {
com.hugojourdan.ColorFlow = {
"0" = 0;
"1" = 0;
"10" = 0;
"11" = 0;
"2" = 0;
"3" = 0;
"4" = 0;
"5" = 0;
"6" = 0;
"7" = 0;
"8" = 0;
"9" = 0;
};
};
width = 593;
},
{
background = {
shapes = (
{
closed = 0;
nodes = (
(601,511,ls),
(601,620,o),
(515,686,o),
(352,700,c)
);
},
{
closed = 0;
nodes = (
(343,622,l),
(446,613,o),
(498,575,o),
(498,508,cs)
);
}
);
};
guides = (
{
angle = 80.5069;
pos = (579,350);
},
{
angle = 80.5069;
pos = (474,350);
}
);
layerId = "DF4E5521-40BA-460F-874A-364F4D14AAD8";
shapes = (
{
closed = 1;
nodes = (
(143,0,l),
(252,652,l),
(217,622,l),
(319,622,ls),
(440,622,o),
(497,583,o),
(497,502,cs),
(497,419,o),
(435,359,o),
(334,359,cs),
(154,359,l),
(141,281,l),
(333,281,ls),
(501,281,o),
(601,371,o),
(601,503,cs),
(601,633,o),
(506,700,o),
(324,700,cs),
(162,700,l),
(45,0,l)
);
}
);
userData = {
com.hugojourdan.ColorFlow = {
"0" = 0;
"1" = 0;
"10" = 0;
"11" = 0;
"2" = 0;
"3" = 0;
"4" = 0;
"5" = 0;
"6" = 0;
"7" = 0;
"8" = 0;
"9" = 0;
};
};
width = 621;
},
{
guides = (
{
angle = 260.7443;
pos = (166,365);
},
{
angle = 260.7443;
pos = (620,365);
},
{
angle = 260.7443;
pos = (434,365);
}
);
layerId = "C6DE9ED7-34B3-46A1-8A00-A72C4A5E93A3";
shapes = (
{
closed = 1;
nodes = (
(194,0,l),
(296,610,l),
(243,564,l),
(366,564,ls),
(425,564,o),
(453,540,o),
(453,491,cs),
(453,434,o),
(416,398,o),
(358,398,cs),
(171,398,l),
(149,263,l),
(365,263,ls),
(538,263,o),
(638,355,o),
(638,496,cs),
(638,629,o),
(549,700,o),
(380,700,cs),
(133,700,l),
(16,0,l)
);
}
);
userData = {
com.hugojourdan.ColorFlow = {
"0" = 0;
"1" = 0;
"10" = 0;
"11" = 0;
"2" = 0;
"3" = 0;
"4" = 0;
"5" = 0;
"6" = 0;
"7" = 0;
"8" = 0;
"9" = 0;
};
};
width = 644;
},
{
background = {
shapes = (
{
closed = 0;
nodes = (
(564,515,ls),
(564,620,o),
(480,687,o),
(325,700,c)
);
},
{
closed = 0;
nodes = (
(319,668,l),
(444,657,o),
(513,602,o),
(513,513,cs)
);
}
);
};
guides = (
{
angle = 80.5;
pos = (96,239);
},
{
angle = 80.5;
pos = (144,239);
},
{
angle = 80.5;
pos = (522,239);
},
{
angle = 80.5;
pos = (470,239);
}
);
layerId = "D2741A44-CB8E-4434-9CC9-735A9A127F4C";
shapes = (
{
closed = 1;
nodes = (
(104,0,l),
(219,687,l),
(197,668,l),
(295,668,ls),
(433,668,o),
(513,611,o),
(513,513,cs),
(513,398,o),
(425,325,o),
(287,325,cs),
(135,325,l),
(130,293,l),
(293,293,ls),
(462,293,o),
(564,375,o),
(564,513,cs),
(564,631,o),
(464,700,o),
(293,700,cs),
(173,700,l),
(56,0,l)
);
}
);
userData = {
com.hugojourdan.ColorFlow = {
"0" = 0;
"1" = 0;
"10" = 0;
"11" = 0;
"2" = 0;
"3" = 0;
"4" = 0;
"5" = 0;
"6" = 0;
"7" = 0;
"8" = 0;
"9" = 0;
};
};
width = 593;
},
{
background = {
shapes = (
{
closed = 0;
nodes = (
(340,648,l),
(441,640,o),
(497,590,o),
(497,511,cs)
);
},
{
closed = 0;
nodes = (
(601,507,ls),
(601,617,o),
(514,687,o),
(353,700,c)
);
}
);
};
guides = (
{
angle = 80.5;
pos = (86,245);
},
{
angle = 80.5;
pos = (184,245);
},
{
angle = 80.5;
pos = (561,245);
},
{
angle = 80.5;
pos = (456,245);
}
);
layerId = "0B63B416-D10E-4459-8DAA-360BF3D1BFD2";
shapes = (
{
closed = 1;
nodes = (
(143,0,l),
(255,669,l),
(230,650,l),
(328,650,ls),
(436,650,o),
(497,598,o),
(497,505,cs),
(497,401,o),
(421,331,o),
(308,331,cs),
(149,331,l),
(141,281,l),
(322,281,ls),
(491,281,o),
(601,370,o),
(601,506,cs),
(601,632,o),
(505,700,o),
(328,700,cs),
(162,700,l),
(45,0,l)
);
}
);
userData = {
com.hugojourdan.ColorFlow = {
"0" = 0;
"1" = 0;
"10" = 0;
"11" = 0;
"2" = 0;
"3" = 0;
"4" = 0;
"5" = 0;
"6" = 0;
"7" = 0;
"8" = 0;
"9" = 0;
};
};
width = 621;
},
{
background = {
shapes = (
{
closed = 0;
nodes = (
(639,499,ls),
(639,614,o),
(540,686,o),
(360,700,c)
);
},
{
closed = 0;
nodes = (
(337,610,l),
(413,604,o),
(454,566,o),
(454,502,cs)
);
}
);
};
guides = (
{
angle = 80.5;
pos = (601,251);
},
{
angle = 80.5;
pos = (415,251);
},
{
angle = 80.5;
pos = (58,251);
},
{
angle = 80.5;
pos = (236,251);
}
);
layerId = "EE3858F4-A475-4EBA-A8F4-31CE9F38567C";
shapes = (
{
closed = 1;
nodes = (
(194,0,l),
(303,651,l),
(255,614,l),
(339,614,ls),
(416,614,o),
(454,576,o),
(454,499,cs),
(454,408,o),
(398,348,o),
(312,348,cs),
(163,348,l),
(149,263,l),
(345,263,ls),
(524,263,o),
(639,358,o),
(639,496,cs),
(639,630,o),
(529,700,o),
(332,700,cs),
(133,700,l),
(16,0,l)
);
}
);
userData = {
com.hugojourdan.ColorFlow = {
"0" = 0;
"1" = 0;
"10" = 0;
"11" = 0;
"2" = 0;
"3" = 0;
"4" = 0;
"5" = 0;
"6" = 0;
"7" = 0;
"8" = 0;
"9" = 0;
};
};
width = 644;
}
);
metricLeft = "=H";
metricRight = "=O*0.94";
note = P;
unicode = 80;
},
{
glyphname = Thorn;
layers = (
{
layerId = m01;
shapes = (
{
closed = 1;
nodes = (
(250,147,ls),
(424,147,o),
(522,220,o),
(522,351,cs),
(522,481,o),
(424,554,o),
(250,554,cs),
(120,554,l),
(120,522,l),
(248,522,ls),
(390,522,o),
(470,461,o),
(470,351,cs),
(470,241,o),
(390,179,o),
(248,179,cs),
(120,179,l),
(120,147,l)
);
},
{
closed = 1;
nodes = (
(144,0,l),
(144,700,l),
(96,700,l),
(96,0,l)
);
}
);
userData = {
com.hugojourdan.ColorFlow = {
"0" = 0;
"1" = 0;
"10" = 0;
"11" = 0;
"2" = 0;
"3" = 0;
"4" = 0;
"5" = 0;
"6" = 0;
"7" = 0;
"8" = 0;
"9" = 0;
};
};
width = 597;
},
{
layerId = "BF6BA5B2-0556-42F4-A103-614BEBF16A1A";
shapes = (
{
closed = 1;
nodes = (
(279,141,ls),
(459,141,o),
(561,217,o),
(561,351,cs),
(561,484,o),
(459,560,o),
(279,560,cs),
(138,560,l),
(138,512,l),
(274,512,ls),
(388,512,o),
(456,453,o),
(456,351,cs),
(456,248,o),
(389,189,o),
(274,189,cs),
(138,189,l),
(138,141,l)
);
},
{
closed = 1;
nodes = (
(184,0,l),
(184,700,l),
(86,700,l),
(86,0,l)
);
}
);
userData = {
com.hugojourdan.ColorFlow = {
"0" = 0;
"1" = 0;
"10" = 0;
"11" = 0;
"2" = 0;
"3" = 0;
"4" = 0;
"5" = 0;
"6" = 0;
"7" = 0;
"8" = 0;
"9" = 0;
};
};
width = 625;
},
{
layerId = "FF73925E-1E34-445B-881D-5A7CAAA8E8BE";
shapes = (
{
closed = 1;
nodes = (
(287,132,ls),
(488,132,o),
(601,211,o),
(601,351,cs),
(601,491,o),
(488,569,o),
(287,569,cs),
(147,569,l),
(147,483,l),
(277,483,ls),
(366,483,o),
(415,436,o),
(415,350,cs),
(415,264,o),
(366,217,o),
(277,217,cs),
(147,217,l),
(147,132,l)
);
},
{
closed = 1;
nodes = (
(235,0,l),
(235,700,l),
(58,700,l),
(58,0,l)
);
}
);
userData = {
com.hugojourdan.ColorFlow = {
"0" = 0;
"1" = 0;
"10" = 0;
"11" = 0;
"2" = 0;
"3" = 0;
"4" = 0;
"5" = 0;
"6" = 0;
"7" = 0;
"8" = 0;
"9" = 0;
};
};
width = 647;
},
{
layerId = m004;
shapes = (
{
closed = 1;
nodes = (
(250,147,ls),
(424,147,o),
(522,220,o),
(522,351,cs),
(522,481,o),
(424,554,o),
(250,554,cs),
(120,554,l),
(120,512,l),
(248,512,ls),
(391,512,o),
(470,454,o),
(470,351,cs),
(470,247,o),
(390,189,o),
(248,189,cs),
(120,189,l),
(120,147,l)
);
},
{
closed = 1;
nodes = (
(144,0,l),
(144,700,l),
(96,700,l),
(96,0,l)
);
}
);
userData = {
com.hugojourdan.ColorFlow = {
"0" = 0;
"1" = 0;
"10" = 0;
"11" = 0;
"2" = 0;
"3" = 0;
"4" = 0;
"5" = 0;
"6" = 0;
"7" = 0;
"8" = 0;
"9" = 0;
};
};
width = 597;
},
{
layerId = m005;
shapes = (
{
closed = 1;
nodes = (
(279,141,ls),
(459,141,o),
(561,217,o),
(561,351,cs),
(561,484,o),
(459,560,o),
(279,560,cs),
(138,560,l),
(138,482,l),
(274,482,ls),
(388,482,o),
(456,434,o),
(456,351,cs),
(456,267,o),
(389,219,o),
(274,219,cs),
(138,219,l),
(138,141,l)
);
},
{
closed = 1;
nodes = (
(184,0,l),
(184,700,l),
(86,700,l),
(86,0,l)
);
}
);
userData = {
com.hugojourdan.ColorFlow = {
"0" = 0;
"1" = 0;
"10" = 0;
"11" = 0;
"2" = 0;
"3" = 0;
"4" = 0;
"5" = 0;
"6" = 0;
"7" = 0;
"8" = 0;
"9" = 0;
};
};
width = 625;
},
{
layerId = m006;
shapes = (
{
closed = 1;
nodes = (
(307,132,ls),
(509,132,o),
(601,211,o),
(601,351,cs),
(601,491,o),
(509,569,o),
(307,569,cs),
(219,569,l),
(219,433,l),
(317,433,ls),
(386,433,o),
(415,403,o),
(415,350,cs),
(415,297,o),
(386,267,o),
(317,267,cs),
(219,267,l),
(219,132,l)
);
},
{
closed = 1;
nodes = (
(235,0,l),
(235,700,l),
(58,700,l),
(58,0,l)
);
}
);
userData = {
com.hugojourdan.ColorFlow = {
"0" = 0;
"1" = 0;
"10" = 0;
"11" = 0;
"2" = 0;
"3" = 0;
"4" = 0;
"5" = 0;
"6" = 0;
"7" = 0;
"8" = 0;
"9" = 0;
};
};
width = 647;
},
{
guides = (
{
angle = 80.5;
pos = (96,239);
},
{
angle = 80.5;
pos = (522,239);
}
);
layerId = "4E5694F4-F64E-4331-B998-78BE273203C7";
shapes = (
{
closed = 1;
nodes = (
(279,147,ls),
(440,147,o),
(539,232,o),
(539,360,cs),
(539,478,o),
(465,554,o),
(271,554,cs),
(177,554,l),
(170,512,l),
(263,512,ls),
(429,512,o),
(489,450,o),
(489,358,cs),
(489,254,o),
(401,189,o),
(277,189,cs),
(116,189,l),
(109,147,l)
);
},
{
closed = 1;
nodes = (
(104,0,l),
(221,700,l),
(173,700,l),
(56,0,l)
);
}
);
userData = {
com.hugojourdan.ColorFlow = {
"0" = 0;
"1" = 0;
"10" = 0;
"11" = 0;
"2" = 0;
"3" = 0;
"4" = 0;
"5" = 0;
"6" = 0;
"7" = 0;
"8" = 0;
"9" = 0;
};
};
width = 597;
},
{
layerId = "DF4E5521-40BA-460F-874A-364F4D14AAD8";
shapes = (
{
closed = 1;
nodes = (
(309,141,ls),
(477,141,o),
(577,231,o),
(577,363,cs),
(577,493,o),
(482,560,o),
(300,560,cs),
(193,560,l),
(180,482,l),
(295,482,ls),
(416,482,o),
(473,443,o),
(473,362,cs),
(473,279,o),
(411,219,o),
(310,219,cs),
(130,219,l),
(117,141,l)
);
},
{
closed = 1;
nodes = (
(143,0,l),
(260,700,l),
(162,700,l),
(45,0,l)
);
}
);
userData = {
com.hugojourdan.ColorFlow = {
"0" = 0;
"1" = 0;
"10" = 0;
"11" = 0;
"2" = 0;
"3" = 0;
"4" = 0;
"5" = 0;
"6" = 0;
"7" = 0;
"8" = 0;
"9" = 0;
};
};
width = 625;
},
{
layerId = "C6DE9ED7-34B3-46A1-8A00-A72C4A5E93A3";
shapes = (
{
closed = 1;
nodes = (
(343,132,ls),
(516,132,o),
(616,224,o),
(616,365,cs),
(616,498,o),
(527,569,o),
(358,569,cs),
(198,569,l),
(176,433,l),
(344,433,ls),
(403,433,o),
(431,409,o),
(431,360,cs),
(431,303,o),
(394,267,o),
(336,267,cs),
(149,267,l),
(127,132,l)
);
},
{
closed = 1;
nodes = (
(194,0,l),
(311,700,l),
(133,700,l),
(16,0,l)
);
}
);
userData = {
com.hugojourdan.ColorFlow = {
"0" = 0;
"1" = 0;
"10" = 0;
"11" = 0;
"2" = 0;
"3" = 0;
"4" = 0;
"5" = 0;
"6" = 0;
"7" = 0;
"8" = 0;
"9" = 0;
};
};
width = 647;
},
{
layerId = "D2741A44-CB8E-4434-9CC9-735A9A127F4C";
shapes = (
{
closed = 1;
nodes = (
(269,147,ls),
(438,147,o),
(540,229,o),
(540,367,cs),
(540,485,o),
(440,554,o),
(269,554,cs),
(173,554,l),
(168,522,l),
(271,522,ls),
(409,522,o),
(489,465,o),
(489,367,cs),
(489,252,o),
(401,179,o),
(263,179,cs),
(110,179,l),
(105,147,l)
);
},
{
closed = 1;
nodes = (
(104,0,l),
(221,700,l),
(173,700,l),
(56,0,l)
);
}
);
userData = {
com.hugojourdan.ColorFlow = {
"0" = 0;
"1" = 0;
"10" = 0;
"11" = 0;
"2" = 0;
"3" = 0;
"4" = 0;
"5" = 0;
"6" = 0;
"7" = 0;
"8" = 0;
"9" = 0;
};
};
width = 597;
},
{
layerId = "0B63B416-D10E-4459-8DAA-360BF3D1BFD2";
shapes = (
{
closed = 1;
nodes = (
(299,141,ls),
(468,141,o),
(578,230,o),
(578,366,cs),
(578,492,o),
(482,560,o),
(305,560,cs),
(188,560,l),
(179,510,l),
(305,510,ls),
(413,510,o),
(474,458,o),
(474,365,cs),
(474,261,o),
(398,191,o),
(285,191,cs),
(126,191,l),
(118,141,l)
);
},
{
closed = 1;
nodes = (
(143,0,l),
(260,700,l),
(162,700,l),
(45,0,l)
);
}
);
userData = {
com.hugojourdan.ColorFlow = {
"0" = 0;
"1" = 0;
"10" = 0;
"11" = 0;
"2" = 0;
"3" = 0;
"4" = 0;
"5" = 0;
"6" = 0;
"7" = 0;
"8" = 0;
"9" = 0;
};
};
width = 625;
},
{
layerId = "EE3858F4-A475-4EBA-A8F4-31CE9F38567C";
shapes = (
{
closed = 1;
nodes = (
(323,132,ls),
(502,132,o),
(617,227,o),
(617,365,cs),
(617,499,o),
(507,569,o),
(310,569,cs),
(200,569,l),
(186,483,l),
(317,483,ls),
(394,483,o),
(432,445,o),
(432,368,cs),
(432,277,o),
(376,217,o),
(290,217,cs),
(141,217,l),
(127,132,l)
);
},
{
closed = 1;
nodes = (
(194,0,l),
(311,700,l),
(133,700,l),
(16,0,l)
);
}
);
userData = {
com.hugojourdan.ColorFlow = {
"0" = 0;
"1" = 0;
"10" = 0;
"11" = 0;
"2" = 0;
"3" = 0;
"4" = 0;
"5" = 0;
"6" = 0;
"7" = 0;
"8" = 0;
"9" = 0;
};
};
width = 647;
}
);
metricLeft = "=H";
metricRight = "=O";
unicode = 222;
},
{
glyphname = Q;
layers = (
{
layerId = m01;
shapes = (
{
closed = 1;
nodes = (
(513,-10,o),
(609,119,o),
(609,350,cs),
(609,581,o),
(513,710,o),
(342,710,cs),
(171,710,o),
(75,581,o),
(75,350,cs),
(75,119,o),
(171,-10,o),
(342,-10,cs)
);
},
{
closed = 1;
nodes = (
(607,-120,l),
(502,-27,o),
(416,76,o),
(351,189,c),
(326,170,l),
(387,54,o),
(469,-52,o),
(570,-148,c)
);
},
{
closed = 1;
nodes = (
(205,22,o),
(128,140,o),
(128,350,cs),
(128,560,o),
(205,678,o),
(342,678,cs),
(479,678,o),
(556,560,o),
(556,350,cs),
(556,140,o),
(479,22,o),
(342,22,cs)
);
}
);
userData = {
com.hugojourdan.ColorFlow = {
"0" = 0;
"1" = 0;
"10" = 0;
"11" = 0;
"2" = 0;
"3" = 0;
"4" = 0;
"5" = 0;
"6" = 0;
"7" = 0;
"8" = 0;
"9" = 0;
};
};
width = 684;
},
{
layerId = "FF73925E-1E34-445B-881D-5A7CAAA8E8BE";
metricRight = "=|-33";
shapes = (
{
closed = 1;
nodes = (
(546,-10,o),
(644,109,o),
(644,350,cs),
(644,591,o),
(546,710,o),
(346,710,cs),
(146,710,o),
(46,590,o),
(46,351,cs),
(46,111,o),
(147,-10,o),
(347,-10,cs)
);
},
{
closed = 1;
nodes = (
(677,-49,l),
(559,-7,o),
(476,50,o),
(428,118,c),
(386,86,l),
(421,8,o),
(491,-70,o),
(593,-148,c)
);
},
{
closed = 1;
nodes = (
(271,80,o),
(234,169,o),
(234,350,cs),
(234,531,o),
(271,620,o),
(346,620,cs),
(420,620,o),
(456,532,o),
(456,350,cs),
(456,169,o),
(420,80,o),
(346,80,cs)
);
}
);
userData = {
com.hugojourdan.ColorFlow = {
"0" = 0;
"1" = 0;
"10" = 0;
"11" = 0;
"2" = 0;
"3" = 0;
"4" = 0;
"5" = 0;
"6" = 0;
"7" = 0;
"8" = 0;
"9" = 0;
};
};
width = 690;
},
{
layerId = "BF6BA5B2-0556-42F4-A103-614BEBF16A1A";
metricRight = "=|-9";
shapes = (
{
closed = 1;
nodes = (
(524,-10,o),
(624,118,o),
(624,350,cs),
(624,586,o),
(527,710,o),
(344,710,cs),
(163,710,o),
(64,582,o),
(64,350,cs),
(64,113,o),
(159,-10,o),
(344,-10,cs)
);
},
{
closed = 1;
nodes = (
(633,-88,l),
(551,-51,o),
(490,2,o),
(448,70,c),
(417,46,l),
(452,-29,o),
(507,-93,o),
(586,-148,c)
);
},
{
closed = 1;
nodes = (
(226,38,o),
(169,139,o),
(169,351,cs),
(169,562,o),
(226,662,o),
(344,662,cs),
(461,662,o),
(519,560,o),
(519,351,cs),
(519,141,o),
(461,38,o),
(344,38,cs)
);
}
);
userData = {
com.hugojourdan.ColorFlow = {
"0" = 0;
"1" = 0;
"10" = 0;
"11" = 0;
"2" = 0;
"3" = 0;
"4" = 0;
"5" = 0;
"6" = 0;
"7" = 0;
"8" = 0;
"9" = 0;
};
};
width = 688;
},
{
layerId = m004;
shapes = (
{
closed = 1;
nodes = (
(513,-10,o),
(609,119,o),
(609,350,cs),
(609,581,o),
(513,710,o),
(342,710,cs),
(171,710,o),
(75,581,o),
(75,350,cs),
(75,119,o),
(171,-10,o),
(342,-10,cs)
);
},
{
closed = 1;
nodes = (
(607,-120,l),
(524,-16,o),
(440,89,o),
(357,193,c),
(320,165,l),
(403,61,o),
(487,-44,o),
(570,-148,c)
);
},
{
closed = 1;
nodes = (
(205,33,o),
(128,148,o),
(128,350,cs),
(128,552,o),
(205,667,o),
(342,667,cs),
(479,667,o),
(556,552,o),
(556,350,cs),
(556,148,o),
(479,33,o),
(342,33,cs)
);
}
);
userData = {
com.hugojourdan.ColorFlow = {
"0" = 0;
"1" = 0;
"10" = 0;
"11" = 0;
"2" = 0;
"3" = 0;
"4" = 0;
"5" = 0;
"6" = 0;
"7" = 0;
"8" = 0;
"9" = 0;
};
};
width = 684;
},
{
layerId = m005;
metricRight = "=|-9";
shapes = (
{
closed = 1;
nodes = (
(526,-10,o),
(624,116,o),
(624,350,cs),
(624,585,o),
(526,710,o),
(344,710,cs),
(160,710,o),
(64,585,o),
(64,350,cs),
(64,115,o),
(161,-10,o),
(344,-10,cs)
);
},
{
closed = 1;
nodes = (
(633,-102,l),
(576,-31,o),
(519,41,o),
(462,112,c),
(401,66,l),
(458,-5,o),
(515,-77,o),
(572,-148,c)
);
},
{
closed = 1;
nodes = (
(230,75,o),
(169,171,o),
(169,350,cs),
(169,530,o),
(230,626,o),
(344,626,cs),
(457,626,o),
(519,530,o),
(519,350,cs),
(519,171,o),
(457,75,o),
(344,75,cs)
);
}
);
userData = {
com.hugojourdan.ColorFlow = {
"0" = 0;
"1" = 0;
"10" = 0;
"11" = 0;
"2" = 0;
"3" = 0;
"4" = 0;
"5" = 0;
"6" = 0;
"7" = 0;
"8" = 0;
"9" = 0;
};
};
width = 688;
},
{
layerId = m006;
metricRight = "=|-33";
shapes = (
{
closed = 1;
nodes = (
(546,-10,o),
(644,110,o),
(644,351,cs),
(644,592,o),
(546,710,o),
(346,710,cs),
(146,710,o),
(46,591,o),
(46,351,cs),
(46,111,o),
(146,-10,o),
(346,-10,cs)
);
},
{
closed = 1;
nodes = (
(677,-69,l),
(615,9,o),
(552,87,o),
(490,165,c),
(386,86,l),
(448,8,o),
(511,-70,o),
(573,-148,c)
);
},
{
closed = 1;
nodes = (
(271,138,o),
(234,209,o),
(234,351,cs),
(234,493,o),
(271,562,o),
(346,562,cs),
(420,562,o),
(456,493,o),
(456,351,cs),
(456,207,o),
(420,138,o),
(346,138,cs)
);
}
);
userData = {
com.hugojourdan.ColorFlow = {
"0" = 0;
"1" = 0;
"10" = 0;
"11" = 0;
"2" = 0;
"3" = 0;
"4" = 0;
"5" = 0;
"6" = 0;
"7" = 0;
"8" = 0;
"9" = 0;
};
};
width = 690;
},
{
layerId = "4E5694F4-F64E-4331-B998-78BE273203C7";
shapes = (
{
closed = 1;
nodes = (
(563,-10,o),
(633,271,o),
(633,439,cs),
(633,612,o),
(550,710,o),
(394,710,cs),
(158,710,o),
(88,429,o),
(88,261,cs),
(88,88,o),
(171,-10,o),
(327,-10,cs)
);
},
{
closed = 1;
nodes = (
(545,-141,l),
(481,-30,o),
(415,82,o),
(350,192,c),
(308,167,l),
(374,57,o),
(439,-55,o),
(504,-165,c)
);
},
{
closed = 1;
nodes = (
(204,33,o),
(141,116,o),
(141,263,cs),
(141,410,o),
(198,667,o),
(393,667,cs),
(517,667,o),
(580,584,o),
(580,437,cs),
(580,292,o),
(523,33,o),
(328,33,cs)
);
}
);
userData = {
com.hugojourdan.ColorFlow = {
"0" = 0;
"1" = 0;
"10" = 0;
"11" = 0;
"2" = 0;
"3" = 0;
"4" = 0;
"5" = 0;
"6" = 0;
"7" = 0;
"8" = 0;
"9" = 0;
};
};
width = 684;
},
{
layerId = "DF4E5521-40BA-460F-874A-364F4D14AAD8";
metricRight = "=|-9";
shapes = (
{
closed = 1;
nodes = (
(580,-10,o),
(647,269,o),
(647,438,cs),
(647,615,o),
(560,710,o),
(392,710,cs),
(138,710,o),
(77,421,o),
(77,262,cs),
(77,82,o),
(169,-10,o),
(332,-10,cs)
);
},
{
closed = 1;
nodes = (
(571,-124,l),
(526,-49,o),
(482,28,o),
(438,103,c),
(369,62,l),
(414,-13,o),
(459,-90,o),
(503,-165,c)
);
},
{
closed = 1;
nodes = (
(233,74,o),
(182,141,o),
(182,266,cs),
(182,388,o),
(229,626,o),
(393,626,cs),
(490,626,o),
(542,559,o),
(542,434,cs),
(542,312,o),
(496,74,o),
(331,74,cs)
);
}
);
userData = {
com.hugojourdan.ColorFlow = {
"0" = 0;
"1" = 0;
"10" = 0;
"11" = 0;
"2" = 0;
"3" = 0;
"4" = 0;
"5" = 0;
"6" = 0;
"7" = 0;
"8" = 0;
"9" = 0;
};
};
width = 688;
},
{
layerId = "C6DE9ED7-34B3-46A1-8A00-A72C4A5E93A3";
metricRight = "=|-33";
shapes = (
{
closed = 1;
nodes = (
(610,-10,o),
(665,277,o),
(665,435,cs),
(665,635,o),
(552,710,o),
(384,710,cs),
(113,710,o),
(58,423,o),
(58,265,cs),
(58,65,o),
(175,-10,o),
(339,-10,cs)
);
},
{
closed = 1;
nodes = (
(619,-94,l),
(571,-11,o),
(521,72,o),
(473,155,c),
(357,85,l),
(405,2,o),
(454,-81,o),
(503,-164,c)
);
},
{
closed = 1;
nodes = (
(275,138,o),
(244,182,o),
(244,270,cs),
(244,356,o),
(272,562,o),
(387,562,cs),
(449,562,o),
(479,518,o),
(479,430,cs),
(479,344,o),
(452,138,o),
(337,138,cs)
);
}
);
userData = {
com.hugojourdan.ColorFlow = {
"0" = 0;
"1" = 0;
"10" = 0;
"11" = 0;
"2" = 0;
"3" = 0;
"4" = 0;
"5" = 0;
"6" = 0;
"7" = 0;
"8" = 0;
"9" = 0;
};
};
width = 690;
},
{
layerId = "D2741A44-CB8E-4434-9CC9-735A9A127F4C";
shapes = (
{
closed = 1;
nodes = (
(563,-10,o),
(633,271,o),
(633,439,cs),
(633,612,o),
(550,710,o),
(394,710,cs),
(158,710,o),
(88,429,o),
(88,261,cs),
(88,88,o),
(171,-10,o),
(327,-10,cs)
);
},
{
closed = 1;
nodes = (
(546,-140,l),
(458,-38,o),
(390,72,o),
(344,190,c),
(316,173,l),
(356,52,o),
(416,-63,o),
(505,-164,c)
);
},
{
closed = 1;
nodes = (
(204,22,o),
(139,105,o),
(139,254,cs),
(139,400,o),
(197,678,o),
(396,678,cs),
(517,678,o),
(582,595,o),
(582,446,cs),
(582,300,o),
(524,22,o),
(324,22,cs)
);
}
);
userData = {
com.hugojourdan.ColorFlow = {
"0" = 0;
"1" = 0;
"10" = 0;
"11" = 0;
"2" = 0;
"3" = 0;
"4" = 0;
"5" = 0;
"6" = 0;
"7" = 0;
"8" = 0;
"9" = 0;
};
};
width = 684;
},
{
layerId = "0B63B416-D10E-4459-8DAA-360BF3D1BFD2";
metricRight = "=|-9";
shapes = (
{
closed = 1;
nodes = (
(580,-10,o),
(647,269,o),
(647,438,cs),
(647,615,o),
(560,710,o),
(392,710,cs),
(138,710,o),
(77,421,o),
(77,262,cs),
(77,82,o),
(169,-10,o),
(332,-10,cs)
);
},
{
closed = 1;
nodes = (
(574,-110,l),
(499,-67,o),
(447,-9,o),
(417,62,c),
(382,41,l),
(405,-37,o),
(448,-105,o),
(518,-166,c)
);
},
{
closed = 1;
nodes = (
(225,38,o),
(179,111,o),
(179,235,cs),
(179,366,o),
(221,662,o),
(398,662,cs),
(499,662,o),
(545,589,o),
(545,465,cs),
(545,334,o),
(503,38,o),
(326,38,cs)
);
}
);
userData = {
com.hugojourdan.ColorFlow = {
"0" = 0;
"1" = 0;
"10" = 0;
"11" = 0;
"2" = 0;
"3" = 0;
"4" = 0;
"5" = 0;
"6" = 0;
"7" = 0;
"8" = 0;
"9" = 0;
};
};
width = 688;
},
{
layerId = "EE3858F4-A475-4EBA-A8F4-31CE9F38567C";
metricRight = "=|-33";
shapes = (
{
closed = 1;
nodes = (
(610,-10,o),
(665,277,o),
(665,435,cs),
(665,635,o),
(552,710,o),
(384,710,cs),
(113,710,o),
(58,423,o),
(58,265,cs),
(58,65,o),
(175,-10,o),
(339,-10,cs)
);
},
{
closed = 1;
nodes = (
(623,-74,l),
(512,-22,o),
(439,41,o),
(403,113,c),
(357,85,l),
(378,4,o),
(434,-80,o),
(523,-166,c)
);
},
{
closed = 1;
nodes = (
(268,81,o),
(239,129,o),
(239,225,cs),
(239,327,o),
(277,619,o),
(401,619,cs),
(455,619,o),
(484,571,o),
(484,475,cs),
(484,373,o),
(446,81,o),
(322,81,cs)
);
}
);
userData = {
com.hugojourdan.ColorFlow = {
"0" = 0;
"1" = 0;
"10" = 0;
"11" = 0;
"2" = 0;
"3" = 0;
"4" = 0;
"5" = 0;
"6" = 0;
"7" = 0;
"8" = 0;
"9" = 0;
};
};
width = 690;
}
);
metricLeft = "=O";
metricRight = "=|";
note = Q;
unicode = 81;
},
{
glyphname = R;
layers = (
{
layerId = m01;
shapes = (
{
closed = 1;
nodes = (
(144,0,l),
(144,687,l),
(125,668,l),
(248,668,ls),
(390,668,o),
(470,612,o),
(470,512,cs),
(470,415,o),
(390,360,o),
(248,360,cs),
(136,360,l),
(136,328,l),
(250,328,ls),
(424,328,o),
(522,394,o),
(522,512,cs),
(522,633,o),
(425,700,o),
(250,700,cs),
(96,700,l),
(96,0,l)
);
},
{
closed = 1;
nodes = (
(556,0,l),
(289,347,l),
(233,347,l),
(496,0,l)
);
}
);
userData = {
com.hugojourdan.ColorFlow = {
"0" = 0;
"1" = 0;
"10" = 0;
"11" = 0;
"2" = 0;
"3" = 0;
"4" = 0;
"5" = 0;
"6" = 0;
"7" = 0;
"8" = 0;
"9" = 0;
};
};
width = 588;
},
{
layerId = "FF73925E-1E34-445B-881D-5A7CAAA8E8BE";
shapes = (
{
closed = 1;
nodes = (
(235,0,l),
(235,655,l),
(190,614,l),
(277,614,ls),
(367,614,o),
(416,572,o),
(416,496,cs),
(416,421,o),
(366,378,o),
(277,378,cs),
(147,378,l),
(147,293,l),
(287,293,ls),
(489,293,o),
(602,366,o),
(602,497,cs),
(602,627,o),
(489,700,o),
(287,700,cs),
(58,700,l),
(58,0,l)
);
},
{
closed = 1;
nodes = (
(637,0,l),
(439,344,l),
(268,344,l),
(447,0,l)
);
}
);
userData = {
com.hugojourdan.ColorFlow = {
"0" = 0;
"1" = 0;
"10" = 0;
"11" = 0;
"2" = 0;
"3" = 0;
"4" = 0;
"5" = 0;
"6" = 0;
"7" = 0;
"8" = 0;
"9" = 0;
};
};
width = 643;
},
{
layerId = "BF6BA5B2-0556-42F4-A103-614BEBF16A1A";
shapes = (
{
closed = 1;
nodes = (
(184,0,l),
(184,669,l),
(165,650,l),
(284,650,ls),
(392,650,o),
(450,603,o),
(450,508,cs),
(450,412,o),
(392,365,o),
(284,365,cs),
(172,365,l),
(172,315,l),
(289,315,ls),
(463,315,o),
(554,379,o),
(554,508,cs),
(554,636,o),
(463,700,o),
(289,700,cs),
(86,700,l),
(86,0,l)
);
},
{
closed = 1;
nodes = (
(592,0,l),
(361,332,l),
(256,332,l),
(481,0,l)
);
}
);
userData = {
com.hugojourdan.ColorFlow = {
"0" = 0;
"1" = 0;
"10" = 0;
"11" = 0;
"2" = 0;
"3" = 0;
"4" = 0;
"5" = 0;
"6" = 0;
"7" = 0;
"8" = 0;
"9" = 0;
};
};
width = 612;
},
{
layerId = m004;
shapes = (
{
closed = 1;
nodes = (
(144,0,l),
(144,681,l),
(120,658,l),
(258,658,ls),
(394,658,o),
(470,606,o),
(470,514,cs),
(470,422,o),
(394,370,o),
(258,370,cs),
(120,370,l),
(120,328,l),
(260,328,ls),
(428,328,o),
(522,395,o),
(522,514,cs),
(522,633,o),
(428,700,o),
(260,700,cs),
(96,700,l),
(96,0,l)
);
},
{
closed = 1;
nodes = (
(556,0,l),
(289,347,l),
(232,347,l),
(495,0,l)
);
}
);
userData = {
com.hugojourdan.ColorFlow = {
"0" = 0;
"1" = 0;
"10" = 0;
"11" = 0;
"2" = 0;
"3" = 0;
"4" = 0;
"5" = 0;
"6" = 0;
"7" = 0;
"8" = 0;
"9" = 0;
};
};
width = 588;
},
{
layerId = m005;
shapes = (
{
closed = 1;
nodes = (
(184,0,l),
(184,652,l),
(154,622,l),
(274,622,ls),
(393,622,o),
(451,577,o),
(451,497,cs),
(451,418,o),
(393,374,o),
(274,374,cs),
(173,374,l),
(173,296,l),
(275,296,ls),
(459,296,o),
(556,368,o),
(556,497,cs),
(556,627,o),
(459,700,o),
(275,700,cs),
(86,700,l),
(86,0,l)
);
},
{
closed = 1;
nodes = (
(592,0,l),
(351,346,l),
(247,346,l),
(481,0,l)
);
}
);
userData = {
com.hugojourdan.ColorFlow = {
"0" = 0;
"1" = 0;
"10" = 0;
"11" = 0;
"2" = 0;
"3" = 0;
"4" = 0;
"5" = 0;
"6" = 0;
"7" = 0;
"8" = 0;
"9" = 0;
};
};
width = 612;
},
{
layerId = m006;
shapes = (
{
closed = 1;
nodes = (
(235,0,l),
(235,610,l),
(189,564,l),
(317,564,ls),
(384,564,o),
(416,538,o),
(416,483,cs),
(416,428,o),
(384,402,o),
(317,402,cs),
(219,402,l),
(219,267,l),
(307,267,ls),
(503,267,o),
(602,340,o),
(602,484,cs),
(602,628,o),
(503,700,o),
(307,700,cs),
(58,700,l),
(58,0,l)
);
},
{
closed = 1;
nodes = (
(637,0,l),
(438,344,l),
(268,344,l),
(447,0,l)
);
}
);
userData = {
com.hugojourdan.ColorFlow = {
"0" = 0;
"1" = 0;
"10" = 0;
"11" = 0;
"2" = 0;
"3" = 0;
"4" = 0;
"5" = 0;
"6" = 0;
"7" = 0;
"8" = 0;
"9" = 0;
};
};
width = 643;
},
{
layerId = "4E5694F4-F64E-4331-B998-78BE273203C7";
shapes = (
{
closed = 1;
nodes = (
(104,0,l),
(217,676,l),
(199,658,l),
(291,658,ls),
(457,658,o),
(517,603,o),
(517,521,cs),
(517,428,o),
(429,370,o),
(305,370,cs),
(144,370,l),
(137,328,l),
(307,328,ls),
(468,328,o),
(567,406,o),
(567,523,cs),
(567,631,o),
(489,700,o),
(299,700,cs),
(173,700,l),
(56,0,l)
);
},
{
closed = 1;
nodes = (
(516,0,l),
(317,354,l),
(265,354,l),
(461,0,l)
);
}
);
userData = {
com.hugojourdan.ColorFlow = {
"0" = 0;
"1" = 0;
"10" = 0;
"11" = 0;
"2" = 0;
"3" = 0;
"4" = 0;
"5" = 0;
"6" = 0;
"7" = 0;
"8" = 0;
"9" = 0;
};
};
width = 588;
},
{
layerId = "DF4E5521-40BA-460F-874A-364F4D14AAD8";
shapes = (
{
closed = 1;
nodes = (
(143,0,l),
(252,652,l),
(217,622,l),
(314,622,ls),
(435,622,o),
(492,585,o),
(492,509,cs),
(492,431,o),
(430,374,o),
(329,374,cs),
(156,374,l),
(144,296,l),
(328,296,ls),
(496,296,o),
(596,383,o),
(596,510,cs),
(596,635,o),
(501,700,o),
(319,700,cs),
(162,700,l),
(45,0,l)
);
},
{
closed = 1;
nodes = (
(551,0,l),
(380,346,l),
(281,346,l),
(446,0,l)
);
}
);
userData = {
com.hugojourdan.ColorFlow = {
"0" = 0;
"1" = 0;
"10" = 0;
"11" = 0;
"2" = 0;
"3" = 0;
"4" = 0;
"5" = 0;
"6" = 0;
"7" = 0;
"8" = 0;
"9" = 0;
};
};
width = 612;
},
{
layerId = "C6DE9ED7-34B3-46A1-8A00-A72C4A5E93A3";
shapes = (
{
closed = 1;
nodes = (
(194,0,l),
(296,610,l),
(243,564,l),
(366,564,ls),
(425,564,o),
(453,541,o),
(453,493,cs),
(453,437,o),
(416,402,o),
(358,402,cs),
(172,402,l),
(150,267,l),
(365,267,ls),
(538,267,o),
(638,358,o),
(638,498,cs),
(638,630,o),
(549,700,o),
(380,700,cs),
(133,700,l),
(16,0,l)
);
},
{
closed = 1;
nodes = (
(595,0,l),
(461,344,l),
(294,344,l),
(408,0,l)
);
}
);
userData = {
com.hugojourdan.ColorFlow = {
"0" = 0;
"1" = 0;
"10" = 0;
"11" = 0;
"2" = 0;
"3" = 0;
"4" = 0;
"5" = 0;
"6" = 0;
"7" = 0;
"8" = 0;
"9" = 0;
};
};
width = 643;
},
{
background = {
shapes = (
{
closed = 0;
nodes = (
(173,700,l),
(56,0,l),
(104,0,l),
(219,687,l),
(197,668,l)
);
},
{
closed = 1;
nodes = (
(505,0,l),
(310,347,l),
(256,347,l),
(448,0,l)
);
},
{
closed = 0;
nodes = (
(315,328,ls),
(456,328,o),
(569,388,o),
(569,525,cs),
(569,625,o),
(484,687,o),
(328,700,c)
);
},
{
closed = 0;
nodes = (
(321,668,l),
(448,658,o),
(517,605,o),
(517,523,cs),
(517,414,o),
(428,360,o),
(307,360,cs)
);
}
);
};
guides = (
{
angle = 80.5;
pos = (96,239);
},
{
angle = 80.5;
pos = (144,239);
},
{
angle = 80.5;
pos = (556,239);
},
{
angle = 80.5;
pos = (522,239);
},
{
angle = 80.5;
pos = (470,239);
}
);
layerId = "D2741A44-CB8E-4434-9CC9-735A9A127F4C";
shapes = (
{
closed = 1;
nodes = (
(104,0,l),
(219,687,l),
(197,668,l),
(301,668,ls),
(437,668,o),
(514,613,o),
(514,516,cs),
(514,421,o),
(434,360,o),
(307,360,cs),
(140,360,l),
(135,328,l),
(315,328,ls),
(469,328,o),
(566,402,o),
(566,520,cs),
(566,637,o),
(471,700,o),
(294,700,cs),
(173,700,l),
(56,0,l)
);
},
{
closed = 1;
nodes = (
(516,0,l),
(321,347,l),
(267,347,l),
(459,0,l)
);
}
);
userData = {
com.hugojourdan.ColorFlow = {
"0" = 0;
"1" = 0;
"10" = 0;
"11" = 0;
"2" = 0;
"3" = 0;
"4" = 0;
"5" = 0;
"6" = 0;
"7" = 0;
"8" = 0;
"9" = 0;
};
};
width = 588;
},
{
background = {
shapes = (
{
closed = 0;
nodes = (
(351,315,ls),
(507,315,o),
(599,390,o),
(599,525,cs),
(599,629,o),
(520,687,o),
(365,700,c)
);
},
{
closed = 0;
nodes = (
(352,650,l),
(447,642,o),
(496,601,o),
(496,528,cs),
(496,435,o),
(444,365,o),
(332,365,cs)
);
}
);
};
guides = (
{
angle = 80.5;
pos = (86,245);
},
{
angle = 80.5;
pos = (184,245);
},
{
angle = 80.5;
pos = (554,245);
},
{
angle = 80.5;
pos = (450,245);
}
);
layerId = "0B63B416-D10E-4459-8DAA-360BF3D1BFD2";
shapes = (
{
closed = 1;
nodes = (
(143,0,l),
(255,669,l),
(230,650,l),
(336,650,ls),
(442,650,o),
(493,607,o),
(493,519,cs),
(493,425,o),
(430,365,o),
(332,365,cs),
(192,365,l),
(184,315,l),
(351,315,ls),
(504,315,o),
(596,391,o),
(596,518,cs),
(596,641,o),
(507,700,o),
(324,700,cs),
(162,700,l),
(45,0,l)
);
},
{
closed = 1;
nodes = (
(551,0,l),
(386,332,l),
(288,332,l),
(446,0,l)
);
}
);
userData = {
com.hugojourdan.ColorFlow = {
"0" = 0;
"1" = 0;
"10" = 0;
"11" = 0;
"2" = 0;
"3" = 0;
"4" = 0;
"5" = 0;
"6" = 0;
"7" = 0;
"8" = 0;
"9" = 0;
};
};
width = 612;
},
{
background = {
shapes = (
{
closed = 0;
nodes = (
(644,505,ls),
(644,615,o),
(545,685,o),
(363,700,c)
);
},
{
closed = 0;
nodes = (
(339,610,l),
(417,603,o),
(460,567,o),
(460,508,cs)
);
}
);
};
guides = (
{
angle = 80.5;
pos = (58,251);
},
{
angle = 80.5;
pos = (236,251);
},
{
angle = 80.5;
pos = (602,251);
},
{
angle = 80.5;
pos = (416,251);
}
);
layerId = "EE3858F4-A475-4EBA-A8F4-31CE9F38567C";
shapes = (
{
closed = 1;
nodes = (
(194,0,l),
(303,651,l),
(255,614,l),
(319,614,ls),
(409,614,o),
(457,577,o),
(457,508,cs),
(457,430,o),
(403,378,o),
(324,378,cs),
(169,378,l),
(155,293,l),
(355,293,ls),
(531,293,o),
(641,373,o),
(641,501,cs),
(641,629,o),
(527,700,o),
(321,700,cs),
(133,700,l),
(16,0,l)
);
},
{
closed = 1;
nodes = (
(595,0,l),
(462,344,l),
(298,344,l),
(413,0,l)
);
}
);
userData = {
com.hugojourdan.ColorFlow = {
"0" = 0;
"1" = 0;
"10" = 0;
"11" = 0;
"2" = 0;
"3" = 0;
"4" = 0;
"5" = 0;
"6" = 0;
"7" = 0;
"8" = 0;
"9" = 0;
};
};
width = 643;
}
);
metricLeft = "=H";
note = R;
unicode = 82;
},
{
glyphname = S;
layers = (
{
anchors = (
{
name = bottom;
pos = (266,0);
},
{
name = top;
pos = (266,700);
}
);
guides = (
{
angle = 236.31;
pos = (74,103);
},
{
angle = 157.8336;
pos = (240,346);
}
);
layerId = m01;
shapes = (
{
closed = 1;
nodes = (
(384,-10,o),
(474,72,o),
(474,186,cs),
(474,268,o),
(420,326,o),
(295,378,cs),
(162,433,o),
(125,477,o),
(125,546,cs),
(125,625,o),
(185,678,o),
(273,678,cs),
(341,678,o),
(398,649,o),
(425,602,c),
(458,637,l),
(416,683,o),
(350,710,o),
(279,710,cs),
(161,710,o),
(76,637,o),
(76,535,cs),
(76,453,o),
(122,395,o),
(247,343,cs),
(380,288,o),
(425,244,o),
(425,175,cs),
(425,86,o),
(360,22,o),
(269,22,cs),
(192,22,o),
(130,61,o),
(94,133,c),
(59,81,l),
(103,25,o),
(181,-10,o),
(262,-10,cs)
);
}
);
userData = {
com.hugojourdan.ColorFlow = {
"0" = 0;
"1" = 0;
"10" = 0;
"11" = 0;
"2" = 0;
"3" = 0;
"4" = 0;
"5" = 0;
"6" = 0;
"7" = 0;
"8" = 0;
"9" = 0;
};
};
width = 545;
},
{
anchors = (
{
name = bottom;
pos = (283,0);
},
{
name = top;
pos = (283,700);
}
);
layerId = "BF6BA5B2-0556-42F4-A103-614BEBF16A1A";
shapes = (
{
closed = 1;
nodes = (
(416,-10,o),
(514,76,o),
(514,191,cs),
(514,317,o),
(394,372,o),
(313,407,cs),
(226,445,o),
(164,475,o),
(164,558,cs),
(164,624,o),
(209,664,o),
(280,664,cs),
(347,664,o),
(395,628,o),
(437,549,c),
(494,604,l),
(445,674,o),
(375,710,o),
(288,710,cs),
(160,710,o),
(71,633,o),
(71,524,cs),
(71,399,o),
(181,345,o),
(266,308,cs),
(353,270,o),
(421,240,o),
(421,157,cs),
(421,84,o),
(369,38,o),
(292,38,cs),
(211,38,o),
(148,88,o),
(107,187,c),
(50,110,l),
(97,37,o),
(188,-10,o),
(285,-10,cs)
);
}
);
userData = {
com.hugojourdan.ColorFlow = {
"0" = 0;
"1" = 0;
"10" = 0;
"11" = 0;
"2" = 0;
"3" = 0;
"4" = 0;
"5" = 0;
"6" = 0;
"7" = 0;
"8" = 0;
"9" = 0;
};
};
width = 574;
},
{
anchors = (
{
name = bottom;
pos = (299,0);
},
{
name = top;
pos = (299,700);
}
);
layerId = "FF73925E-1E34-445B-881D-5A7CAAA8E8BE";
name = Bold;
shapes = (
{
closed = 1;
nodes = (
(454,-10,o),
(559,80,o),
(559,205,cs),
(559,300,o),
(498,369,o),
(365,433,cs),
(261,483,o),
(230,520,o),
(230,566,cs),
(230,602,o),
(255,622,o),
(298,622,cs),
(355,622,o),
(406,583,o),
(448,506,c),
(544,599,l),
(473,675,o),
(395,710,o),
(299,710,cs),
(153,710,o),
(56,631,o),
(56,512,cs),
(56,416,o),
(110,348,o),
(243,284,cs),
(347,234,o),
(383,197,o),
(383,151,cs),
(383,109,o),
(353,80,o),
(310,80,cs),
(250,80,o),
(184,135,o),
(124,234,c),
(36,115,l),
(93,38,o),
(198,-10,o),
(307,-10,cs)
);
}
);
userData = {
com.hugojourdan.ColorFlow = {
"0" = 0;
"1" = 0;
"10" = 0;
"11" = 0;
"2" = 0;
"3" = 0;
"4" = 0;
"5" = 0;
"6" = 0;
"7" = 0;
"8" = 0;
"9" = 0;
};
};
width = 602;
},
{
anchors = (
{
name = bottom;
pos = (262,0);
},
{
name = top;
pos = (269,700);
}
);
layerId = m004;
shapes = (
{
closed = 1;
nodes = (
(371,-10,o),
(473,50,o),
(473,176,cs),
(473,292,o),
(371,342,o),
(277,386,cs),
(194,425,o),
(116,464,o),
(116,543,cs),
(116,615,o),
(177,666,o),
(266,666,cs),
(331,666,o),
(391,638,o),
(417,602,c),
(450,637,l),
(405,686,o),
(337,710,o),
(271,710,cs),
(168,710,o),
(68,651,o),
(68,537,cs),
(68,430,o),
(164,383,o),
(256,339,cs),
(342,298,o),
(425,256,o),
(425,168,cs),
(425,90,o),
(354,34,o),
(260,34,cs),
(190,34,o),
(125,67,o),
(88,118,c),
(59,81,l),
(107,21,o),
(187,-10,o),
(264,-10,cs)
);
}
);
userData = {
com.hugojourdan.ColorFlow = {
"0" = 0;
"1" = 0;
"10" = 0;
"11" = 0;
"2" = 0;
"3" = 0;
"4" = 0;
"5" = 0;
"6" = 0;
"7" = 0;
"8" = 0;
"9" = 0;
};
};
width = 544;
},
{
anchors = (
{
name = bottom;
pos = (283,0);
},
{
name = top;
pos = (286,700);
}
);
layerId = m005;
shapes = (
{
closed = 1;
nodes = (
(404,-10,o),
(514,56,o),
(514,190,cs),
(514,319,o),
(404,363,o),
(308,403,cs),
(231,434,o),
(162,462,o),
(162,526,cs),
(162,583,o),
(204,628,o),
(284,628,cs),
(350,628,o),
(408,598,o),
(437,559,c),
(500,622,l),
(449,681,o),
(369,710,o),
(290,710,cs),
(161,710,o),
(65,633,o),
(65,517,cs),
(65,395,o),
(171,352,o),
(266,313,cs),
(346,280,o),
(418,250,o),
(418,181,cs),
(418,117,o),
(361,72,o),
(282,72,cs),
(207,72,o),
(142,111,o),
(111,156,c),
(50,86,l),
(97,28,o),
(182,-10,o),
(283,-10,cs)
);
}
);
userData = {
com.hugojourdan.ColorFlow = {
"0" = 0;
"1" = 0;
"10" = 0;
"11" = 0;
"2" = 0;
"3" = 0;
"4" = 0;
"5" = 0;
"6" = 0;
"7" = 0;
"8" = 0;
"9" = 0;
};
};
width = 574;
},
{
anchors = (
{
name = bottom;
pos = (299,0);
},
{
name = top;
pos = (292,700);
}
);
layerId = m006;
name = Bold;
shapes = (
{
closed = 1;
nodes = (
(436,-10,o),
(559,66,o),
(559,206,cs),
(559,325,o),
(489,386,o),
(328,439,cs),
(235,470,o),
(220,489,o),
(220,521,cs),
(220,548,o),
(242,566,o),
(282,566,cs),
(328,566,o),
(388,541,o),
(428,490,c),
(539,599,l),
(474,677,o),
(382,710,o),
(291,710,cs),
(130,710,o),
(40,607,o),
(40,503,cs),
(40,384,o),
(110,323,o),
(271,270,cs),
(364,239,o),
(379,220,o),
(379,188,cs),
(379,152,o),
(352,136,o),
(306,136,cs),
(251,136,o),
(182,163,o),
(147,215,c),
(36,95,l),
(80,39,o),
(174,-10,o),
(291,-10,cs)
);
}
);
userData = {
com.hugojourdan.ColorFlow = {
"0" = 0;
"1" = 0;
"10" = 0;
"11" = 0;
"2" = 0;
"3" = 0;
"4" = 0;
"5" = 0;
"6" = 0;
"7" = 0;
"8" = 0;
"9" = 0;
};
};
width = 602;
},
{
anchors = (
{
name = bottom;
pos = (240,0);
},
{
name = top;
pos = (332,700);
}
);
background = {
shapes = (
{
closed = 1;
nodes = (
(364,-10,o),
(462,72,o),
(462,189,cs),
(462,285,o),
(378,336,o),
(300,383,cs),
(230,425,o),
(168,464,o),
(168,532,cs),
(168,596,o),
(220,668,o),
(319,668,cs),
(391,668,o),
(453,631,o),
(474,589,c),
(513,621,l),
(472,679,o),
(398,710,o),
(325,710,cs),
(209,710,o),
(119,634,o),
(119,526,cs),
(119,437,o),
(195,388,o),
(271,342,cs),
(343,298,o),
(413,256,o),
(413,183,cs),
(413,94,o),
(334,32,o),
(243,32,cs),
(165,32,o),
(102,74,o),
(71,134,c),
(36,99,l),
(78,29,o),
(159,-10,o),
(243,-10,cs)
);
}
);
};
layerId = "4E5694F4-F64E-4331-B998-78BE273203C7";
shapes = (
{
closed = 1;
nodes = (
(363,-10,o),
(461,73,o),
(461,184,cs),
(461,284,o),
(379,338,o),
(300,384,cs),
(228,426,o),
(167,463,o),
(167,532,cs),
(167,595,o),
(220,666,o),
(319,666,cs),
(391,666,o),
(453,630,o),
(474,589,c),
(513,621,l),
(472,679,o),
(398,710,o),
(325,710,cs),
(209,710,o),
(119,633,o),
(119,530,cs),
(119,437,o),
(191,389,o),
(271,341,cs),
(348,295,o),
(413,251,o),
(413,182,cs),
(413,96,o),
(333,34,o),
(242,34,cs),
(166,34,o),
(102,75,o),
(71,134,c),
(36,99,l),
(78,29,o),
(159,-10,o),
(242,-10,cs)
);
}
);
userData = {
com.hugojourdan.ColorFlow = {
"0" = 0;
"1" = 0;
"10" = 0;
"11" = 0;
"2" = 0;
"3" = 0;
"4" = 0;
"5" = 0;
"6" = 0;
"7" = 0;
"8" = 0;
"9" = 0;
};
};
width = 544;
},
{
anchors = (
{
name = bottom;
pos = (261,0);
},
{
name = top;
pos = (358,700);
}
);
background = {
shapes = (
{
closed = 1;
nodes = (
(406,-10,o),
(503,75,o),
(503,205,cs),
(503,310,o),
(412,357,o),
(331,401,cs),
(265,435,o),
(206,467,o),
(206,522,cs),
(206,570,o),
(246,628,o),
(328,628,cs),
(402,628,o),
(461,590,o),
(485,545,c),
(558,603,l),
(512,674,o),
(426,710,o),
(339,710,cs),
(209,710,o),
(107,623,o),
(107,502,cs),
(107,403,o),
(196,357,o),
(275,314,cs),
(344,278,o),
(404,244,o),
(404,185,cs),
(404,117,o),
(339,72,o),
(268,72,cs),
(187,72,o),
(123,119,o),
(98,171,c),
(26,106,l),
(73,27,o),
(180,-10,o),
(265,-10,cs)
);
}
);
};
layerId = "DF4E5521-40BA-460F-874A-364F4D14AAD8";
shapes = (
{
closed = 1;
nodes = (
(405,-10,o),
(503,78,o),
(503,200,cs),
(503,306,o),
(427,348,o),
(332,399,cs),
(260,437,o),
(206,467,o),
(206,523,cs),
(206,570,o),
(245,628,o),
(331,628,cs),
(401,628,o),
(461,590,o),
(485,545,c),
(558,603,l),
(513,673,o),
(426,710,o),
(341,710,cs),
(209,710,o),
(107,622,o),
(107,507,cs),
(107,406,o),
(186,363,o),
(274,316,cs),
(356,272,o),
(404,241,o),
(404,184,cs),
(404,117,o),
(341,72,o),
(265,72,cs),
(189,72,o),
(124,119,o),
(99,171,c),
(27,106,l),
(75,26,o),
(180,-10,o),
(268,-10,cs)
);
}
);
userData = {
com.hugojourdan.ColorFlow = {
"0" = 0;
"1" = 0;
"10" = 0;
"11" = 0;
"2" = 0;
"3" = 0;
"4" = 0;
"5" = 0;
"6" = 0;
"7" = 0;
"8" = 0;
"9" = 0;
};
};
width = 574;
},
{
anchors = (
{
name = bottom;
pos = (253,0);
},
{
name = top;
pos = (370,700);
}
);
layerId = "C6DE9ED7-34B3-46A1-8A00-A72C4A5E93A3";
name = Bold;
shapes = (
{
closed = 1;
nodes = (
(431,-10,o),
(552,82,o),
(552,232,cs),
(552,324,o),
(491,378,o),
(358,437,cs),
(281,471,o),
(265,488,o),
(265,514,cs),
(265,548,o),
(291,566,o),
(326,566,cs),
(374,566,o),
(433,536,o),
(467,479,c),
(595,578,l),
(535,674,o),
(435,710,o),
(337,710,cs),
(182,710,o),
(81,603,o),
(81,476,cs),
(81,384,o),
(143,331,o),
(276,272,cs),
(353,238,o),
(368,218,o),
(368,191,cs),
(368,153,o),
(344,136,o),
(300,136,cs),
(245,136,o),
(171,169,o),
(143,228,c),
(14,117,l),
(63,32,o),
(179,-10,o),
(281,-10,cs)
);
}
);
userData = {
com.hugojourdan.ColorFlow = {
"0" = 0;
"1" = 0;
"10" = 0;
"11" = 0;
"2" = 0;
"3" = 0;
"4" = 0;
"5" = 0;
"6" = 0;
"7" = 0;
"8" = 0;
"9" = 0;
};
};
width = 602;
},
{
anchors = (
{
name = bottom;
pos = (226,0);
},
{
name = top;
pos = (343,700);
}
);
layerId = "D2741A44-CB8E-4434-9CC9-735A9A127F4C";
shapes = (
{
closed = 1;
nodes = (
(364,-10,o),
(464,83,o),
(464,196,cs),
(464,281,o),
(404,324,o),
(316,380,cs),
(208,449,o),
(177,477,o),
(177,541,cs),
(177,617,o),
(244,678,o),
(333,678,cs),
(402,678,o),
(463,641,o),
(482,589,c),
(521,621,l),
(484,676,o),
(413,710,o),
(334,710,cs),
(214,710,o),
(126,630,o),
(126,527,cs),
(126,442,o),
(178,399,o),
(266,343,cs),
(374,274,o),
(413,246,o),
(413,182,cs),
(413,95,o),
(340,22,o),
(243,22,cs),
(164,22,o),
(104,71,o),
(80,148,c),
(36,99,l),
(75,33,o),
(155,-10,o),
(241,-10,cs)
);
}
);
userData = {
com.hugojourdan.ColorFlow = {
"0" = 0;
"1" = 0;
"10" = 0;
"11" = 0;
"2" = 0;
"3" = 0;
"4" = 0;
"5" = 0;
"6" = 0;
"7" = 0;
"8" = 0;
"9" = 0;
};
};
width = 545;
},
{
anchors = (
{
name = bottom;
pos = (242,0);
},
{
name = top;
pos = (359,700);
}
);
guides = (
{
angle = 80.5;
pos = (50,245);
},
{
angle = 80.5;
pos = (514,245);
},
{
angle = 80.5;
pos = (494,245);
},
{
angle = 80.5;
pos = (71,245);
},
{
angle = 80.5;
pos = (164,245);
},
{
angle = 80.5;
pos = (421,245);
},
{
angle = -31.7116;
pos = (279,308);
}
);
layerId = "0B63B416-D10E-4459-8DAA-360BF3D1BFD2";
shapes = (
{
closed = 1;
nodes = (
(398,-10,o),
(504,83,o),
(504,199,cs),
(504,272,o),
(458,329,o),
(337,404,cs),
(239,465,o),
(216,498,o),
(216,548,cs),
(216,618,o),
(265,664,o),
(339,664,cs),
(409,664,o),
(455,624,o),
(486,536,c),
(551,586,l),
(511,666,o),
(439,710,o),
(346,710,cs),
(217,710,o),
(118,625,o),
(118,514,cs),
(118,441,o),
(158,384,o),
(279,309,cs),
(377,248,o),
(406,215,o),
(406,165,cs),
(406,91,o),
(350,38,o),
(271,38,cs),
(186,38,o),
(123,99,o),
(100,203,c),
(31,131,l),
(68,47,o),
(163,-10,o),
(266,-10,cs)
);
}
);
userData = {
com.hugojourdan.ColorFlow = {
"0" = 0;
"1" = 0;
"10" = 0;
"11" = 0;
"2" = 0;
"3" = 0;
"4" = 0;
"5" = 0;
"6" = 0;
"7" = 0;
"8" = 0;
"9" = 0;
};
};
width = 574;
},
{
anchors = (
{
name = bottom;
pos = (258,0);
},
{
name = top;
pos = (375,700);
}
);
guides = (
{
angle = 80.5;
pos = (36,251);
},
{
angle = 80.5;
pos = (559,251);
},
{
angle = 80.5;
pos = (544,251);
},
{
angle = 80.5;
pos = (56,251);
},
{
angle = 80.5;
pos = (230,251);
},
{
angle = 80.5;
pos = (383,251);
}
);
layerId = "EE3858F4-A475-4EBA-A8F4-31CE9F38567C";
name = Bold;
shapes = (
{
closed = 1;
nodes = (
(442,-10,o),
(551,89,o),
(551,220,cs),
(551,297,o),
(503,361,o),
(398,424,cs),
(311,476,o),
(283,517,o),
(283,560,cs),
(283,600,o),
(310,622,o),
(351,622,cs),
(410,622,o),
(459,579,o),
(488,494,c),
(599,579,l),
(526,682,o),
(436,710,o),
(346,710,cs),
(207,710,o),
(100,626,o),
(100,496,cs),
(100,418,o),
(144,355,o),
(249,292,cs),
(337,239,o),
(366,199,o),
(366,158,cs),
(366,108,o),
(334,80,o),
(292,80,cs),
(229,80,o),
(170,141,o),
(125,249,c),
(17,137,l),
(66,50,o),
(175,-10,o),
(293,-10,cs)
);
}
);
userData = {
com.hugojourdan.ColorFlow = {
"0" = 0;
"1" = 0;
"10" = 0;
"11" = 0;
"2" = 0;
"3" = 0;
"4" = 0;
"5" = 0;
"6" = 0;
"7" = 0;
"8" = 0;
"9" = 0;
};
};
width = 602;
}
);
metricLeft = "=O*0.78";
metricRight = "=O*0.94";
note = S;
unicode = 83;
},
{
glyphname = Germandbls;
layers = (
{
layerId = m01;
shapes = (
{
closed = 1;
nodes = (
(467,-10,o),
(558,63,o),
(558,207,cs),
(558,330,o),
(488,405,o),
(371,408,c),
(376,400,l),
(538,673,l),
(538,700,l),
(304,700,ls),
(167,700,o),
(96,624,o),
(96,478,cs),
(96,0,l),
(144,0,l),
(144,472,ls),
(144,612,o),
(192,668,o),
(310,668,cs),
(510,668,l),
(490,676,l),
(333,411,l),
(343,379,l),
(357,379,ls),
(448,379,o),
(505,312,o),
(505,205,cs),
(505,81,o),
(435,22,o),
(286,22,c),
(286,-10,l)
);
}
);
userData = {
com.hugojourdan.ColorFlow = {
"0" = 0;
"1" = 0;
"10" = 0;
"11" = 0;
"2" = 0;
"3" = 0;
"4" = 0;
"5" = 0;
"6" = 0;
"7" = 0;
"8" = 0;
"9" = 0;
};
};
width = 636;
},
{
layerId = "BF6BA5B2-0556-42F4-A103-614BEBF16A1A";
shapes = (
{
closed = 1;
nodes = (
(482,-10,o),
(578,62,o),
(578,208,cs),
(578,330,o),
(508,405,o),
(396,403,c),
(407,392,l),
(563,655,l),
(563,700,l),
(321,700,ls),
(168,700,o),
(86,619,o),
(86,467,cs),
(86,0,l),
(185,0,l),
(185,493,ls),
(185,603,o),
(225,648,o),
(324,648,cs),
(502,648,l),
(480,670,l),
(319,399,l),
(332,357,l),
(355,357,ls),
(430,357,o),
(474,305,o),
(474,209,cs),
(474,95,o),
(413,42,o),
(287,42,c),
(287,-10,l)
);
}
);
userData = {
com.hugojourdan.ColorFlow = {
"0" = 0;
"1" = 0;
"10" = 0;
"11" = 0;
"2" = 0;
"3" = 0;
"4" = 0;
"5" = 0;
"6" = 0;
"7" = 0;
"8" = 0;
"9" = 0;
};
};
width = 642;
},
{
layerId = "FF73925E-1E34-445B-881D-5A7CAAA8E8BE";
shapes = (
{
closed = 1;
nodes = (
(504,-10,o),
(606,62,o),
(606,205,cs),
(606,318,o),
(525,386,o),
(393,384,c),
(440,355,l),
(601,627,l),
(601,700,l),
(334,700,ls),
(157,700,o),
(58,610,o),
(58,450,cs),
(58,0,l),
(236,0,l),
(236,508,ls),
(236,581,o),
(265,612,o),
(333,612,cs),
(479,612,l),
(455,652,l),
(294,380,l),
(312,322,l),
(330,322,ls),
(397,322,o),
(423,290,o),
(423,206,cs),
(423,121,o),
(386,81,o),
(302,78,c),
(302,-10,l)
);
}
);
userData = {
com.hugojourdan.ColorFlow = {
"0" = 0;
"1" = 0;
"10" = 0;
"11" = 0;
"2" = 0;
"3" = 0;
"4" = 0;
"5" = 0;
"6" = 0;
"7" = 0;
"8" = 0;
"9" = 0;
};
};
width = 656;
},
{
background = {
guides = (
{
angle = 59.3148;
pos = (457,537);
},
{
angle = 270;
pos = (518,270);
},
{
angle = 270;
pos = (548,270);
},
{
angle = 24.7108;
pos = (314,429);
}
);
shapes = (
{
closed = 0;
nodes = (
(153,24,l),
(538,673,l),
(538,700,l)
);
},
{
closed = 0;
nodes = (
(490,676,l),
(104,25,l)
);
}
);
};
layerId = m004;
shapes = (
{
closed = 1;
nodes = (
(467,-10,o),
(558,63,o),
(558,207,cs),
(558,333,o),
(488,410,o),
(371,413,c),
(376,400,l),
(538,673,l),
(538,700,l),
(304,700,ls),
(167,700,o),
(96,624,o),
(96,478,cs),
(96,0,l),
(144,0,l),
(144,472,ls),
(144,604,o),
(192,658,o),
(310,658,cs),
(510,658,l),
(490,676,l),
(333,411,l),
(343,377,l),
(357,377,ls),
(448,377,o),
(505,311,o),
(505,205,cs),
(505,89,o),
(435,34,o),
(276,34,c),
(276,-10,l)
);
}
);
userData = {
com.hugojourdan.ColorFlow = {
"0" = 0;
"1" = 0;
"10" = 0;
"11" = 0;
"2" = 0;
"3" = 0;
"4" = 0;
"5" = 0;
"6" = 0;
"7" = 0;
"8" = 0;
"9" = 0;
};
};
width = 636;
},
{
layerId = m005;
shapes = (
{
closed = 1;
nodes = (
(482,-10,o),
(578,63,o),
(578,210,cs),
(578,336,o),
(507,411,o),
(396,409,c),
(407,392,l),
(563,657,l),
(563,700,l),
(321,700,ls),
(168,700,o),
(86,619,o),
(86,467,cs),
(86,0,l),
(184,0,l),
(184,467,ls),
(184,577,o),
(224,622,o),
(324,622,cs),
(487,622,l),
(468,652,l),
(319,399,l),
(335,346,l),
(355,346,ls),
(429,346,o),
(473,297,o),
(473,211,cs),
(473,114,o),
(416,69,o),
(287,68,c),
(287,-10,l)
);
}
);
userData = {
com.hugojourdan.ColorFlow = {
"0" = 0;
"1" = 0;
"10" = 0;
"11" = 0;
"2" = 0;
"3" = 0;
"4" = 0;
"5" = 0;
"6" = 0;
"7" = 0;
"8" = 0;
"9" = 0;
};
};
width = 642;
},
{
layerId = m006;
shapes = (
{
closed = 1;
nodes = (
(502,-10,o),
(606,63,o),
(606,207,cs),
(606,320,o),
(541,387,o),
(433,380,c),
(442,359,l),
(601,627,l),
(601,700,l),
(334,700,ls),
(157,700,o),
(58,610,o),
(58,450,cs),
(58,0,l),
(236,0,l),
(236,460,ls),
(236,534,o),
(266,564,o),
(340,564,cs),
(447,564,l),
(430,610,l),
(294,380,l),
(319,298,l),
(350,298,ls),
(395,298,o),
(420,270,o),
(420,218,cs),
(420,152,o),
(381,121,o),
(302,120,c),
(302,-10,l)
);
}
);
userData = {
com.hugojourdan.ColorFlow = {
"0" = 0;
"1" = 0;
"10" = 0;
"11" = 0;
"2" = 0;
"3" = 0;
"4" = 0;
"5" = 0;
"6" = 0;
"7" = 0;
"8" = 0;
"9" = 0;
};
};
width = 656;
},
{
background = {
shapes = (
{
closed = 0;
nodes = (
(500,234,ls),
(500,106,o),
(428,34,o),
(287,34,cs),
(273,34,o),
(257,35,o),
(242,37,c),
(235,-7,l),
(253,-9,o),
(269,-10,o),
(285,-10,cs),
(458,-10,o),
(553,79,o),
(553,238,cs)
);
}
);
};
guides = (
{
angle = 80.5;
pos = (96,239);
},
{
angle = 80.5;
pos = (558,239);
},
{
angle = 80.5;
pos = (144,239);
},
{
angle = 80.5;
pos = (505,239);
},
{
angle = 80.5;
pos = (276,239);
},
{
angle = 180;
pos = (517,673);
}
);
layerId = "4E5694F4-F64E-4331-B998-78BE273203C7";
shapes = (
{
closed = 1;
nodes = (
(411,-26,o),
(553,44,o),
(553,238,cs),
(553,336,o),
(498,400,o),
(397,409,c),
(400,398,l),
(609,673,l),
(615,700,l),
(374,700,ls),
(235,700,o),
(161,630,o),
(139,496,cs),
(56,0,l),
(104,0,l),
(185,484,ls),
(205,603,o),
(255,658,o),
(373,658,cs),
(575,658,l),
(557,673,l),
(359,412,l),
(364,378,l),
(378,377,ls),
(454,370,o),
(500,316,o),
(500,234,cs),
(500,71,o),
(380,20,o),
(242,37,c),
(235,-7,l)
);
}
);
userData = {
com.hugojourdan.ColorFlow = {
"0" = 0;
"1" = 0;
"10" = 0;
"11" = 0;
"2" = 0;
"3" = 0;
"4" = 0;
"5" = 0;
"6" = 0;
"7" = 0;
"8" = 0;
"9" = 0;
};
};
width = 636;
},
{
guides = (
{
angle = 80.5;
pos = (86,245);
},
{
angle = 80.5;
pos = (578,245);
},
{
angle = 80.5;
pos = (563,245);
}
);
layerId = "DF4E5521-40BA-460F-874A-364F4D14AAD8";
shapes = (
{
closed = 1;
nodes = (
(447,-29,o),
(571,59,o),
(571,226,cs),
(571,332,o),
(522,391,o),
(423,404,c),
(432,386,l),
(632,657,l),
(639,700,l),
(377,700,ls),
(233,700,o),
(149,624,o),
(126,484,cs),
(45,0,l),
(143,0,l),
(223,478,ls),
(240,579,o),
(283,622,o),
(375,622,cs),
(548,622,l),
(534,659,l),
(345,399,l),
(353,346,l),
(366,345,ls),
(433,340,o),
(466,299,o),
(466,223,cs),
(466,109,o),
(395,57,o),
(258,72,c),
(245,-6,l)
);
}
);
userData = {
com.hugojourdan.ColorFlow = {
"0" = 0;
"1" = 0;
"10" = 0;
"11" = 0;
"2" = 0;
"3" = 0;
"4" = 0;
"5" = 0;
"6" = 0;
"7" = 0;
"8" = 0;
"9" = 0;
};
};
width = 642;
},
{
background = {
shapes = (
{
closed = 0;
nodes = (
(315,383,l),
(326,299,l),
(357,297,ls),
(395,294,o),
(416,269,o),
(416,233,cs),
(416,228,o),
(415,222,o),
(414,215,cs),
(403,146,o),
(369,121,o),
(299,121,cs),
(293,121,o),
(287,122,o),
(280,122,c),
(259,-7,l),
(280,-9,o),
(300,-10,o),
(319,-10,cs),
(482,-10,o),
(574,55,o),
(596,188,cs),
(598,201,o),
(599,214,o),
(599,227,cs),
(599,314,o),
(544,371,o),
(453,372,c),
(458,350,l)
);
}
);
};
guides = (
{
angle = 80.5;
pos = (58,251);
},
{
angle = 80.5;
pos = (236,251);
},
{
angle = 80.5;
pos = (606,251);
},
{
angle = 80.5;
pos = (601,251);
},
{
angle = 80.5;
pos = (302,251);
},
{
angle = 80.5;
pos = (420,251);
},
{
angle = 53.3625;
pos = (315,383);
}
);
layerId = "C6DE9ED7-34B3-46A1-8A00-A72C4A5E93A3";
shapes = (
{
closed = 1;
nodes = (
(463,-30,o),
(597,60,o),
(597,220,cs),
(597,315,o),
(549,368,o),
(453,381,c),
(458,350,l),
(664,627,l),
(676,700,l),
(381,700,ls),
(220,700,o),
(120,621,o),
(95,472,cs),
(16,0,l),
(194,0,l),
(272,466,ls),
(284,536,o),
(316,564,o),
(385,564,cs),
(497,564,l),
(489,617,l),
(315,383,l),
(326,299,l),
(357,297,ls),
(395,295,o),
(414,272,o),
(414,227,cs),
(414,152,o),
(362,112,o),
(280,122,c),
(259,-7,l)
);
}
);
userData = {
com.hugojourdan.ColorFlow = {
"0" = 0;
"1" = 0;
"10" = 0;
"11" = 0;
"2" = 0;
"3" = 0;
"4" = 0;
"5" = 0;
"6" = 0;
"7" = 0;
"8" = 0;
"9" = 0;
};
};
width = 656;
},
{
layerId = "D2741A44-CB8E-4434-9CC9-735A9A127F4C";
shapes = (
{
closed = 1;
nodes = (
(411,-26,o),
(553,44,o),
(553,238,cs),
(553,334,o),
(498,397,o),
(397,406,c),
(400,398,l),
(609,673,l),
(615,700,l),
(374,700,ls),
(235,700,o),
(161,630,o),
(139,496,cs),
(56,0,l),
(104,0,l),
(185,484,ls),
(206,610,o),
(259,668,o),
(373,668,cs),
(575,668,l),
(557,673,l),
(359,412,l),
(364,380,l),
(378,379,ls),
(454,372,o),
(500,317,o),
(500,234,cs),
(500,60,o),
(379,6,o),
(240,25,c),
(235,-7,l)
);
}
);
userData = {
com.hugojourdan.ColorFlow = {
"0" = 0;
"1" = 0;
"10" = 0;
"11" = 0;
"2" = 0;
"3" = 0;
"4" = 0;
"5" = 0;
"6" = 0;
"7" = 0;
"8" = 0;
"9" = 0;
};
};
width = 636;
},
{
layerId = "0B63B416-D10E-4459-8DAA-360BF3D1BFD2";
shapes = (
{
closed = 1;
nodes = (
(447,-29,o),
(571,59,o),
(571,226,cs),
(571,326,o),
(522,382,o),
(423,394,c),
(421,371,l),
(632,657,l),
(639,700,l),
(377,700,ls),
(233,700,o),
(149,624,o),
(126,484,cs),
(45,0,l),
(143,0,l),
(223,478,ls),
(243,597,o),
(283,648,o),
(385,648,cs),
(548,648,l),
(534,659,l),
(345,399,l),
(351,357,l),
(366,356,ls),
(433,351,o),
(466,306,o),
(466,223,cs),
(466,88,o),
(393,27,o),
(253,46,c),
(245,-6,l)
);
}
);
userData = {
com.hugojourdan.ColorFlow = {
"0" = 0;
"1" = 0;
"10" = 0;
"11" = 0;
"2" = 0;
"3" = 0;
"4" = 0;
"5" = 0;
"6" = 0;
"7" = 0;
"8" = 0;
"9" = 0;
};
};
width = 642;
},
{
layerId = "EE3858F4-A475-4EBA-A8F4-31CE9F38567C";
shapes = (
{
closed = 1;
nodes = (
(463,-30,o),
(597,60,o),
(597,220,cs),
(597,315,o),
(549,368,o),
(453,381,c),
(458,350,l),
(664,627,l),
(676,700,l),
(381,700,ls),
(220,700,o),
(120,621,o),
(95,472,cs),
(16,0,l),
(194,0,l),
(272,466,ls),
(290,569,o),
(316,612,o),
(390,612,cs),
(497,612,l),
(492,621,l),
(315,383,l),
(322,325,l),
(340,324,ls),
(402,321,o),
(414,289,o),
(414,227,cs),
(414,119,o),
(359,62,o),
(273,81,c),
(259,-7,l)
);
}
);
userData = {
com.hugojourdan.ColorFlow = {
"0" = 0;
"1" = 0;
"10" = 0;
"11" = 0;
"2" = 0;
"3" = 0;
"4" = 0;
"5" = 0;
"6" = 0;
"7" = 0;
"8" = 0;
"9" = 0;
};
};
width = 656;
}
);
metricLeft = "=I";
metricRight = "=eight";
unicode = 7838;
},
{
glyphname = T;
layers = (
{
layerId = m01;
shapes = (
{
closed = 1;
nodes = (
(304,0,l),
(304,668,l),
(524,668,l),
(524,700,l),
(36,700,l),
(36,668,l),
(256,668,l),
(256,0,l)
);
}
);
userData = {
com.hugojourdan.ColorFlow = {
"0" = 0;
"1" = 0;
"10" = 0;
"11" = 0;
"2" = 0;
"3" = 0;
"4" = 0;
"5" = 0;
"6" = 0;
"7" = 0;
"8" = 0;
"9" = 0;
};
};
width = 560;
},
{
layerId = "FF73925E-1E34-445B-881D-5A7CAAA8E8BE";
shapes = (
{
closed = 1;
nodes = (
(384,0,l),
(384,610,l),
(569,610,l),
(569,700,l),
(21,700,l),
(21,610,l),
(206,610,l),
(206,0,l)
);
}
);
userData = {
com.hugojourdan.ColorFlow = {
"0" = 0;
"1" = 0;
"10" = 0;
"11" = 0;
"2" = 0;
"3" = 0;
"4" = 0;
"5" = 0;
"6" = 0;
"7" = 0;
"8" = 0;
"9" = 0;
};
};
width = 590;
},
{
layerId = "BF6BA5B2-0556-42F4-A103-614BEBF16A1A";
shapes = (
{
closed = 1;
nodes = (
(336,0,l),
(336,648,l),
(542,648,l),
(542,700,l),
(32,700,l),
(32,648,l),
(238,648,l),
(238,0,l)
);
}
);
userData = {
com.hugojourdan.ColorFlow = {
"0" = 0;
"1" = 0;
"10" = 0;
"11" = 0;
"2" = 0;
"3" = 0;
"4" = 0;
"5" = 0;
"6" = 0;
"7" = 0;
"8" = 0;
"9" = 0;
};
};
width = 574;
},
{
layerId = m004;
shapes = (
{
closed = 1;
nodes = (
(304,0,l),
(304,658,l),
(524,658,l),
(524,700,l),
(36,700,l),
(36,658,l),
(256,658,l),
(256,0,l)
);
}
);
userData = {
com.hugojourdan.ColorFlow = {
"0" = 0;
"1" = 0;
"10" = 0;
"11" = 0;
"2" = 0;
"3" = 0;
"4" = 0;
"5" = 0;
"6" = 0;
"7" = 0;
"8" = 0;
"9" = 0;
};
};
width = 560;
},
{
layerId = m005;
shapes = (
{
closed = 1;
nodes = (
(336,0,l),
(336,617,l),
(542,617,l),
(542,700,l),
(32,700,l),
(32,617,l),
(238,617,l),
(238,0,l)
);
}
);
userData = {
com.hugojourdan.ColorFlow = {
"0" = 0;
"1" = 0;
"10" = 0;
"11" = 0;
"2" = 0;
"3" = 0;
"4" = 0;
"5" = 0;
"6" = 0;
"7" = 0;
"8" = 0;
"9" = 0;
};
};
width = 574;
},
{
layerId = m006;
shapes = (
{
closed = 1;
nodes = (
(384,0,l),
(384,557,l),
(569,557,l),
(569,700,l),
(21,700,l),
(21,557,l),
(206,557,l),
(206,0,l)
);
}
);
userData = {
com.hugojourdan.ColorFlow = {
"0" = 0;
"1" = 0;
"10" = 0;
"11" = 0;
"2" = 0;
"3" = 0;
"4" = 0;
"5" = 0;
"6" = 0;
"7" = 0;
"8" = 0;
"9" = 0;
};
};
width = 590;
},
{
layerId = "4E5694F4-F64E-4331-B998-78BE273203C7";
shapes = (
{
closed = 1;
nodes = (
(264,0,l),
(374,658,l),
(594,658,l),
(601,700,l),
(113,700,l),
(106,658,l),
(326,658,l),
(216,0,l)
);
}
);
userData = {
com.hugojourdan.ColorFlow = {
"0" = 0;
"1" = 0;
"10" = 0;
"11" = 0;
"2" = 0;
"3" = 0;
"4" = 0;
"5" = 0;
"6" = 0;
"7" = 0;
"8" = 0;
"9" = 0;
};
};
width = 560;
},
{
layerId = "DF4E5521-40BA-460F-874A-364F4D14AAD8";
shapes = (
{
closed = 1;
nodes = (
(295,0,l),
(398,617,l),
(604,617,l),
(618,700,l),
(108,700,l),
(94,617,l),
(300,617,l),
(197,0,l)
);
}
);
userData = {
com.hugojourdan.ColorFlow = {
"0" = 0;
"1" = 0;
"10" = 0;
"11" = 0;
"2" = 0;
"3" = 0;
"4" = 0;
"5" = 0;
"6" = 0;
"7" = 0;
"8" = 0;
"9" = 0;
};
};
width = 574;
},
{
layerId = "C6DE9ED7-34B3-46A1-8A00-A72C4A5E93A3";
shapes = (
{
closed = 1;
nodes = (
(342,0,l),
(435,557,l),
(620,557,l),
(644,700,l),
(96,700,l),
(72,557,l),
(257,557,l),
(164,0,l)
);
}
);
userData = {
com.hugojourdan.ColorFlow = {
"0" = 0;
"1" = 0;
"10" = 0;
"11" = 0;
"2" = 0;
"3" = 0;
"4" = 0;
"5" = 0;
"6" = 0;
"7" = 0;
"8" = 0;
"9" = 0;
};
};
width = 590;
},
{
layerId = "D2741A44-CB8E-4434-9CC9-735A9A127F4C";
shapes = (
{
closed = 1;
nodes = (
(264,0,l),
(376,668,l),
(596,668,l),
(601,700,l),
(113,700,l),
(108,668,l),
(328,668,l),
(216,0,l)
);
}
);
userData = {
com.hugojourdan.ColorFlow = {
"0" = 0;
"1" = 0;
"10" = 0;
"11" = 0;
"2" = 0;
"3" = 0;
"4" = 0;
"5" = 0;
"6" = 0;
"7" = 0;
"8" = 0;
"9" = 0;
};
};
width = 560;
},
{
layerId = "0B63B416-D10E-4459-8DAA-360BF3D1BFD2";
shapes = (
{
closed = 1;
nodes = (
(295,0,l),
(403,648,l),
(609,648,l),
(618,700,l),
(108,700,l),
(99,648,l),
(305,648,l),
(197,0,l)
);
}
);
userData = {
com.hugojourdan.ColorFlow = {
"0" = 0;
"1" = 0;
"10" = 0;
"11" = 0;
"2" = 0;
"3" = 0;
"4" = 0;
"5" = 0;
"6" = 0;
"7" = 0;
"8" = 0;
"9" = 0;
};
};
width = 574;
},
{
layerId = "EE3858F4-A475-4EBA-A8F4-31CE9F38567C";
shapes = (
{
closed = 1;
nodes = (
(342,0,l),
(444,610,l),
(629,610,l),
(644,700,l),
(96,700,l),
(81,610,l),
(266,610,l),
(164,0,l)
);
}
);
userData = {
com.hugojourdan.ColorFlow = {
"0" = 0;
"1" = 0;
"10" = 0;
"11" = 0;
"2" = 0;
"3" = 0;
"4" = 0;
"5" = 0;
"6" = 0;
"7" = 0;
"8" = 0;
"9" = 0;
};
};
width = 590;
}
);
metricLeft = "=H*0.37";
metricRight = "=|";
note = T;
unicode = 84;
},
{
glyphname = U;
layers = (
{
anchors = (
{
name = ogonek;
pos = (311,0);
},
{
name = top;
pos = (311,700);
}
);
layerId = m01;
shapes = (
{
closed = 1;
nodes = (
(462,-10,o),
(535,81,o),
(535,280,cs),
(535,700,l),
(497,700,l),
(497,261,ls),
(497,97,o),
(438,22,o),
(309,22,cs),
(188,22,o),
(132,86,o),
(132,226,cs),
(132,700,l),
(84,700,l),
(84,250,ls),
(84,71,o),
(154,-10,o),
(303,-10,cs)
);
}
);
userData = {
com.hugojourdan.ColorFlow = {
"0" = 0;
"1" = 0;
"10" = 0;
"11" = 0;
"2" = 0;
"3" = 0;
"4" = 0;
"5" = 0;
"6" = 0;
"7" = 0;
"8" = 0;
"9" = 0;
};
};
width = 619;
},
{
anchors = (
{
name = ogonek;
pos = (339,0);
},
{
name = top;
pos = (339,700);
}
);
layerId = "FF73925E-1E34-445B-881D-5A7CAAA8E8BE";
shapes = (
{
closed = 1;
nodes = (
(509,-10,o),
(599,86,o),
(599,288,cs),
(599,700,l),
(478,700,l),
(478,244,ls),
(478,131,o),
(439,80,o),
(354,80,cs),
(271,80,o),
(229,129,o),
(229,224,cs),
(229,700,l),
(51,700,l),
(51,242,ls),
(51,74,o),
(141,-10,o),
(319,-10,cs)
);
}
);
userData = {
com.hugojourdan.ColorFlow = {
"0" = 0;
"1" = 0;
"10" = 0;
"11" = 0;
"2" = 0;
"3" = 0;
"4" = 0;
"5" = 0;
"6" = 0;
"7" = 0;
"8" = 0;
"9" = 0;
};
};
width = 650;
},
{
anchors = (
{
name = ogonek;
pos = (335,0);
},
{
name = top;
pos = (335,700);
}
);
layerId = "BF6BA5B2-0556-42F4-A103-614BEBF16A1A";
shapes = (
{
closed = 1;
nodes = (
(498,-10,o),
(580,84,o),
(580,283,cs),
(580,700,l),
(510,700,l),
(510,249,ls),
(510,104,o),
(457,38,o),
(340,38,cs),
(229,38,o),
(174,95,o),
(174,213,cs),
(174,700,l),
(76,700,l),
(76,241,ls),
(76,72,o),
(158,-10,o),
(324,-10,cs)
);
}
);
userData = {
com.hugojourdan.ColorFlow = {
"0" = 0;
"1" = 0;
"10" = 0;
"11" = 0;
"2" = 0;
"3" = 0;
"4" = 0;
"5" = 0;
"6" = 0;
"7" = 0;
"8" = 0;
"9" = 0;
};
};
width = 656;
},
{
anchors = (
{
name = ogonek;
pos = (310,0);
},
{
name = top;
pos = (310,700);
}
);
layerId = m004;
shapes = (
{
closed = 1;
nodes = (
(158,-10,o),
(84,75,o),
(84,250,cs),
(84,700,l),
(132,700,l),
(132,256,ls),
(132,103,o),
(189,32,o),
(310,32,cs),
(430,32,o),
(487,104,o),
(487,256,cs),
(487,700,l),
(535,700,l),
(535,250,ls),
(535,75,o),
(461,-10,o),
(310,-10,cs)
);
}
);
userData = {
com.hugojourdan.ColorFlow = {
"0" = 0;
"1" = 0;
"10" = 0;
"11" = 0;
"2" = 0;
"3" = 0;
"4" = 0;
"5" = 0;
"6" = 0;
"7" = 0;
"8" = 0;
"9" = 0;
};
};
width = 619;
},
{
anchors = (
{
name = ogonek;
pos = (328,0);
},
{
name = top;
pos = (328,700);
}
);
layerId = m005;
shapes = (
{
closed = 1;
nodes = (
(493,-10,o),
(580,85,o),
(580,264,cs),
(580,700,l),
(482,700,l),
(482,279,ls),
(482,139,o),
(433,75,o),
(328,75,cs),
(224,75,o),
(174,141,o),
(174,279,cs),
(174,700,l),
(76,700,l),
(76,264,ls),
(76,85,o),
(163,-10,o),
(328,-10,cs)
);
}
);
userData = {
com.hugojourdan.ColorFlow = {
"0" = 0;
"1" = 0;
"10" = 0;
"11" = 0;
"2" = 0;
"3" = 0;
"4" = 0;
"5" = 0;
"6" = 0;
"7" = 0;
"8" = 0;
"9" = 0;
};
};
width = 656;
},
{
anchors = (
{
name = ogonek;
pos = (325,0);
},
{
name = top;
pos = (325,700);
}
);
layerId = m006;
shapes = (
{
closed = 1;
nodes = (
(499,-10,o),
(599,87,o),
(599,257,cs),
(599,700,l),
(421,700,l),
(421,267,ls),
(421,182,o),
(389,138,o),
(325,138,cs),
(261,138,o),
(229,182,o),
(229,267,cs),
(229,700,l),
(51,700,l),
(51,257,ls),
(51,87,o),
(151,-10,o),
(325,-10,cs)
);
}
);
userData = {
com.hugojourdan.ColorFlow = {
"0" = 0;
"1" = 0;
"10" = 0;
"11" = 0;
"2" = 0;
"3" = 0;
"4" = 0;
"5" = 0;
"6" = 0;
"7" = 0;
"8" = 0;
"9" = 0;
};
};
width = 650;
},
{
anchors = (
{
name = ogonek;
pos = (274,0);
},
{
name = top;
pos = (391,700);
}
);
background = {
shapes = (
{
closed = 1;
nodes = (
(92,0,l),
(209,702,l),
(161,702,l),
(44,0,l)
);
},
{
closed = 1;
nodes = (
(495,0,l),
(612,702,l),
(564,702,l),
(447,0,l)
);
}
);
};
layerId = "4E5694F4-F64E-4331-B998-78BE273203C7";
shapes = (
{
closed = 1;
nodes = (
(433,-10,o),
(507,71,o),
(539,263,cs),
(612,700,l),
(564,700,l),
(490,257,ls),
(463,94,o),
(408,32,o),
(291,32,cs),
(165,32,o),
(110,109,o),
(134,251,cs),
(209,700,l),
(161,700,l),
(89,269,ls),
(59,88,o),
(129,-10,o),
(289,-10,cs)
);
}
);
userData = {
com.hugojourdan.ColorFlow = {
"0" = 0;
"1" = 0;
"10" = 0;
"11" = 0;
"2" = 0;
"3" = 0;
"4" = 0;
"5" = 0;
"6" = 0;
"7" = 0;
"8" = 0;
"9" = 0;
};
};
width = 619;
},
{
anchors = (
{
name = ogonek;
pos = (292,0);
},
{
name = top;
pos = (409,700);
}
);
background = {
shapes = (
{
closed = 1;
nodes = (
(133,0,l),
(250,700,l),
(152,700,l),
(35,0,l)
);
},
{
closed = 1;
nodes = (
(537,0,l),
(654,700,l),
(556,700,l),
(439,0,l)
);
}
);
};
layerId = "DF4E5521-40BA-460F-874A-364F4D14AAD8";
shapes = (
{
closed = 1;
nodes = (
(470,-10,o),
(551,72,o),
(583,263,cs),
(656,700,l),
(558,700,l),
(484,257,ls),
(463,130,o),
(412,75,o),
(314,75,cs),
(205,75,o),
(157,142,o),
(177,263,cs),
(250,700,l),
(152,700,l),
(83,287,ls),
(51,98,o),
(134,-10,o),
(312,-10,cs)
);
}
);
userData = {
com.hugojourdan.ColorFlow = {
"0" = 0;
"1" = 0;
"10" = 0;
"11" = 0;
"2" = 0;
"3" = 0;
"4" = 0;
"5" = 0;
"6" = 0;
"7" = 0;
"8" = 0;
"9" = 0;
};
};
width = 656;
},
{
anchors = (
{
name = ogonek;
pos = (288,0);
},
{
name = top;
pos = (405,700);
}
);
background = {
shapes = (
{
closed = 1;
nodes = (
(187,0,l),
(304,700,l),
(126,700,l),
(9,0,l)
);
},
{
closed = 1;
nodes = (
(557,0,l),
(674,700,l),
(496,700,l),
(379,0,l)
);
}
);
};
layerId = "C6DE9ED7-34B3-46A1-8A00-A72C4A5E93A3";
shapes = (
{
closed = 1;
nodes = (
(475,-10,o),
(570,77,o),
(600,257,cs),
(674,700,l),
(496,700,l),
(422,257,ls),
(408,174,o),
(376,138,o),
(319,138,cs),
(252,138,o),
(219,189,o),
(233,275,cs),
(304,700,l),
(126,700,l),
(60,305,ls),
(27,109,o),
(121,-10,o),
(312,-10,cs)
);
}
);
userData = {
com.hugojourdan.ColorFlow = {
"0" = 0;
"1" = 0;
"10" = 0;
"11" = 0;
"2" = 0;
"3" = 0;
"4" = 0;
"5" = 0;
"6" = 0;
"7" = 0;
"8" = 0;
"9" = 0;
};
};
width = 650;
},
{
anchors = (
{
name = ogonek;
pos = (276,0);
},
{
name = top;
pos = (393,700);
}
);
guides = (
{
angle = 80.5;
pos = (84,239);
},
{
angle = 80.5;
pos = (535,239);
},
{
angle = 80.5;
pos = (535,239);
},
{
angle = 80.5;
pos = (132,239);
},
{
angle = 80.5;
pos = (497,239);
}
);
layerId = "D2741A44-CB8E-4434-9CC9-735A9A127F4C";
shapes = (
{
closed = 1;
nodes = (
(429,-10,o),
(508,75,o),
(539,263,cs),
(612,700,l),
(574,700,l),
(499,251,ls),
(472,90,o),
(409,22,o),
(293,22,cs),
(167,22,o),
(109,102,o),
(133,245,cs),
(209,700,l),
(161,700,l),
(89,269,ls),
(59,92,o),
(131,-10,o),
(286,-10,cs)
);
}
);
userData = {
com.hugojourdan.ColorFlow = {
"0" = 0;
"1" = 0;
"10" = 0;
"11" = 0;
"2" = 0;
"3" = 0;
"4" = 0;
"5" = 0;
"6" = 0;
"7" = 0;
"8" = 0;
"9" = 0;
};
};
width = 619;
},
{
anchors = (
{
name = ogonek;
pos = (299,0);
},
{
name = top;
pos = (416,700);
}
);
guides = (
{
angle = 80.5;
pos = (76,245);
},
{
angle = 80.5;
pos = (580,245);
},
{
angle = 80.5;
pos = (510,245);
},
{
angle = 80.5;
pos = (173,245);
}
);
layerId = "0B63B416-D10E-4459-8DAA-360BF3D1BFD2";
shapes = (
{
closed = 1;
nodes = (
(467,-10,o),
(552,73,o),
(583,262,cs),
(655,700,l),
(585,700,l),
(508,233,ls),
(485,94,o),
(430,38,o),
(322,38,cs),
(208,38,o),
(149,101,o),
(170,227,cs),
(249,700,l),
(152,700,l),
(79,263,ls),
(49,83,o),
(137,-10,o),
(309,-10,cs)
);
}
);
userData = {
com.hugojourdan.ColorFlow = {
"0" = 0;
"1" = 0;
"10" = 0;
"11" = 0;
"2" = 0;
"3" = 0;
"4" = 0;
"5" = 0;
"6" = 0;
"7" = 0;
"8" = 0;
"9" = 0;
};
};
width = 656;
},
{
anchors = (
{
name = ogonek;
pos = (303,0);
},
{
name = top;
pos = (420,700);
}
);
guides = (
{
angle = 80.5;
pos = (51,251);
},
{
angle = 80.5;
pos = (599,251);
},
{
angle = 80.5;
pos = (478,251);
},
{
angle = 80.5;
pos = (229,251);
}
);
layerId = "EE3858F4-A475-4EBA-A8F4-31CE9F38567C";
shapes = (
{
closed = 1;
nodes = (
(484,-10,o),
(571,79,o),
(601,263,cs),
(673,700,l),
(552,700,l),
(475,233,ls),
(457,125,o),
(416,80,o),
(338,80,cs),
(250,80,o),
(210,136,o),
(226,233,cs),
(304,700,l),
(126,700,l),
(54,269,ls),
(24,87,o),
(121,-10,o),
(306,-10,cs)
);
}
);
userData = {
com.hugojourdan.ColorFlow = {
"0" = 0;
"1" = 0;
"10" = 0;
"11" = 0;
"2" = 0;
"3" = 0;
"4" = 0;
"5" = 0;
"6" = 0;
"7" = 0;
"8" = 0;
"9" = 0;
};
};
width = 650;
}
);
metricLeft = "=H*0.88";
metricRight = "=|";
note = U;
unicode = 85;
},
